<svg width="500" height="416" viewBox="0 0 500 416" fill="none" xmlns="http://www.w3.org/2000/svg">
<g clip-path="url(#clip0_36_596)">
<path d="M300.517 8.56111C153.612 -39.3221 211.194 126.959 98.1445 175.75C78.0684 184.416 52.1065 195.657 41.8555 214.834C21.3992 253.069 36.4259 289.264 44.8061 309.528C62.0989 351.292 120.076 404.818 259.118 414.154C438.16 426.184 465.323 273.809 460.274 208.193C455.209 142.563 447.453 56.4592 300.532 8.576L300.517 8.56111Z" fill="#D5FF3C"/>
<path d="M156.897 49.0896C126.829 51.8441 77.1407 79.7759 59.1331 109.018C48.0761 126.974 49.6274 138.945 52.4715 145.511C54.1901 149.472 57.9164 152.122 62.1749 152.524C78.9658 154.132 103.194 147.164 128.243 116.343C156.259 81.8753 186.951 46.3351 156.882 49.0747L156.897 49.0896Z" fill="#D5FF3C"/>
<path d="M439.392 413.037H40.9125V416H439.392V413.037Z" fill="#251C4C"/>
<path d="M418.525 19.3405C417.065 19.2512 415.62 19.2214 414.16 19.281C414.16 19.281 414.144 19.2661 414.144 19.281C412.7 19.3257 411.255 19.4448 409.81 19.6234C407.376 19.9361 407.118 23.0032 408.684 23.971C408.259 28.4378 407.422 37.0734 406.342 48.806C404.654 49.5802 404.259 52.2007 405.977 52.9302C405.186 61.4319 404.304 71.2884 403.346 82.1872C401.688 82.7232 401.658 85.1204 402.996 86.1775C402.205 95.3343 401.384 105.146 400.548 115.449C398.509 115.985 398.023 119.142 400.198 119.827C399.376 129.996 398.54 140.597 397.734 151.436C395.589 151.838 395.605 154.861 397.414 155.754C396.806 163.809 396.228 171.968 395.65 180.187C393.627 180.604 393.627 183.492 395.361 184.46C394.692 194.421 394.053 204.441 393.445 214.387C391.376 214.864 390.905 218.139 393.186 218.824C392.608 228.532 392.091 238.165 391.635 247.56C389.414 247.858 389.46 251.044 391.422 251.922C390.951 262.062 390.57 271.933 390.297 281.343C387.924 281.76 387.361 285.527 390.114 285.869H390.175C389.643 305.687 389.597 323.435 390.236 337.49L401.293 336.998V336.939C400.654 323.345 400.684 306.253 401.186 287.15C403.939 287.165 404.745 282.951 401.825 282.594C401.658 282.579 401.49 282.549 401.323 282.534C401.597 272.722 402.008 262.404 402.509 251.774H402.677C405.567 251.416 405.399 247.173 402.722 247.128C403.148 238.269 403.635 229.202 404.167 220.045L404.456 220.075C407.392 220.179 407.163 215.876 404.456 215.489C405.049 205.543 405.688 195.523 406.373 185.547C408.578 185.115 409.095 181.676 406.677 181.095C407.255 172.638 407.878 164.226 408.487 155.962C411.255 155.903 411.179 152.062 408.821 151.436C409.612 140.925 410.433 130.636 411.224 120.75C413.947 120.735 413.901 116.938 411.589 116.253C412.411 106.233 413.232 96.6594 413.992 87.7111C414.068 87.7408 414.175 87.7408 414.251 87.7557C417.262 88.2917 418.221 83.7357 415.209 83.2146C414.935 83.1699 414.662 83.1252 414.388 83.0806C415.331 72.286 416.198 62.5337 416.973 54.1065C419.741 54.0618 420.548 49.8482 417.612 49.5653L417.399 49.5355C418.586 36.7012 419.468 27.604 419.833 23.7477C420.593 23.2861 421.095 22.3481 421.049 21.5441C420.943 20.1743 419.817 19.4597 418.525 19.3852V19.3405Z" fill="#251C4C"/>
<path d="M418.525 19.3415C417.065 19.2522 415.62 19.2224 414.16 19.282C414.16 19.282 414.144 19.2671 414.144 19.282C413.658 19.3117 413.171 19.3713 412.7 19.4309C410.266 19.7435 409.992 22.8256 411.574 23.7785C411.133 28.2601 410.312 36.8808 409.232 48.6134C407.529 49.3876 407.148 52.0081 408.852 52.7525C408.061 61.2542 407.194 71.1107 406.236 82.0095C404.578 82.5455 404.532 84.9427 405.886 85.9998C405.095 95.1566 404.274 104.968 403.437 115.272C401.384 115.808 400.913 118.964 403.072 119.649C402.266 129.818 401.414 140.419 400.608 151.258C398.464 151.66 398.479 154.683 400.289 155.576C399.696 163.631 399.118 171.79 398.54 180.009C396.487 180.426 396.517 183.315 398.251 184.282C397.567 194.243 396.928 204.278 396.335 214.209C394.251 214.686 393.795 217.961 396.061 218.646C395.483 228.354 394.966 237.987 394.54 247.367C392.319 247.665 392.365 250.851 394.327 251.73C393.856 261.869 393.475 271.741 393.202 281.151C390.814 281.567 390.251 285.349 393.019 285.677H393.065C392.532 305.509 392.487 323.242 393.156 337.297L401.308 336.94C400.684 323.346 400.7 306.253 401.217 287.151C403.97 287.166 404.776 282.952 401.856 282.595C401.688 282.58 401.521 282.55 401.354 282.535C401.627 272.723 402.038 262.405 402.54 251.774H402.707C405.597 251.417 405.43 247.174 402.753 247.129C403.179 238.27 403.665 229.203 404.198 220.046L404.487 220.076C407.422 220.18 407.194 215.877 404.487 215.49C405.08 205.544 405.719 195.524 406.403 185.548C408.608 185.116 409.125 181.677 406.707 181.096C407.285 172.639 407.909 164.227 408.517 155.963C411.285 155.904 411.209 152.062 408.852 151.437C409.643 140.925 410.464 130.637 411.255 120.751C413.977 120.736 413.932 116.939 411.62 116.254C412.441 106.234 413.262 96.6603 414.023 87.712C414.099 87.7418 414.205 87.7418 414.281 87.7567C417.293 88.2927 418.251 83.7367 415.24 83.2155C414.966 83.1709 414.692 83.1262 414.418 83.0815C415.361 72.287 416.228 62.5346 417.004 54.1074C419.772 54.0628 420.578 49.8492 417.643 49.5663L417.43 49.5365C418.616 36.7021 419.498 27.6049 419.863 23.7487C420.624 23.2871 421.125 22.3491 421.08 21.5451C420.973 20.1753 419.848 19.4606 418.555 19.3862L418.525 19.3415Z" fill="white"/>
<path d="M418.57 18.5668C417.11 18.4775 415.772 18.4477 414.479 18.4924L414.342 18.3584L413.947 18.5222C413.491 18.552 413.034 18.6115 412.608 18.6711C411.224 18.8497 410.175 19.7877 409.871 21.1427C409.612 22.2891 409.962 23.4356 410.738 24.1502C410.297 28.6765 409.506 36.9846 408.472 48.1514C407.544 48.7618 406.935 49.8636 406.951 51.0101C406.951 51.9183 407.346 52.6925 408.015 53.1839C407.255 61.4473 406.403 71.0061 405.49 81.5177C404.806 81.9049 404.35 82.5749 404.198 83.4087C404 84.4658 404.35 85.5825 405.08 86.3418C404.319 95.2603 403.513 104.774 402.692 114.75C401.627 115.271 400.913 116.373 400.882 117.624C400.852 118.725 401.369 119.649 402.251 120.155V120.185C401.46 130.041 400.654 140.24 399.863 150.692C398.966 151.064 398.357 151.868 398.205 152.896C398.038 154.102 398.54 155.308 399.453 156.008C398.89 163.735 398.327 171.567 397.779 179.458C396.943 179.83 396.365 180.575 396.213 181.542C396.03 182.733 396.502 183.954 397.414 184.684C396.73 194.719 396.106 204.457 395.559 213.673C394.51 214.164 393.795 215.236 393.749 216.487C393.703 217.648 394.266 218.646 395.224 219.167C394.662 228.83 394.16 238.121 393.749 246.786C392.852 247.129 392.243 247.903 392.076 248.915C391.909 250.017 392.35 251.417 393.491 252.191C393.019 262.36 392.654 271.904 392.395 280.584C391.011 281.135 390.312 282.55 390.342 283.771C390.373 284.991 391.087 285.944 392.228 286.317C391.681 307.072 391.711 324.239 392.319 337.341L392.35 338.116L402.099 337.684L402.068 336.91C401.475 324.15 401.445 307.653 401.962 287.85C403.483 287.508 404.365 286.138 404.456 284.828C404.548 283.547 403.848 282.177 402.129 281.865C402.388 272.916 402.768 263.03 403.255 252.444C404.867 252.012 405.643 250.538 405.567 249.183C405.491 247.843 404.7 246.801 403.544 246.473C403.939 238.433 404.395 229.828 404.913 220.849C406.266 220.701 407.209 219.748 407.346 218.363C407.468 217.008 406.738 215.475 405.278 214.924C405.81 205.931 406.418 196.506 407.118 186.143C408.35 185.622 409.019 184.342 409.049 183.21C409.08 182.049 408.487 181.066 407.498 180.589C408.046 172.549 408.639 164.539 409.217 156.663C410.373 156.38 411.179 155.501 411.331 154.251C411.483 153.045 410.935 151.586 409.643 150.93C410.418 140.612 411.209 130.681 411.954 121.435C413.08 121.167 413.871 120.319 414.038 119.127C414.221 117.921 413.688 116.447 412.411 115.748C413.186 106.234 413.977 97.1215 414.707 88.5752C415.62 88.5752 416.441 88.2029 417.019 87.518C417.795 86.6247 418.038 85.3442 417.627 84.2573C417.262 83.2895 416.426 82.6195 415.316 82.4409H415.224C416.122 72.1823 416.943 62.8915 417.688 54.777C419.24 54.4197 420.183 52.9903 420.243 51.6205C420.304 50.2507 419.498 49.1936 418.251 48.8661C419.179 38.8755 419.909 31.2225 420.35 26.6367L420.593 24.1502C421.399 23.51 421.901 22.438 421.84 21.4553C421.703 19.8175 420.426 18.686 418.57 18.5817V18.5668ZM419.422 23.0484L419.087 23.2569L418.783 26.4878C418.327 31.1928 417.567 39.1137 416.624 49.4467L416.548 50.1763L417.536 50.3401C418.555 50.4294 418.677 51.159 418.662 51.5759C418.631 52.2905 418.084 53.303 416.958 53.3179H416.243L416.183 54.0326C415.407 62.4747 414.54 72.227 413.597 83.0215L413.536 83.7362L415.072 83.9893C415.62 84.0787 415.985 84.3615 416.152 84.8082C416.35 85.3591 416.213 86.0589 415.817 86.5205C415.574 86.8034 415.118 87.116 414.342 86.982C414.312 86.982 414.266 86.982 414.236 86.9671L413.293 86.6842L413.202 87.652C412.426 96.6003 411.62 106.174 410.799 116.194L410.753 116.82L411.361 116.998C412.213 117.251 412.593 118.175 412.487 118.919C412.426 119.306 412.183 119.976 411.224 119.976H410.494L410.433 120.691C409.658 130.279 408.837 140.627 408.03 151.392L407.985 152.032L408.608 152.196C409.475 152.434 409.856 153.328 409.764 154.072C409.719 154.489 409.475 155.189 408.472 155.204H407.741L407.681 155.933C407.072 164.197 406.464 172.624 405.871 181.066L405.825 181.721L406.479 181.87C407.392 182.093 407.483 182.853 407.468 183.18C407.452 183.865 407.011 184.639 406.205 184.803L405.612 184.922L405.567 185.518C404.837 196.327 404.198 206.124 403.65 215.475L403.605 216.189L404.319 216.293C405.43 216.457 405.825 217.529 405.764 218.244C405.719 218.676 405.506 219.39 404.532 219.346L403.422 219.241L403.376 220.045C402.829 229.56 402.327 238.672 401.932 247.129L401.886 247.933H402.707C403.605 247.962 403.954 248.692 403.985 249.302C404.015 249.883 403.757 250.896 402.616 251.03L401.734 251.089L401.703 251.789C401.186 262.896 400.791 273.259 400.517 282.565V283.294L401.719 283.428C402.814 283.562 402.89 284.411 402.859 284.768C402.799 285.572 402.205 286.421 401.202 286.421H400.411L400.395 287.18C399.878 306.923 399.894 323.42 400.456 336.254L393.886 336.552C393.308 323.435 393.293 306.357 393.84 285.766L393.81 284.932L393.034 284.962C392.107 284.828 391.954 284.158 391.939 283.785C391.909 283.026 392.426 282.148 393.323 281.999L393.962 281.895V281.254C394.251 272.306 394.631 262.405 395.118 251.848L395.148 251.327L394.662 251.104C393.886 250.762 393.582 249.868 393.673 249.198C393.734 248.796 393.947 248.305 394.646 248.216L395.3 248.126L395.331 247.471C395.757 238.478 396.259 228.815 396.852 218.75L396.882 218.14L396.289 217.961C395.392 217.693 395.331 216.904 395.346 216.576C395.376 215.951 395.741 215.206 396.502 215.028L397.08 214.894L397.11 214.313C397.673 204.829 398.312 194.764 399.027 184.386L399.057 183.895L398.616 183.657C397.932 183.284 397.673 182.451 397.764 181.825C397.825 181.438 398.038 180.962 398.677 180.828L399.27 180.709L399.316 180.113C399.878 171.894 400.472 163.735 401.065 155.695L401.095 155.174L400.624 154.936C399.939 154.593 399.665 153.774 399.757 153.149C399.802 152.807 400 152.226 400.745 152.077L401.338 151.958L401.384 151.362C402.175 140.731 403.011 130.369 403.802 120.333L403.894 119.142L403.3 118.949C402.51 118.696 402.433 117.981 402.449 117.683C402.464 117.043 402.844 116.269 403.635 116.075L404.183 115.926L404.228 115.375C405.065 105.072 405.901 95.2752 406.677 86.1185L406.707 85.7016L406.373 85.4336C405.886 85.0464 405.627 84.3318 405.734 83.6915C405.795 83.364 405.962 82.9471 406.464 82.7833L406.966 82.6195L407.011 82.1133C407.97 71.2145 408.837 61.358 409.627 52.8563L409.673 52.3054L409.156 52.0821C408.608 51.8439 408.532 51.3228 408.532 51.025C408.532 50.4443 408.852 49.685 409.551 49.3574L409.962 49.1638L410.008 48.7172C411.087 36.9995 411.909 28.3638 412.35 23.8971L412.395 23.4207L411.97 23.1676C411.498 22.8847 411.255 22.17 411.407 21.5C411.483 21.1724 411.757 20.3833 412.791 20.2493C413.247 20.1898 413.719 20.1302 414.175 20.1004H414.236C415.559 20.0409 416.943 20.0558 418.464 20.16C418.859 20.1749 420.137 20.3535 420.243 21.5893C420.274 22.1253 419.909 22.7804 419.407 23.0782L419.422 23.0484Z" fill="#251C4C"/>
<path d="M387.224 303.886C387.103 303.916 386.981 303.916 386.859 303.93C386.677 295.667 386.479 286.346 386.251 276.326C388.456 275.477 388.289 272.068 386.129 271.83C385.916 263.179 385.673 254.052 385.43 244.702C385.719 244.657 386.038 244.612 386.342 244.568C389.338 244.106 389.034 239.476 386.023 239.937C385.795 239.967 385.536 240.012 385.308 240.042C385.08 232.195 384.836 224.2 384.578 216.204C384.867 216.145 385.156 216.07 385.43 215.996C388.183 215.192 386.981 211.306 384.411 211.499C384.076 201.598 383.696 191.741 383.316 182.123C383.392 182.108 383.452 182.078 383.529 182.064C386.068 181.394 385.247 178.073 383.118 177.642C382.677 167.323 382.19 157.348 381.688 148.042C383.939 147.149 383.3 144.111 381.43 143.605C380.517 127.763 379.468 114.095 378.297 104.253C379.726 103.375 379.559 101.425 378.525 100.487C377.992 99.9803 377.186 99.7569 376.274 100.114C373.582 101.127 370.829 101.827 367.97 102.214C365.262 102.571 365.247 106.353 367.498 106.814C368.593 116.567 369.582 129.982 370.464 145.526C368.639 146.255 368.806 149.159 370.707 149.829C371.209 158.986 371.665 168.797 372.091 178.967H372.015C368.973 178.982 369.293 183.567 372.304 183.597C372.7 193.32 373.065 203.31 373.399 213.331C372.274 214.179 372.365 216.13 373.521 217.038C373.81 225.331 374.053 233.639 374.281 241.754C371.954 242.513 372.122 246.087 374.418 246.295C374.662 255.481 374.905 264.46 375.103 272.961C372.335 273.229 372.548 277.339 375.209 277.562C375.437 287.21 375.635 296.158 375.802 304.154C373.597 304.734 373.156 308.308 375.817 308.635C375.848 308.635 375.863 308.635 375.894 308.635C376.259 327.604 376.456 339.962 376.471 340.438L387.529 340.29C387.529 340.29 387.529 340.156 387.529 340.081C387.483 337.654 387.3 325.847 386.951 308.576C387.148 308.546 387.346 308.531 387.544 308.501C390.525 308.04 390.236 303.409 387.224 303.871V303.886Z" fill="#251C4C"/>
<path d="M387.224 303.885C387.103 303.914 386.981 303.914 386.859 303.929C386.677 295.666 386.479 286.345 386.251 276.325C388.456 275.476 388.289 272.067 386.129 271.829C385.916 263.178 385.673 254.051 385.43 244.701C385.719 244.656 386.038 244.611 386.342 244.567C389.338 244.105 389.034 239.475 386.023 239.936C385.795 239.966 385.536 240.011 385.308 240.04C385.08 232.194 384.836 224.198 384.578 216.203C384.867 216.143 385.156 216.069 385.43 215.995C388.182 215.191 386.981 211.305 384.411 211.498C384.076 201.597 383.696 191.74 383.316 182.122C383.392 182.107 383.452 182.077 383.529 182.062C386.068 181.392 385.247 178.072 383.118 177.64C382.677 167.322 382.19 157.347 381.688 148.041C383.939 147.148 383.3 144.11 381.43 143.604C380.517 127.762 379.468 114.094 378.297 104.252C379.726 103.374 379.559 101.423 378.525 100.485C376.426 101.155 374.281 101.647 372.091 101.93C369.354 102.302 369.354 106.084 371.605 106.53C372.715 116.283 373.688 129.713 374.586 145.242C372.73 145.971 372.913 148.875 374.814 149.545C375.316 158.702 375.772 168.513 376.213 178.683H376.122C373.08 178.698 373.414 183.283 376.411 183.313C376.806 193.036 377.186 203.026 377.521 213.047C376.38 213.895 376.471 215.846 377.643 216.754C377.901 225.047 378.175 233.355 378.388 241.47C376.061 242.229 376.228 245.802 378.525 246.011C378.783 255.197 379.011 264.176 379.209 272.662C376.441 272.93 376.654 277.04 379.331 277.263C379.559 286.911 379.757 295.874 379.924 303.855C377.703 304.436 377.262 308.009 379.924 308.336C379.954 308.336 379.985 308.336 380 308.336C380.395 327.305 380.563 339.678 380.578 340.139L387.529 340.05C387.483 337.623 387.3 325.816 386.951 308.545C387.148 308.515 387.346 308.5 387.544 308.47C390.54 308.009 390.236 303.378 387.224 303.84V303.885Z" fill="white"/>
<path d="M387.65 303.081L387.513 296.485C387.376 290.336 387.24 283.74 387.072 276.802C388.319 276.057 388.76 274.628 388.608 273.511C388.471 272.424 387.833 271.591 386.92 271.233C386.722 262.97 386.494 254.275 386.251 245.386C386.327 245.386 386.403 245.371 386.464 245.356C388.502 245.043 389.445 243.182 389.186 241.574C388.928 239.966 387.65 238.998 386.068 239.162C385.855 231.807 385.627 224.333 385.384 216.844C385.475 216.814 385.567 216.799 385.658 216.769C387.194 216.322 388.03 214.982 387.741 213.434C387.513 212.258 386.57 211.067 385.186 210.799C384.867 201.597 384.517 192.157 384.137 182.718C385.278 182.271 385.947 181.288 385.901 180.068C385.855 178.787 385.034 177.611 383.894 177.105C383.498 167.65 383.027 158.047 382.509 148.533C383.452 147.952 383.985 146.954 383.909 145.808C383.833 144.632 383.163 143.589 382.19 143.098C381.232 126.75 380.213 113.811 379.133 104.64C379.696 104.148 380.046 103.463 380.106 102.689C380.198 101.677 379.787 100.62 379.042 99.9347L378.692 99.6221L378.251 99.7561C376.137 100.426 374.023 100.903 371.939 101.171C370.068 101.424 369.186 102.898 369.141 104.253C369.095 105.548 369.764 106.665 370.829 107.126C371.817 115.97 372.76 128.313 373.734 144.81C372.928 145.346 372.456 146.269 372.471 147.327C372.487 148.503 373.08 149.515 374.023 150.066C374.479 158.374 374.905 167.531 375.361 178.013C374.053 178.311 373.171 179.383 373.171 180.827C373.171 182.197 374.008 183.656 375.605 184.028C376.03 194.584 376.38 203.979 376.669 212.734C376.167 213.255 375.878 213.955 375.878 214.744C375.878 215.652 376.213 216.516 376.821 217.126V217.484C377.08 225.375 377.338 233.266 377.551 240.994C376.259 241.693 375.787 243.123 375.924 244.269C376.061 245.43 376.745 246.309 377.719 246.666C377.962 255.421 378.19 263.967 378.373 272.082C377.171 272.484 376.395 273.586 376.411 274.955C376.411 276.191 377.156 277.502 378.525 277.933C378.738 287.12 378.935 295.681 379.087 303.349C377.795 303.989 377.186 305.404 377.278 306.565C377.369 307.771 378.084 308.649 379.209 309.007C379.513 323.524 379.681 334.08 379.741 338.234C379.757 339.41 379.772 340.08 379.772 340.184L379.802 340.959L388.319 340.84V339.872C388.259 337.117 388.076 325.757 387.741 309.245C389.719 308.888 390.631 307.071 390.373 305.463C390.129 303.989 389.049 303.051 387.62 303.036L387.65 303.081ZM387.437 307.741L387.179 307.771C387.072 307.771 386.951 307.801 386.829 307.816L386.129 307.92V308.605C386.464 324.462 386.646 335.718 386.707 339.321L381.354 339.395C381.354 339.097 381.354 338.71 381.338 338.234C381.262 334.02 381.095 323.226 380.791 308.381V307.622H379.985H379.954C379.133 307.488 378.92 306.952 378.89 306.505C378.844 305.776 379.285 304.897 380.122 304.674L380.73 304.51V303.9C380.548 295.919 380.35 286.941 380.122 277.308V276.608L379.392 276.549C378.312 276.459 378.023 275.506 378.023 274.97C378.023 274.33 378.342 273.601 379.285 273.511L380.015 273.437V272.722C379.802 264.22 379.574 255.242 379.3 246.056V245.371L378.586 245.311C377.719 245.237 377.551 244.388 377.521 244.135C377.445 243.435 377.749 242.557 378.631 242.274L379.194 242.095V241.515C378.966 233.609 378.707 225.539 378.449 217.469L378.418 216.427L378.129 216.203C377.734 215.891 377.49 215.355 377.49 214.804C377.49 214.342 377.673 213.955 377.977 213.717L378.312 213.479V213.077C377.992 204.039 377.627 194.316 377.186 183.343L377.156 182.599H376.395C375.194 182.569 374.768 181.542 374.768 180.857C374.768 180.544 374.875 179.517 376.106 179.517L377.019 179.472L376.989 178.698C376.517 167.71 376.061 158.166 375.589 149.545L375.559 149.024L375.072 148.845C374.342 148.577 374.084 147.863 374.068 147.312C374.068 147.073 374.114 146.284 374.859 145.987L375.392 145.778L375.361 145.212C374.373 128.135 373.399 115.449 372.365 106.456L372.304 105.89L371.741 105.771C371.027 105.622 370.722 104.923 370.753 104.297C370.783 103.612 371.163 102.838 372.183 102.704C374.175 102.451 376.213 102.004 378.251 101.394C378.464 101.721 378.57 102.138 378.525 102.525C378.494 102.853 378.357 103.3 377.856 103.597L377.43 103.865L377.49 104.357C378.586 113.618 379.635 126.839 380.608 143.664L380.639 144.23L381.186 144.379C381.856 144.557 382.251 145.272 382.281 145.882C382.312 146.269 382.221 146.984 381.338 147.327L380.806 147.535L380.836 148.086C381.369 157.942 381.855 167.903 382.266 177.685L382.297 178.296L382.905 178.415C383.726 178.579 384.228 179.398 384.259 180.097C384.259 180.529 384.106 181.095 383.255 181.318L382.449 181.556L382.479 182.167C382.875 192.053 383.255 201.94 383.574 211.543L383.605 212.362L384.441 212.302C385.369 212.213 385.992 212.957 386.144 213.717C386.221 214.074 386.251 214.953 385.186 215.265C384.928 215.34 384.639 215.399 384.365 215.459L383.726 215.608V216.248C384.015 224.243 384.259 232.239 384.487 240.085L384.517 240.949L385.399 240.83C385.521 240.815 385.658 240.8 385.795 240.77L386.144 240.711C387.285 240.532 387.559 241.41 387.62 241.798C387.726 242.497 387.452 243.614 386.205 243.808C386.053 243.837 385.901 243.852 385.734 243.882L384.624 244.061V244.746C384.897 254.096 385.141 263.223 385.354 271.873V272.543L386.053 272.618C386.844 272.707 386.996 273.481 387.027 273.72C387.118 274.405 386.829 275.298 385.977 275.611L385.46 275.804V276.355C385.643 283.472 385.795 290.247 385.932 296.53L386.084 303.944L386.16 304.763L386.996 304.704C387.118 304.704 387.255 304.674 387.361 304.659C388.502 304.495 388.776 305.359 388.836 305.746C388.943 306.446 388.669 307.562 387.437 307.741Z" fill="#251C4C"/>
<path d="M455.27 146.865C452.897 146.017 450.525 145.183 448.152 144.319C447.863 144.215 447.574 144.111 447.285 144.007C446.084 143.575 444.715 143.828 444.106 145.049C443.863 145.525 443.817 146.121 443.954 146.687C441.81 151.258 436.973 162.216 431.331 179.115C429.764 179.621 428.943 181.691 430.114 182.837C427.665 190.356 425.11 198.932 422.57 208.536C420.624 208.551 419.985 211.365 421.506 212.69C419.392 220.968 417.308 229.931 415.346 239.624C413.856 240.324 413.414 242.483 414.601 243.48C413.186 250.642 411.863 258.146 410.631 266.022C408.441 266.246 407.848 269.536 409.947 270.444C408.715 278.797 407.574 287.522 406.601 296.634C404.973 297.319 404.593 299.835 406.19 300.744C405.049 312.089 404.152 324 403.574 336.448L414.616 336.939C414.616 336.805 414.616 336.671 414.631 336.537C415.194 324.745 416.046 313.444 417.141 302.649C420.061 303.007 420.943 298.57 417.992 298.093C417.871 298.064 417.749 298.049 417.627 298.019C418.57 289.264 419.65 280.852 420.867 272.797C421.034 272.827 421.186 272.871 421.354 272.901C424.35 273.526 425.278 268.97 422.312 268.345C422.068 268.3 421.84 268.256 421.597 268.196C422.844 260.141 424.228 252.444 425.673 245.133L426.57 245.237C429.582 245.595 430.54 241.039 427.513 240.681C427.209 240.651 426.905 240.622 426.601 240.592C428.395 231.926 430.266 223.842 432.167 216.338C432.274 216.382 432.411 216.412 432.532 216.457C435.422 217.395 436.335 212.839 433.475 211.916L433.308 211.856C435.726 202.64 438.16 194.406 440.487 187.14C443.163 187.914 445.065 183.999 442.342 182.912C442.205 182.837 442.068 182.793 441.932 182.733C447.422 166.176 452.091 155.456 454.068 151.183C454.981 151.243 455.894 150.885 456.38 149.947C456.882 148.92 456.517 147.282 455.316 146.836L455.27 146.865Z" fill="#251C4C"/>
<path d="M455.27 146.865C452.897 146.017 450.525 145.183 448.152 144.319C448.03 144.468 447.924 144.632 447.833 144.811C447.589 145.287 447.559 145.883 447.696 146.448C445.536 151.019 440.7 161.993 435.057 178.877C433.49 179.383 432.669 181.453 433.84 182.599C431.392 190.118 428.836 198.679 426.312 208.298C424.35 208.312 423.696 211.127 425.232 212.452C423.118 220.73 421.034 229.693 419.072 239.386C417.582 240.086 417.141 242.245 418.327 243.227C416.913 250.389 415.589 257.893 414.357 265.769C412.167 265.993 411.574 269.283 413.673 270.191C412.441 278.544 411.3 287.269 410.342 296.381C408.7 297.081 408.335 299.582 409.916 300.491C408.776 311.836 407.878 323.747 407.3 336.195L414.616 336.522C415.179 324.73 416.03 313.429 417.125 302.635C420.046 302.992 420.928 298.555 417.977 298.079C417.856 298.049 417.734 298.034 417.612 298.004C418.555 289.249 419.635 280.837 420.852 272.782C421.019 272.812 421.171 272.856 421.338 272.886C424.335 273.512 425.262 268.956 422.297 268.33C422.053 268.286 421.825 268.241 421.582 268.181C422.829 260.126 424.213 252.429 425.658 245.118L426.555 245.222C429.567 245.58 430.525 241.024 427.498 240.666C427.194 240.637 426.89 240.607 426.586 240.577C428.38 231.912 430.251 223.827 432.152 216.323C432.259 216.367 432.395 216.397 432.517 216.442C435.407 217.38 436.319 212.824 433.46 211.901L433.293 211.841C435.711 202.625 438.144 194.391 440.471 187.125C443.148 187.9 445.049 183.984 442.327 182.897C442.19 182.822 442.053 182.778 441.916 182.718C447.407 166.162 452.076 155.441 454.053 151.168C454.966 151.228 455.878 150.871 456.365 149.933C456.867 148.92 456.502 147.267 455.3 146.836L455.27 146.865Z" fill="white"/>
<path d="M455.544 146.136L452.122 144.915C450.89 144.483 449.673 144.036 448.441 143.605L447.894 143.411L447.544 143.858C447.361 144.081 447.224 144.29 447.133 144.483C446.859 145.034 446.768 145.689 446.875 146.359C444.943 150.469 440.091 161.367 434.418 178.311C433.521 178.743 432.821 179.592 432.578 180.574C432.38 181.378 432.517 182.167 432.943 182.793C430.388 190.669 427.939 199.022 425.673 207.628C424.836 207.836 424.152 208.461 423.802 209.355C423.361 210.516 423.589 211.811 424.35 212.72C422.175 221.251 420.167 230.065 418.357 238.924C417.567 239.446 417.004 240.309 416.882 241.292C416.776 242.126 416.989 242.915 417.46 243.51C416.106 250.419 414.814 257.699 413.643 265.174C412.593 265.516 411.802 266.454 411.605 267.66C411.407 268.881 411.878 269.998 412.791 270.638C411.513 279.318 410.464 287.612 409.582 295.935C408.73 296.471 408.167 297.438 408.091 298.495C408.03 299.448 408.38 300.312 409.065 300.893C407.894 312.521 407.027 324.388 406.494 336.195L406.464 336.969L415.376 337.371L415.407 336.597C415.939 325.564 416.745 314.412 417.84 303.439C419.376 303.245 420.365 301.98 420.563 300.684C420.745 299.389 420.167 297.855 418.464 297.409C419.316 289.473 420.335 281.522 421.49 273.735C423.285 273.943 424.487 272.693 424.806 271.293C425.141 269.789 424.441 268.032 422.449 267.586C423.574 260.454 424.852 253.188 426.266 245.997H426.418C427.605 246.16 428.684 245.714 429.384 244.791C430.114 243.838 430.297 242.557 429.856 241.53C429.46 240.622 428.639 240.041 427.513 239.907C427.513 239.907 427.513 239.907 427.498 239.907C429.11 232.18 430.844 224.586 432.684 217.305C433.536 217.469 434.327 217.261 434.935 216.725C435.757 216.01 436.137 214.789 435.878 213.613C435.665 212.63 435.072 211.841 434.19 211.395C436.274 203.474 438.494 195.821 440.989 188.034C442.555 188.093 443.787 187.021 444.228 185.785C444.669 184.564 444.365 183.031 442.859 182.331C448.167 166.415 452.639 156.097 454.525 151.987C455.62 151.898 456.532 151.287 457.034 150.32C457.414 149.545 457.43 148.533 457.08 147.684C456.776 146.94 456.228 146.404 455.529 146.151L455.544 146.136ZM455.62 149.635C455.255 150.364 454.586 150.469 454.084 150.439L453.536 150.409L453.308 150.9C451.528 154.742 446.783 165.521 441.141 182.525L440.913 183.21L441.703 183.537C441.703 183.537 441.855 183.597 442.008 183.671C443.057 184.088 442.874 184.937 442.753 185.294C442.479 186.053 441.658 186.723 440.684 186.426L439.939 186.202L439.711 186.932C437.065 195.195 434.722 203.28 432.517 211.677L432.335 212.392L433.201 212.66C434.038 212.928 434.281 213.583 434.357 213.941C434.494 214.566 434.312 215.236 433.916 215.578C433.627 215.831 433.247 215.876 432.745 215.712C432.639 215.683 432.517 215.653 432.426 215.608L431.589 215.31L431.376 216.144C429.384 223.946 427.513 232.105 425.795 240.428L425.627 241.277L426.92 241.396C427.087 241.411 427.255 241.426 427.392 241.441C427.909 241.5 428.259 241.738 428.441 242.126C428.669 242.632 428.548 243.346 428.152 243.838C427.894 244.165 427.437 244.552 426.646 244.448L425.004 244.24L424.867 244.954C423.346 252.652 421.962 260.424 420.776 268.047L420.669 268.747L421.354 268.926C421.612 268.985 421.856 269.045 422.114 269.09C423.285 269.343 423.392 270.37 423.255 270.951C423.103 271.636 422.555 272.35 421.506 272.142L420.167 271.844L420.046 272.678C418.798 280.971 417.719 289.473 416.806 297.93L416.73 298.644L417.84 298.838C419.118 299.046 419.011 300.193 418.981 300.431C418.875 301.205 418.266 301.98 417.217 301.846L416.411 301.741L416.335 302.53C415.24 313.489 414.403 324.641 413.871 335.688L408.137 335.435C408.684 323.762 409.551 312.03 410.707 300.55L410.753 300.059L410.312 299.806C409.703 299.463 409.673 298.808 409.703 298.54C409.749 297.885 410.114 297.319 410.662 297.081L411.087 296.902L411.133 296.441C412.046 287.82 413.125 279.274 414.464 270.281L414.555 269.685L414.008 269.447C413.278 269.134 413.11 268.405 413.201 267.839C413.293 267.288 413.673 266.603 414.449 266.529L415.057 266.469L415.148 265.874C416.365 258.101 417.703 250.523 419.118 243.361L419.209 242.915L418.859 242.617C418.555 242.349 418.418 241.932 418.479 241.441C418.555 240.83 418.935 240.309 419.437 240.071L419.787 239.907L419.863 239.52C421.719 230.423 423.787 221.37 426.023 212.615L426.144 212.154L425.779 211.841C425.141 211.29 425.095 210.412 425.323 209.831C425.43 209.533 425.719 209.057 426.342 209.042H426.951L427.103 208.461C429.445 199.558 431.97 190.937 434.616 182.808L434.768 182.361L434.433 182.018C434.038 181.631 434.099 181.14 434.16 180.887C434.312 180.291 434.783 179.77 435.346 179.592L435.726 179.472L435.848 179.1C441.658 161.71 446.601 150.692 448.456 146.761L448.563 146.523L448.502 146.255C448.426 145.912 448.426 145.555 448.532 145.272C449.551 145.644 450.57 146.002 451.605 146.374L455.027 147.595C455.376 147.714 455.559 148.027 455.65 148.25C455.833 148.697 455.833 149.248 455.65 149.62L455.62 149.635Z" fill="#251C4C"/>
<path d="M439.011 121.584C421.551 163.943 412.669 209.355 412.882 255.02C412.715 255.109 412.593 255.273 412.563 255.541C410.205 279.482 408.243 303.469 406.692 327.485C406.631 328.482 408.198 328.363 408.274 327.381C409.81 303.677 411.741 279.989 414.068 256.345C414.297 256.211 414.464 256.002 414.464 255.675C414.16 210.04 422.996 164.613 440.426 122.284C440.806 121.361 439.392 120.676 439.011 121.599V121.584Z" fill="#251C4C"/>
<path d="M398.236 32.7412C397.369 53.7645 396.578 74.8027 395.894 95.8409C393.46 169.72 392.091 243.63 391.787 317.554C391.787 318.551 393.354 318.447 393.369 317.45C393.46 296.396 393.627 275.358 393.886 254.32C394.798 180.411 396.776 106.501 399.833 32.6518C399.878 31.6543 398.297 31.7734 398.251 32.756L398.236 32.7412Z" fill="#251C4C"/>
<path d="M375.452 244.97C374.996 230.989 372.532 217.589 369.992 203.861C367.452 190.089 366.555 176.152 365.597 162.216C364.624 148.012 363.635 133.793 362.662 119.574C362.586 118.577 361.019 118.681 361.08 119.678C362.175 135.669 363.285 151.66 364.38 167.651C365.369 181.855 366.798 195.851 369.536 209.846C372.213 223.529 373.734 236.989 374.008 250.925C374.586 279.17 374.951 307.429 375.422 335.674C375.437 336.671 377.019 336.567 377.004 335.57C376.73 319.489 376.472 303.409 376.198 287.329C375.97 273.214 375.894 259.07 375.437 244.955L375.452 244.97Z" fill="#251C4C"/>
<path d="M372.304 224.527C371.118 213.673 360.821 208.179 351.787 203.935C351.361 203.727 350.875 204.054 350.89 204.516C351.194 213.032 357.414 218.914 363.787 223.916C355.011 223.023 346.236 226.507 340.608 233.296C340.289 233.684 340.563 234.368 341.11 234.309C349.308 233.371 357.338 231.584 365.125 228.949C358.951 235.872 355.65 244.761 355.848 254.007C355.848 254.573 356.578 254.692 356.928 254.364C363.209 248.617 369.673 241.307 369.506 232.76C371.361 234.919 374.221 236.364 376.867 237.555C383.179 240.384 389.734 242.602 396.426 244.329C396.943 244.463 397.369 243.808 397.065 243.391C390.753 235.024 383.194 226.328 372.289 224.527H372.304Z" fill="#251C4C"/>
<path d="M410.19 121.598C412.517 119.931 414.19 117.251 415.589 114.75C418.905 108.794 421.627 102.541 423.848 96.1084C424.015 95.6171 423.392 95.1406 422.935 95.4235C413.962 101.007 404.593 107.781 401.992 118.308C390.844 118.71 384.548 128.388 379.589 136.934C379.346 137.336 379.65 137.828 380.122 137.842C388.821 138.125 395.24 132.467 400.791 126.586C399.27 135.103 402.205 143.902 408.73 149.873C409.095 150.215 409.81 149.992 409.795 149.441C409.414 141.371 408.137 133.406 405.992 125.619C412.624 132.125 421.445 135.966 430.89 136.413C431.468 136.443 431.635 135.758 431.331 135.371C425.916 128.835 418.905 122.015 410.175 121.598H410.19Z" fill="#251C4C"/>
<path d="M368.061 161.025C372.806 159.685 376.593 156.067 378.053 151.407C378.129 151.139 377.84 150.841 377.582 150.99C373.536 153.164 369.764 155.74 366.297 158.703C368 153.849 367.802 148.563 365.719 143.814C365.597 143.516 365.202 143.605 365.08 143.843C363.057 148.116 361.278 153.223 363.209 157.631C361.779 156.901 360 156.737 358.373 156.663C354.494 156.499 350.631 156.693 346.783 157.169C346.479 157.199 346.403 157.631 346.662 157.779C351.726 160.817 357.506 163.765 363.544 162.455C366.494 167.844 373.004 168.559 378.601 168.902C378.875 168.916 379.042 168.648 378.935 168.41C376.943 164.063 372.471 162.291 368.091 161.01L368.061 161.025Z" fill="#251C4C"/>
<path d="M426.51 276.668C428.73 274.866 430.236 272.097 431.468 269.506C434.403 263.357 436.745 256.955 438.57 250.419C438.707 249.912 438.053 249.481 437.627 249.778C429.019 255.883 420.091 263.193 418.145 273.869C407.042 274.926 401.354 284.976 396.928 293.79C396.715 294.207 397.049 294.684 397.521 294.669C406.236 294.445 412.274 288.401 417.46 282.207C416.472 290.798 419.954 299.418 426.829 304.987C427.224 305.3 427.924 305.046 427.863 304.496C426.981 296.456 425.217 288.594 422.601 280.941C429.612 287.046 438.662 290.351 448.107 290.232C448.684 290.232 448.821 289.532 448.487 289.175C442.677 282.966 435.27 276.579 426.525 276.683L426.51 276.668Z" fill="#251C4C"/>
<path d="M408.608 50.7568L408.563 51.0099C409.901 51.2779 411.209 51.3673 412.274 51.3673C413.886 51.3673 414.996 51.1886 415.011 51.1886L414.966 50.9355C414.966 50.9355 411.909 51.4417 408.608 50.7717V50.7568Z" fill="#251C4C"/>
<path d="M405.034 83.7659L404.836 83.9445C405.658 84.7932 407.513 85.0017 409.156 85.0017C410.798 85.0017 412.182 84.7932 412.304 84.7783L412.259 84.5252C412.259 84.5252 406.54 85.3441 405.019 83.751L405.034 83.7659Z" fill="#251C4C"/>
<path d="M402.89 117.191L402.829 117.445C405.612 118.144 408.897 118.219 410.281 118.219C410.677 118.219 410.92 118.219 410.935 118.219V117.966C410.935 117.966 406.464 118.1 402.905 117.206L402.89 117.191Z" fill="#251C4C"/>
<path d="M399.878 153.044L399.818 153.297C402.586 153.997 405.871 154.071 407.255 154.071C407.665 154.071 407.909 154.071 407.909 154.071V153.818C407.909 153.818 403.437 153.952 399.878 153.059V153.044Z" fill="#251C4C"/>
<path d="M397.855 181.929L397.795 182.182C400.578 182.882 403.863 182.956 405.232 182.956C405.627 182.956 405.871 182.956 405.886 182.956V182.703C405.886 182.703 401.414 182.837 397.855 181.944V181.929Z" fill="#251C4C"/>
<path d="M396.182 216.174L396.122 216.427C398.905 217.127 402.19 217.201 403.574 217.201C403.97 217.201 404.213 217.201 404.228 217.201V216.948C404.228 216.948 399.757 217.082 396.198 216.189L396.182 216.174Z" fill="#251C4C"/>
<path d="M394.403 248.722L394.342 248.975C397.11 249.675 400.395 249.749 401.779 249.749C402.19 249.749 402.433 249.749 402.433 249.749V249.496C402.433 249.496 397.962 249.63 394.403 248.737V248.722Z" fill="#251C4C"/>
<path d="M391.939 282.803L391.878 283.056C394.662 283.756 397.947 283.83 399.316 283.83C399.711 283.83 399.954 283.83 399.97 283.83V283.577C399.97 283.577 395.498 283.711 391.939 282.818V282.803Z" fill="#251C4C"/>
<path d="M410.281 298.808C411.802 299.463 416.426 299.821 416.624 299.836V299.583C416.624 299.583 411.878 299.225 410.388 298.585L410.281 298.823V298.808Z" fill="#251C4C"/>
<path d="M414.494 269.223C416.015 269.878 420.639 270.236 420.837 270.251V269.998C420.837 269.998 416.091 269.64 414.601 269L414.494 269.238V269.223Z" fill="#251C4C"/>
<path d="M378.692 275.06L378.662 275.313C378.814 275.328 378.996 275.343 379.179 275.343C381.11 275.343 384.852 274.524 385.019 274.494L384.958 274.241C384.958 274.241 380.289 275.254 378.677 275.06H378.692Z" fill="#251C4C"/>
<path d="M379.696 306.223L379.665 306.476C379.817 306.491 380 306.506 380.198 306.506C382.129 306.506 385.871 305.687 386.038 305.657L385.977 305.404C385.977 305.404 381.308 306.417 379.696 306.223Z" fill="#251C4C"/>
<path d="M378.631 243.794L378.601 244.047C378.753 244.062 378.92 244.076 379.118 244.076C381.049 244.076 384.791 243.257 384.973 243.228L384.913 242.975C384.913 242.975 380.243 243.987 378.631 243.794Z" fill="#251C4C"/>
<path d="M377.779 214.893L377.749 215.146C377.901 215.161 378.068 215.176 378.266 215.176C380.198 215.176 383.939 214.357 384.106 214.327L384.046 214.074C384.046 214.074 379.376 215.102 377.764 214.893H377.779Z" fill="#251C4C"/>
<path d="M376.091 180.485L376.061 180.738C376.213 180.753 376.38 180.768 376.578 180.768C378.51 180.768 382.251 179.949 382.433 179.919L382.373 179.666C382.373 179.666 377.703 180.678 376.091 180.485Z" fill="#251C4C"/>
<path d="M373.764 146.404L373.734 146.657C373.886 146.672 374.053 146.687 374.251 146.687C376.183 146.687 379.924 145.868 380.106 145.838L380.046 145.585C380.046 145.585 375.376 146.597 373.764 146.404Z" fill="#251C4C"/>
<path d="M419.954 241.292C421.475 241.947 426.099 242.304 426.297 242.319V242.066C426.297 242.066 421.551 241.709 420.061 241.068L419.954 241.307V241.292Z" fill="#251C4C"/>
<path d="M434.281 181.988C435.574 183.016 439.954 184.505 440.137 184.564L440.228 184.326C440.228 184.326 435.711 182.792 434.449 181.795L434.281 181.988Z" fill="#251C4C"/>
<path d="M425.886 212.064C427.407 212.719 432.03 213.077 432.228 213.091V212.838C432.228 212.838 427.483 212.481 425.992 211.841L425.886 212.079V212.064Z" fill="#251C4C"/>
<path d="M361.703 120.616C362.646 110.685 358.875 101.022 351.3 94.2771C350.905 93.9346 350.327 94.0537 350.068 94.4855C347.513 98.6693 347.376 103.583 349.217 108.064C350.875 112.159 354.144 114.973 357.186 118.04C351.605 115.479 345.369 114.958 339.24 116.715C338.586 116.894 338.525 117.832 339.118 118.129C346.099 121.673 353.658 123.043 361.475 122.12C362.357 122.015 362.403 120.824 361.734 120.601L361.703 120.616Z" fill="#251C4C"/>
<path d="M452.243 141.044C447.589 139.302 442.631 140.016 438.418 142.562C434.586 144.87 432.304 148.518 429.749 151.957C431.361 146.136 430.814 140.031 428 134.433C427.696 133.837 426.753 133.927 426.555 134.552C424.183 141.892 424.122 149.426 426.388 156.796C426.646 157.63 427.863 157.481 427.954 156.781C438.114 155.977 447.179 150.677 452.654 142.205C452.943 141.758 452.715 141.222 452.228 141.044H452.243Z" fill="#251C4C"/>
<path d="M397.125 1.08674C394.312 11.5835 394.707 22.4228 398.251 32.7111C398.297 32.8451 398.373 32.9493 398.464 33.0238C398.677 33.6342 399.772 33.7087 399.985 32.9195C402.798 22.3632 400.837 11.6729 398.692 1.19097C398.525 0.35718 397.369 0.1934 397.125 1.08674Z" fill="#251C4C"/>
<path d="M389.202 24.1649C388.7 23.6437 387.878 24.1946 387.894 24.8051C387.954 28.5422 388.046 32.6069 390.175 35.8676C392.061 38.7561 395.011 39.977 398.281 40.7513C398.844 40.8853 399.346 40.2897 399.209 39.7835C399.361 39.6048 399.452 39.3666 399.361 39.0837C397.673 33.1132 393.475 28.5571 389.202 24.1649Z" fill="#251C4C"/>
<path d="M411.985 65.0199C406.859 69.4568 400.669 72.7026 396.654 78.2414C396.319 78.688 396.563 79.2091 396.928 79.4325C396.776 79.6707 396.608 79.9089 396.441 80.1472C396.03 80.7725 396.821 81.3681 397.414 81.2192C405.201 79.2687 411.163 73.3875 413.217 65.809C413.384 65.1986 412.517 64.5583 412 65.0199H411.985Z" fill="#251C4C"/>
<path d="M453.932 108.571C448.806 113.008 442.616 116.253 438.586 121.792C438.266 122.239 438.494 122.76 438.859 122.983C438.707 123.221 438.54 123.46 438.373 123.698C437.962 124.323 438.753 124.919 439.346 124.77C447.133 122.834 453.095 116.938 455.148 109.36C455.316 108.749 454.449 108.109 453.932 108.571Z" fill="#251C4C"/>
<path d="M437.414 92.699C434.601 103.211 434.996 114.035 438.54 124.323C438.586 124.457 438.662 124.562 438.738 124.636C438.951 125.247 440.046 125.321 440.274 124.532C443.087 113.975 441.126 103.285 438.981 92.8033C438.814 91.9695 437.658 91.8057 437.414 92.699Z" fill="#251C4C"/>
<path d="M370.099 413.558H431.65L442.16 312.06H359.589L370.099 413.558Z" fill="#251C4C"/>
<path d="M362.54 398.267L364.122 413.558H425.673L434.205 331.028C419.087 358.29 396.243 382.887 362.525 398.267H362.54Z" fill="white"/>
<path d="M362.54 398.267C396.259 382.887 419.103 358.29 434.221 331.028L436.183 312.06H353.612L362.525 398.267H362.54Z" fill="#D5FF3C"/>
<path d="M363.407 414.347H426.403L437.065 311.285H352.745L363.407 414.347ZM424.958 412.784H364.837L354.494 312.848H435.3L424.958 412.784Z" fill="#251C4C"/>
<path d="M190.586 80.564C191.954 79.1347 192.289 78.1222 192.73 75.1295C193.643 70.7819 190.509 69.1441 190.144 70.2459C190.205 67.7594 188.167 66.2705 187.392 67.2532C186.996 65.139 183.163 63.397 182.54 66.6577C182.281 64.7072 183.331 60.5829 184.228 58.6473C185.019 56.95 183.741 55.61 182.357 56.4884C180.73 57.5158 179.422 62.0569 178.89 64.0074C178.099 66.9108 177.764 70.1417 178.205 73.194C177.977 73.1344 177.764 73.0599 177.536 73.0004C177.567 72.3602 177.719 71.6902 177.886 71.1244C178.297 69.6057 176.061 68.4592 175.255 69.9481C174.464 71.3924 173.901 72.8366 174.555 74.4595C174.662 74.7424 178.601 81.0256 179.97 82.0529C178.357 89.7506 174.616 120.794 172.243 121.152C170.677 121.345 164.502 118.769 156.35 115.33C155.863 115.122 155.316 114.913 154.798 114.705C153.947 114.347 153.125 113.975 152.198 113.633C152.137 113.603 152.061 113.588 152 113.543C135.681 106.739 116.989 101.692 106.433 103.88C96 106.054 128.471 133.554 128.471 133.554C128.471 133.554 130.449 136.77 134.357 140.552C138.16 144.289 141.992 146.121 149.202 148.175C149.46 148.25 149.749 148.309 150.023 148.413C151.665 148.86 153.399 149.232 155.255 149.575C156.608 149.783 157.962 149.962 159.407 150.111C160.259 150.2 161.156 150.245 162.038 150.275C170.525 150.662 180.684 149.069 191.848 143.113C202.19 137.574 196.669 94.9022 190.297 80.832C190.388 80.7427 190.494 80.6683 190.586 80.5789V80.564Z" fill="white"/>
<path d="M193.354 75.2639C194.084 71.7948 192.456 69.7252 191.057 69.3679C190.935 69.3381 190.814 69.3232 190.707 69.3083C190.449 67.8194 189.506 66.7474 188.608 66.4347C188.304 66.3305 188.015 66.3007 187.741 66.3603C187.133 65.184 185.734 64.246 184.411 64.2311C183.985 64.2311 183.589 64.3354 183.255 64.514C183.513 62.638 184.167 60.3004 184.806 58.9009C185.323 57.7991 185.156 56.6675 184.395 56.0273C183.741 55.4764 182.829 55.4615 182.023 55.9677C180.715 56.7866 179.498 59.3624 178.281 63.844C177.916 65.184 177.551 66.941 177.43 68.9212C177.338 68.8616 177.232 68.817 177.141 68.7872C176.167 68.415 175.194 68.7723 174.707 69.6508C173.886 71.1545 173.232 72.8072 173.992 74.6684C174.099 74.9364 177.643 80.6389 179.3 82.2618C178.814 84.6738 178.16 88.947 177.414 93.8306C175.954 103.419 173.49 119.455 172.183 120.512C170.677 120.72 163.224 117.534 156.624 114.735C156.35 114.616 156.046 114.497 155.757 114.377L154.266 113.767C153.673 113.514 153.08 113.261 152.517 113.052C152.471 113.023 152.411 113.008 152.274 112.948C132.989 104.908 115.833 101.29 106.327 103.255C104.639 103.613 104.046 104.551 103.863 105.28C102.16 111.742 125.034 131.396 128.015 133.927C128.365 134.478 130.327 137.455 133.932 140.954C137.658 144.617 141.475 146.582 149.049 148.741L149.308 148.816C149.475 148.86 149.658 148.905 149.886 148.994C151.498 149.426 153.217 149.813 155.179 150.171C156.487 150.379 157.856 150.558 159.376 150.707C160.243 150.796 161.156 150.841 162.038 150.871C162.844 150.9 163.65 150.93 164.456 150.93C173.779 150.93 183.103 148.473 192.183 143.634C203.103 137.783 197.171 94.9919 191.072 80.9664C192.563 79.4031 192.928 78.2715 193.369 75.249L193.354 75.2639ZM196.73 115.211C197.749 130.294 195.863 140.27 191.559 142.577C181.901 147.729 171.954 150.126 162.068 149.664C161.202 149.635 160.319 149.59 159.483 149.501C157.992 149.352 156.639 149.173 155.376 148.965C153.475 148.607 151.787 148.235 150.266 147.833C150.053 147.759 149.84 147.699 149.643 147.64L149.414 147.58C141.977 145.466 138.433 143.649 134.829 140.106C131.042 136.428 129.065 133.257 129.034 133.227L128.913 133.078C121.84 127.093 103.802 110.491 105.08 105.593C105.171 105.221 105.445 104.7 106.586 104.461C108.243 104.119 110.099 103.955 112.106 103.955C123.316 103.955 139.3 108.883 151.711 114.05C151.772 114.08 151.848 114.109 152 114.184C152.624 114.422 153.202 114.66 153.764 114.913L155.285 115.539C155.574 115.658 155.848 115.762 156.122 115.881C165.916 120.02 170.707 121.971 172.365 121.748C174.038 121.494 175.331 115.807 178.662 94.0241C179.452 88.9023 180.122 84.4802 180.608 82.1724L180.684 81.8002L180.38 81.562C179.163 80.6538 175.376 74.6237 175.163 74.2217C174.631 72.8966 175.042 71.6757 175.833 70.2314C176.091 69.7699 176.487 69.8443 176.7 69.9188C177.019 70.0379 177.445 70.425 177.308 70.961C177.156 71.5119 176.973 72.2414 176.943 72.971L176.913 73.4921L177.43 73.6112C177.582 73.641 177.734 73.6857 177.886 73.7304L178.996 74.0579L178.859 73.105C178.357 69.6359 178.935 66.3305 179.529 64.1716C181.034 58.5882 182.266 57.3077 182.722 57.01C183.057 56.8015 183.392 56.7717 183.605 56.9653C183.878 57.1886 184 57.7246 183.696 58.4095C182.814 60.3004 181.673 64.5885 181.962 66.7474L182.464 70.6185L183.194 66.7921C183.361 65.9285 183.787 65.4818 184.441 65.4818C185.445 65.4818 186.631 66.4347 186.814 67.3876L187.072 68.7574L187.939 67.6556C187.939 67.6556 188.015 67.5514 188.228 67.6258C188.791 67.8194 189.597 68.8021 189.567 70.2612L189.338 74.6088L190.677 70.559C190.677 70.559 191.011 70.5888 191.392 70.9908C191.696 71.3034 192.684 72.5392 192.152 75.0853C191.711 78.0482 191.376 78.9117 190.16 80.1922C190.114 80.2369 190.068 80.2815 190.023 80.3113L189.582 80.7133L189.764 81.1153C192.958 88.1727 195.894 102.526 196.76 115.241L196.73 115.211Z" fill="#251C4C"/>
<path d="M137.84 387.964C137.293 390.406 135.452 402.794 136.76 403.985C145.81 412.129 151.224 403.285 151.62 400.903C151.97 398.848 153.125 389.944 152.061 388.366C150.966 386.728 138.008 387.175 137.825 387.964H137.84Z" fill="white"/>
<path d="M138.631 387.026C137.992 387.145 137.354 387.309 137.232 387.83C137.202 387.979 134.464 402.734 136.35 404.431C139.376 407.156 141.962 407.96 143.985 407.96C144.882 407.96 145.658 407.796 146.312 407.572C149.886 406.366 151.985 402.629 152.259 400.992C152.274 400.887 153.977 390.078 152.608 388.023C151.331 386.117 140.928 386.609 138.631 387.026ZM151.011 400.798C150.814 401.974 149.004 405.369 145.901 406.426C143.255 407.334 140.319 406.352 137.202 403.538C136.35 402.48 137.612 392.073 138.403 388.321C140.213 387.666 150.692 387.651 151.559 388.708C152.319 389.869 151.605 397.299 151.011 400.798Z" fill="#251C4C"/>
<path d="M166.966 401.558C158.966 400.233 150.905 400.218 150.905 400.218C150.905 400.218 141.749 404.282 136.122 397.448C136.122 397.448 129.886 406.099 133.916 413.246C133.916 413.246 164.928 415.97 174.342 414.809C174.342 414.809 174.966 402.883 166.966 401.572V401.558Z" fill="#251C4C"/>
<path d="M167.072 400.962C159.103 399.652 150.996 399.607 150.905 399.607L150.646 399.666C150.555 399.696 141.871 403.448 136.608 397.076L136.091 396.436L135.62 397.106C135.361 397.478 129.201 406.158 133.384 413.558L133.551 413.841L133.886 413.871C134.92 413.96 155.179 415.717 167.635 415.717C170.388 415.717 172.76 415.628 174.449 415.419L174.966 415.36L174.996 414.838C175.027 414.332 175.559 402.361 167.103 400.962H167.072ZM134.312 412.665C131.422 407.111 134.92 400.56 136.198 398.475C141.703 404.282 149.886 401.289 151.027 400.828C152.076 400.828 159.544 400.947 166.859 402.168C173.308 403.225 173.719 412.009 173.719 414.258C164.441 415.181 137.627 412.947 134.297 412.665H134.312Z" fill="#251C4C"/>
<path d="M142.555 215.266C136.837 199.066 89.4601 208.417 91.8783 239.788C93.2624 257.685 116.654 274.688 133.703 288.058C143.924 296.098 151.863 302.828 151.376 307.697C149.49 326.71 135.346 372.792 133.749 390.346C134.601 392.981 137.977 394.455 141.764 395.274C147.863 396.614 155.118 396.242 155.118 396.242C167.726 361 183.209 329.688 187.316 303.26C194.221 258.861 142.555 215.251 142.555 215.251V215.266Z" fill="#251C4C"/>
<path d="M22.9354 358.067C20.7453 359.035 12.8365 363.487 12.5171 365.139C12.2129 366.747 19.4068 377.214 21.4601 376.157C23.2395 375.249 30.7224 371.065 31.2852 369.353C31.8631 367.566 23.6502 357.74 22.9354 358.052V358.067Z" fill="white"/>
<path d="M24.0456 358.022C23.6046 357.65 23.1483 357.293 22.6768 357.501C21.8099 357.888 12.3346 362.727 11.9087 365.02C11.5894 366.688 16.6084 374.073 19.4677 376.157C19.7415 376.351 20.4259 376.857 21.1407 376.857C21.3536 376.857 21.5513 376.812 21.7643 376.708C21.8555 376.663 31.1635 371.809 31.8935 369.546C32.5627 367.477 25.8859 359.615 24.0608 358.022H24.0456ZM21.1711 375.621C21.1711 375.621 20.9126 375.621 20.4107 375.308C17.6274 373.507 13.0494 366.286 13.1255 365.243C13.3384 364.127 19.9696 360.092 22.9658 358.722C24.5627 359.764 30.9202 367.879 30.6768 369.174C30.2662 370.365 24.3042 374.028 21.1711 375.621Z" fill="#251C4C"/>
<path d="M104.943 214.312C104.989 216.025 103.148 251.148 106.753 259.933C109.643 266.916 120.715 271.62 122.829 278.871C133.034 286.912 151.848 302.843 151.376 307.697C149.49 326.71 135.346 372.792 133.749 390.346C134.601 392.981 137.977 394.455 141.764 395.274C143.361 392.832 144.517 389.929 145.673 387.398C149.202 379.447 151.544 370.975 153.125 362.399C156.289 345.277 156.487 328.422 161.947 311.821C166.342 298.436 150.692 279.527 146.236 270.668C130.221 238.894 109.354 240.398 104.943 214.312Z" fill="#251C4C"/>
<path d="M20.8213 376.142C20.8213 376.142 12.289 371.094 14.327 362.89C14.327 362.89 3.92395 362.667 0.714828 369.784C0.714828 369.784 16.7605 395.87 23.1787 402.719C23.1787 402.719 32.8365 396.689 29.1863 389.616C25.5209 382.544 20.8213 376.142 20.8213 376.142Z" fill="#251C4C"/>
<path d="M21.3232 375.785L21.1407 375.621C21.0646 375.576 13.0342 370.708 14.9202 363.04L15.1027 362.295H14.327C13.9011 362.295 3.46768 362.131 0.136882 369.546L0 369.844L0.1673 370.112C0.821293 371.184 16.3194 396.332 22.7072 403.136L23.057 403.523L23.4981 403.24C23.6046 403.181 33.597 396.823 29.7338 389.334C26.0989 382.291 21.3688 375.844 21.3232 375.77V375.785ZM23.27 401.915C17.1103 395.051 3.13308 372.524 1.41445 369.755C4.04563 364.439 11.1939 363.65 13.5361 363.531C12.2129 371.095 19.3612 375.948 20.365 376.589C20.9582 377.408 25.2472 383.408 28.6084 389.885C31.5285 395.542 25.0342 400.649 23.2548 401.9L23.27 401.915Z" fill="#251C4C"/>
<path d="M57.3992 214.253C53.8099 217.246 51.057 221.296 49.6274 226.537C42.5247 252.622 83.4373 279.11 78.0836 290.158C70.2205 306.372 30.3118 355.118 18.5551 358.275C18.5551 359.124 18.6616 360.017 18.8593 360.955C20.2738 367.491 26.0989 375.248 26.0989 375.248C50.7833 364.603 90.9658 336.894 110.692 317.717C141.293 287.969 105.247 221.37 105.247 221.37C105.065 208.134 73.2624 200.913 57.3992 214.253Z" fill="#251C4C"/>
<path d="M62.6464 220.521C63.8175 220.7 65.019 219.256 63.9696 218.154C62.0989 216.174 59.7719 214.878 57.384 214.253C53.7947 217.246 51.0418 221.295 49.6122 226.536C42.5095 252.622 83.4221 279.11 78.0684 290.157C70.2053 306.371 30.2966 355.118 18.5399 358.275C18.5399 359.123 18.6464 360.017 18.8441 360.955C32.7148 356.905 44.7148 349.267 54.4335 338.547C59.7566 332.651 64.5171 326.293 69.4449 320.084C74.4182 313.756 80.076 307.577 84.1977 300.684C91.2395 288.996 86.1749 279.795 78.5095 269.923C67.711 256.017 55.0418 238.611 62.6312 220.536L62.6464 220.521Z" fill="#251C4C"/>
<path d="M105.856 101.796C98.4487 104.044 108.73 123.251 117.886 136.383C121.445 141.431 124.395 145.257 125.475 146.314C126.008 146.821 126.692 147.282 127.513 147.654C129.186 148.473 131.468 149.054 134.038 149.501C135.863 149.798 137.856 150.051 139.894 150.26C145.278 150.811 151.072 151.153 155.452 152.047C164.715 136.428 162.175 120.794 154.251 110.015C138.129 104.967 118.54 97.9249 105.84 101.796H105.856Z" fill="#251C4C"/>
<path d="M119.985 102.57L124.411 126.572L127.513 147.654C129.186 148.473 134.251 149.456 136.821 149.903C134.357 140.537 133.338 112.963 132.076 109.077C128.411 97.9399 119.985 102.555 119.985 102.555V102.57Z" fill="#251C4C"/>
<path d="M123.087 166.698C123.392 162.172 125.065 155.07 126.798 147.283C130.57 130.473 135.209 112.01 130.16 102.913C115.711 95.5581 83.4068 94.3223 64.7452 102.124C61.4144 103.464 58.8289 105.087 57.2471 106.918C56.8973 107.32 56.5475 107.827 56.1825 108.407C55.0114 110.343 53.8099 113.291 52.5779 117.013C49.0038 127.912 45.4905 145.362 43.7262 162.797C41.5969 183.835 41.4449 231.852 42.5551 235.307C43.346 237.734 53.2015 240.607 67.1939 240.399C75.0266 240.295 84.1521 239.208 93.6882 236.542C114.084 230.84 138.586 212.988 139.878 210.263C139.452 199.871 122.16 181.021 123.087 166.698Z" fill="#251C4C"/>
<path d="M107.133 88.9622L94.3878 87.0713L96.7909 96.6003C96.7909 96.6003 103.3 104.879 110.464 102.154C112.578 101.35 109.202 97.1661 109.202 97.1661L107.133 88.9473V88.9622Z" fill="white"/>
<path d="M107.65 88.4263L93.5665 86.3418L96.1977 96.7641L96.3042 96.9875C96.5475 97.2852 101.384 103.345 107.468 103.345C108.517 103.345 109.597 103.166 110.707 102.75C111.24 102.541 111.589 102.169 111.726 101.663C112.167 100.099 110.342 97.6277 109.795 96.9279L107.65 88.4412V88.4263ZM110.51 101.335C110.479 101.439 110.418 101.529 110.236 101.603C104 103.985 98.1141 97.2406 97.3688 96.3472L95.2243 87.8307L106.631 89.5281L108.608 97.3448L108.73 97.583C109.612 98.6699 110.738 100.561 110.525 101.35L110.51 101.335Z" fill="#251C4C"/>
<path d="M104.198 65.4072L85.5361 71.5266C85.5361 71.5266 86.2053 84.1376 96.7148 89.9593C107.224 95.766 114.768 84.7779 112.608 79.3732C109.551 71.75 104.198 65.4221 104.198 65.4221V65.4072Z" fill="white"/>
<path d="M104.684 65.0199L104.411 64.6924L84.8821 71.0947L84.9125 71.5562C84.943 72.0922 85.7338 84.5693 96.4106 90.4802C98.4943 91.6267 100.593 92.2073 102.616 92.2073C105.11 92.2073 107.468 91.3438 109.49 89.6166C112.791 86.8026 114.418 82.2019 113.186 79.1348C110.129 71.5116 104.73 65.0795 104.669 65.0199H104.684ZM108.669 88.6935C106.753 90.3164 102.707 92.5647 97.019 89.4231C88.0608 84.465 86.4487 74.2512 86.1901 71.9582L103.97 66.1366C105.08 67.5213 109.414 73.1345 112.015 79.5963C113.065 82.2168 111.589 86.2071 108.669 88.6935Z" fill="#251C4C"/>
<path d="M105.08 62.9064C105.125 62.1768 104.776 61.4175 103.817 60.8517C102.114 59.869 100.517 60.7177 99.711 62.1024C97.7643 61.0452 95.0722 61.8344 93.6122 63.5168C92.8365 63.2488 92 63.1744 91.2091 63.4573C91.0266 63.5168 90.6008 63.9039 90.1749 64.3506C89.8707 64.3059 89.5513 64.291 89.2015 64.3655C87.3308 64.7526 86.4791 66.6584 86.2509 68.3706C83.5894 69.7851 82.7985 72.5842 84.4563 75.3685C83.9696 77.0212 84.1673 78.8525 85.2015 80.3117C85.4297 80.6392 85.5665 80.9519 85.6426 80.9966C85.5513 81.3539 85.4144 81.7112 85.4144 82.0835C85.4144 83.3341 85.9468 83.9893 86.692 84.9124C87.924 86.4757 88.2129 88.6644 90.7376 88.7686C92.8213 88.858 94.3574 87.2797 94.4639 85.2995C94.6008 82.5152 92.4106 79.8799 91.1331 77.4679C92.3346 76.0832 92.7909 74.1178 92.1977 72.5991C93.0646 72.1078 93.749 71.3931 94.2205 70.4253C96.1977 70.5147 98.5703 70.0084 99.27 68.4302C101.871 68.7429 105.125 68.5046 106.023 65.9288C106.51 64.5442 106.008 63.4722 105.095 62.8617L105.08 62.9064Z" fill="#251C4C"/>
<path d="M63.1787 130.116C63.2547 129.803 63.2091 129.55 63.1483 129.267C66.038 126.527 66.0684 122.373 62.9506 119.321C60.1521 116.611 56.2281 116.105 52.5779 116.998C49.0038 127.897 45.4905 145.347 43.7262 162.782C41.5969 183.82 41.4449 231.838 42.5551 235.292C43.346 237.719 53.2015 240.592 67.1939 240.384C65.2167 222.398 63.0418 204.412 61.2167 186.426C59.3004 167.725 57.7947 148.414 63.1939 130.13L63.1787 130.116Z" fill="#251C4C"/>
<path d="M91.7414 113.752C83.5589 106.293 71.4221 105.742 60.6996 105.712C60.0913 105.712 59.6958 106.01 59.4829 106.427C58.8137 106.486 58.2205 106.918 58.2814 107.781C59.1635 120.422 62.6768 136.026 59.2395 148.458C58.038 152.791 55.8783 156.677 55.4373 161.203C54.8593 167.263 55.9087 173.666 56.3042 179.725C56.3802 180.961 57.8403 181.616 58.7985 180.738C63.1179 176.733 66.3118 171.73 70.6312 167.74C75.2852 163.437 81.0646 161.159 86.7376 158.508C95.635 154.354 103.772 148.682 104.791 138.289C105.779 128.179 98.8289 120.244 91.7414 113.782V113.752Z" fill="#251C4C"/>
<path d="M96.8061 96.6152C96.8061 96.6152 91.6654 96.3472 90.0228 96.9874L102.175 108.273L108.304 102.72C108.304 102.72 98.5551 99.4441 96.8061 96.6152Z" fill="#251C4C"/>
<path d="M109.217 97.1809C109.217 97.1809 113.43 101.901 108.304 102.72L113.414 107.648C113.414 107.648 115.103 101.112 112.973 97.9849C112.973 97.9849 110.205 97.0022 109.202 97.1809H109.217Z" fill="#251C4C"/>
<path d="M42.7985 234.726L42.3118 235.857C42.4335 235.902 53.6426 240.443 70.2966 240.443C71.27 240.443 72.2433 240.443 73.2471 240.398C90.0836 239.847 115.392 234.264 140.319 210.71L139.452 209.831C92.3346 254.349 43.3004 234.949 42.7985 234.74V234.726Z" fill="white"/>
<path d="M116.7 250.984C116.791 251.282 125.125 280.941 122.342 287.358L123.498 287.834C126.449 281.03 118.251 251.877 117.901 250.642L116.684 250.969L116.7 250.984Z" fill="white"/>
<path d="M129.597 103.137C129.658 103.285 135.924 118.487 126.205 147.074L127.392 147.461C137.278 118.383 131.011 103.285 130.738 102.66L129.582 103.137H129.597Z" fill="white"/>
<path d="M320.882 199.662C317.962 199.394 312.167 203.682 311.194 205.142C306.722 211.931 302.038 225.971 302.038 249.675C302.038 257.655 317.947 348.508 327.939 390.212C328.046 390.614 328.152 391.031 328.213 391.404C328.913 394.322 329.399 396.972 329.749 399.116C330.327 402.823 330.509 405.131 330.509 405.131L341.125 405.414C341.125 405.414 341.567 399.741 342.175 391.314C343.529 372.36 345.719 339.56 345.475 326.636C345.399 321.47 348.015 291.185 350.205 264.802C351.757 245.938 353.095 229.083 353.08 224.825C353.049 223.187 350.677 217.931 350.677 217.931C340.669 206.616 328.243 200.317 320.882 199.647V199.662Z" fill="white"/>
<path d="M351.103 217.574C340.7 205.811 328.167 199.752 320.928 199.096C317.719 198.828 311.711 203.34 310.707 204.829C307.924 209.057 301.46 221.877 301.46 249.675C301.46 257.238 317.202 347.853 327.376 390.361C327.483 390.733 327.589 391.135 327.65 391.537C328.228 393.949 328.73 396.466 329.186 399.205C329.749 402.853 329.932 405.161 329.947 405.191L329.992 405.697L341.658 406.01L341.703 405.473C341.703 405.473 342.144 399.801 342.753 391.374C344.38 368.534 346.281 338.756 346.053 326.651C345.977 322.273 347.924 299.121 349.795 276.728L350.783 264.861C352.365 245.461 353.688 229.068 353.658 224.825C353.627 223.112 351.452 218.259 351.209 217.723L351.118 217.589L351.103 217.574ZM349.643 264.772L348.654 276.639C346.692 300.089 344.836 322.229 344.913 326.666C345.141 338.726 343.24 368.474 341.612 391.284C341.11 398.193 340.715 403.255 340.593 404.848L331.042 404.595C330.951 403.717 330.738 401.736 330.327 399.041C329.871 396.272 329.369 393.741 328.791 391.344C328.73 390.957 328.624 390.51 328.502 390.108C318.342 347.674 302.616 257.238 302.616 249.704C302.616 222.204 308.958 209.608 311.665 205.469C312.624 204.04 318.221 200.005 320.821 200.243C327.817 200.868 339.985 206.779 350.19 218.274C350.859 219.762 352.502 223.634 352.517 224.869C352.548 229.053 351.24 245.431 349.658 264.802L349.643 264.772Z" fill="#251C4C"/>
<path d="M478.221 278.455C457.536 286.183 417.095 300.283 399.407 299.434C397.43 299.33 397.567 293.523 398.068 285.051C398.449 278.619 399.042 270.653 399.057 262.464C399.087 244.479 391.027 222.636 388.973 221.386C383.513 218.274 347.285 197.384 344.715 218.14C342.038 239.908 352.806 312.492 367.878 329.45C382.981 346.409 418.16 327.396 436 317.167C452.183 307.846 486.023 285.974 486.023 285.974C486.023 285.974 485.932 275.597 478.221 278.455Z" fill="white"/>
<path d="M483.376 278.187C481.947 277.234 480.137 277.145 478.008 277.934C456.122 286.108 416.806 299.732 399.422 298.883C399.346 298.883 399.255 298.853 399.133 298.719C397.886 297.364 398.342 289.964 398.631 285.081L398.814 282.177C399.179 276.222 399.605 269.462 399.62 262.464C399.65 244.285 391.605 222.324 389.262 220.909L389.08 220.805C370.57 210.249 356.517 206.318 349.49 209.742C346.449 211.216 344.654 214.03 344.152 218.08C341.475 239.893 352.289 312.76 367.452 329.822C371.909 334.84 378.084 336.761 384.973 336.761C402.951 336.761 425.871 323.629 436.289 317.643C452.304 308.412 485.992 286.644 486.327 286.436L486.586 286.272V285.974C486.586 285.736 486.494 280.272 483.376 278.187ZM435.711 316.69C413.414 329.465 382.175 344.667 368.304 329.093C353.293 312.209 342.616 239.878 345.278 218.229C345.734 214.566 347.316 212.05 349.992 210.755C351.513 210.01 353.414 209.653 355.65 209.653C363.164 209.653 374.494 213.807 388.502 221.788L388.669 221.892C390.433 222.949 398.51 244.687 398.479 262.479C398.464 269.462 398.038 276.192 397.673 282.133L397.491 285.036C396.973 293.672 396.958 298.034 398.281 299.493C398.57 299.821 398.951 300 399.361 300.015C416.973 300.848 456.441 287.21 478.403 278.991C480.167 278.336 481.612 278.381 482.722 279.11C484.973 280.614 485.354 284.56 485.414 285.691C482.19 287.776 450.905 307.921 435.681 316.705L435.711 316.69Z" fill="#251C4C"/>
<path d="M296.35 109.39C295.65 102.571 279.97 69.3084 279.711 68.5491C279.711 68.5491 271.635 68.2513 269.932 67.2984C269.886 67.2686 269.84 68.4895 269.871 70.5293C269.947 79.0012 274.099 104.491 278.844 111.832C284.776 121.003 280.791 128.18 289.034 135.967C294.54 141.193 299.696 144.439 300.061 144.617C304.563 146.91 330.388 145.004 321.779 131.292C320.882 129.877 296.395 109.941 296.335 109.375L296.35 109.39Z" fill="white"/>
<path d="M307.848 118.517C303.057 114.497 297.658 109.971 296.913 109.182C296.243 103.792 287.833 84.9571 281.551 71.1847C280.867 69.6958 280.335 68.5196 280.289 68.3856L280.167 68.0134H279.772C276.578 67.8793 271.407 67.4625 270.312 66.852L270.023 66.6436L269.719 66.8073C269.369 66.986 269.308 67.0158 269.369 70.5296C269.445 78.4059 273.521 104.521 278.418 112.115C280.973 116.06 281.643 119.634 282.297 123.103C283.148 127.614 283.954 131.872 288.7 136.354C294.236 141.595 299.376 144.856 299.863 145.109C300.973 145.675 303.209 146.002 305.886 146.002C311.392 146.002 318.798 144.603 322.236 140.999C323.985 139.168 325.414 135.937 322.327 130.994C321.825 130.22 316.289 125.545 307.878 118.502L307.848 118.517ZM321.369 140.24C316.76 145.079 303.346 145.645 300.35 144.126C299.939 143.918 294.89 140.717 289.46 135.565C284.973 131.322 284.213 127.242 283.392 122.909C282.722 119.351 282.023 115.658 279.361 111.534C274.814 104.492 270.555 79.3886 270.479 70.5296C270.464 69.4129 270.464 68.6089 270.479 68.1027C272.791 68.7727 277.825 69.0407 279.346 69.1003C279.529 69.5023 279.878 70.2616 280.502 71.6463C284.152 79.6119 295.224 103.866 295.802 109.464C295.848 109.852 295.863 109.941 307.118 119.366C313.232 124.488 320.836 130.86 321.338 131.59C323.529 135.074 323.544 137.977 321.384 140.24H321.369Z" fill="#251C4C"/>
<path d="M341.46 138.587C340.7 137.634 339.924 136.711 339.042 135.788C333.856 130.056 310.966 117.192 309.019 116.269C295.787 122.79 286.616 133.331 287.316 142.518C288.091 143.382 308.137 151.064 308.882 151.362C315.909 153.804 317.46 152.866 321.08 151.332C325.719 149.322 351.346 153.923 346.357 145.585C345.034 143.367 343.407 140.955 341.46 138.587Z" fill="#251C4C"/>
<path d="M317.125 137.322C312.867 138.647 308.228 145.541 306.768 150.663C307.817 150.99 312.456 152.822 313.536 153.194C320.167 141.595 324.213 135.848 336.35 137.992C337.643 138.32 338.951 138.647 340.198 139.005C340.776 139.154 341.217 138.945 341.46 138.573C340.7 137.635 338.996 135.714 338.114 134.791C337.384 134.642 327.65 134.047 317.141 137.322H317.125Z" fill="#251C4C"/>
<path d="M386.144 121.36C383.316 121.703 376.821 123.4 374.068 118.085C373.034 116.104 372.897 112.606 372.7 110.253C372.411 106.903 372.38 103.523 371.681 100.218C370.814 96.1532 369.095 91.7907 365.521 89.2596C359.863 85.2544 349.141 88.262 346.129 94.2623C345.825 94.8727 346.023 95.4087 346.418 95.7512C346.464 95.8554 346.509 95.9596 346.601 96.0638C350.053 100.024 354.053 100.143 355.376 106.576C356.046 109.881 355.163 113.35 355.24 116.685C355.376 122.79 357.749 129.564 363.087 133.182C371.65 138.974 386.099 132.11 388.243 122.715C388.517 121.494 387.133 120.899 386.16 121.36H386.144Z" fill="#251C4C"/>
<path d="M368.289 177.314C368.319 176.808 368.35 176.331 368.395 175.825C368.426 175.453 368.456 175.051 368.502 174.693C368.715 172.966 369.049 171.194 369.414 169.363C373.521 149.307 383.726 124.532 340.593 127.048C340.593 127.048 311.817 138.096 312.365 151.318C312.684 158.97 317.703 163.11 320.35 168.142C322.297 171.805 322.996 175.899 319.787 182.153C319.133 183.418 318.494 184.669 317.779 185.92C310.449 199.513 301.703 212.437 301.703 212.437C301.703 212.437 341.46 226.85 371.894 220.894C377.141 219.837 379.605 227.088 384.046 224.646C384.046 224.646 367.513 197.057 368.289 177.314Z" fill="#251C4C"/>
<path d="M336.106 128.79C336.106 128.79 334.053 132.483 336.106 132.885C340.624 133.763 347.133 126.885 347.133 126.885V116.864L336.106 121.331V128.805V128.79Z" fill="white"/>
<path d="M335.544 128.656C335.24 129.237 334.236 131.322 334.814 132.557C335.042 133.019 335.437 133.317 336 133.436C336.304 133.495 336.624 133.525 336.928 133.525C341.567 133.525 347.285 127.54 347.544 127.257L347.696 127.093V116.016L335.529 120.944V128.656H335.544ZM336.608 129.058L336.684 121.688L346.57 117.683V126.646C345.582 127.644 340 133.064 336.228 132.334C335.985 132.289 335.894 132.185 335.848 132.081C335.559 131.47 336.122 129.952 336.608 129.058Z" fill="#251C4C"/>
<path d="M333.399 99.5186C333.399 99.5186 329.338 107.574 328.319 115.078C327.605 120.408 337.567 127.45 345.688 119.931C353.81 112.427 351.544 100.948 351.544 100.948L333.384 99.5186H333.399Z" fill="white"/>
<path d="M352.046 100.427L333.065 98.9229L332.897 99.2653C332.73 99.5929 328.791 107.499 327.772 115.003C327.407 117.757 329.521 120.869 332.913 122.567C334.525 123.371 336.213 123.773 337.901 123.773C340.791 123.773 343.65 122.611 346.099 120.348C354.357 112.725 352.152 100.963 352.122 100.844L352.046 100.427ZM345.308 119.544C341.795 122.79 337.354 123.549 333.43 121.584C330.494 120.11 328.593 117.415 328.897 115.167C329.764 108.705 332.989 101.722 333.749 100.114L351.072 101.484C351.361 103.583 352.243 113.142 345.308 119.544Z" fill="#251C4C"/>
<path d="M346.038 95.8705C346.388 95.2154 346.266 94.3667 345.338 94.1434C342.357 93.4436 338.935 93.0118 335.97 94.0987C334.814 94.5156 334.038 95.0963 333.217 95.9896C332.259 97.0169 332.943 97.5083 331.285 98.5505C330.753 98.8781 330.038 98.9079 329.475 99.2354C327.878 100.203 327.224 102.198 328.35 103.791C329.597 105.578 332.106 105.429 333.916 104.685C335.087 104.208 336.122 103.494 336.989 102.585C337.567 101.99 338.084 101.082 338.707 100.471C341.156 100.486 343.331 101.99 344.928 104.119C345.065 105.027 345.019 106.04 344.928 107.216C344.684 110.447 344.426 113.261 345.977 116.283C347.985 120.244 351.757 117.802 353.749 114.809C356.289 111.013 355.97 104.774 353.475 101.052C352.213 99.1759 349.004 96.4214 346.053 95.8407L346.038 95.8705Z" fill="#251C4C"/>
<path d="M344.152 108.05L344.243 111.877C344.456 112.294 344.73 112.621 345.08 112.741C346.342 113.202 348.73 111.683 348.076 109.122C347.422 106.562 344.152 108.05 344.152 108.05Z" fill="white"/>
<path d="M347.316 107.32C345.886 106.65 343.985 107.514 343.909 107.544L344.395 108.556C344.806 108.363 346.068 107.961 346.829 108.318C347.179 108.482 347.392 108.78 347.513 109.256C347.863 110.641 347.133 111.46 346.798 111.743C346.251 112.219 345.612 112.338 345.262 112.219C345.095 112.159 344.897 111.936 344.745 111.623L343.726 112.115C344.015 112.695 344.411 113.083 344.867 113.261C345.095 113.336 345.323 113.38 345.582 113.38C346.251 113.38 346.966 113.097 347.559 112.576C348.593 111.683 348.973 110.373 348.624 108.988C348.426 108.199 347.97 107.618 347.316 107.306V107.32Z" fill="#251C4C"/>
<path d="M346.068 93.3094C344.441 92.7436 343.3 95.1407 344.943 95.7214C347.346 96.5552 349.947 97.6421 350.905 100.143C351.513 101.737 354.068 100.843 353.46 99.2501C352.228 96.049 349.217 94.4112 346.084 93.3094H346.068Z" fill="white"/>
<path d="M348.532 212.542C332.654 210.368 329.354 196.342 313.658 193.29C296.532 212.735 289.962 246.34 291.772 275.046C291.772 275.046 309.962 273.378 318.844 276.594C324.289 278.575 333.688 274.376 340.487 276.758C346.57 278.887 352.441 278.44 359.209 279.676C364.791 280.704 369.384 273.051 375.224 272.753C386.068 272.202 392.563 272.693 403.285 264.415C403.285 264.415 399.894 245.134 372.365 201.524C372.137 201.166 364.73 214.73 348.548 212.527L348.532 212.542Z" fill="#251C4C"/>
<path d="M368.365 176.301C368.411 175.765 368.426 175.229 368.502 174.693C368.715 172.966 372.198 156.484 372.578 154.652C373.034 151.913 373.81 148.429 373.247 147.774C366.19 139.763 356.274 136.89 356.274 136.89C354.479 145.793 355.361 159.387 358.388 164.851C359.057 166.013 361.354 170.524 361.491 170.747C363.711 177.447 362.084 184.177 362.433 191.041C362.753 197.086 362.935 203.905 367.148 208.268C381.932 223.589 405.019 277.725 407.939 264.459C412.989 241.53 367.529 197.086 368.304 177.343C368.319 177.001 368.35 176.658 368.38 176.331L368.365 176.301Z" fill="#251C4C"/>
<path d="M408.882 259.576C403.3 259.993 400.593 261.661 395.711 264.013C387.65 267.884 384.791 265.949 377.688 267.884C374.89 268.644 373.247 270.698 370.92 272.023C357.612 279.602 355.331 273.959 344.532 272.574C340.304 272.023 337.627 273.423 333.779 274.301C329.049 275.359 331.741 276.713 325.202 275.82C320.091 275.12 319.3 273.453 315.407 271.085C308.38 266.827 296.289 267.408 289.323 271.294C284.776 273.825 289.171 280.51 293.688 277.994C297.749 275.731 311.452 279.051 315.011 281.002C316.259 281.686 317.186 282.892 318.418 283.607C321.004 285.096 323.635 286.153 326.677 285.974C331.179 285.692 335.118 282.773 339.529 281.94C347.529 280.421 352.015 284.56 359.65 285.483C367.863 286.466 369.779 282.282 375.726 278.604C381.308 275.15 386.829 277.026 392.532 275.537C398.935 273.87 401.567 268.108 409.338 267.542C414.54 267.155 414.114 259.219 408.882 259.606V259.576Z" fill="white"/>
<path d="M408.852 259.01C403.878 259.382 401.11 260.737 397.262 262.628C396.7 262.911 396.091 263.194 395.468 263.506C390.692 265.799 387.772 266.008 384.684 266.246C382.586 266.395 380.411 266.559 377.551 267.348C375.665 267.869 374.281 268.926 372.943 269.939C372.183 270.519 371.468 271.07 370.646 271.532C361.475 276.758 357.719 275.567 352.532 273.914C350.342 273.214 347.848 272.425 344.624 272.008C341.399 271.591 339.027 272.276 336.517 272.991C335.62 273.244 334.677 273.512 333.658 273.75C331.772 274.182 330.966 274.658 330.388 275.016C329.582 275.507 329.141 275.79 325.293 275.254C321.719 274.763 320.395 273.825 318.403 272.395C317.658 271.859 316.791 271.249 315.711 270.594C308.183 266.023 295.833 267.005 289.034 270.787C287.62 271.576 286.844 272.812 286.829 274.271C286.829 275.909 287.833 277.606 289.369 278.47C290.798 279.289 292.487 279.289 293.977 278.47C297.795 276.341 311.24 279.557 314.738 281.478C315.316 281.79 315.833 282.252 316.38 282.728C316.928 283.205 317.49 283.696 318.144 284.083C320.152 285.244 322.844 286.54 326.023 286.54C326.251 286.54 326.494 286.54 326.738 286.525C329.354 286.361 331.772 285.349 334.114 284.366C335.909 283.607 337.764 282.832 339.665 282.475C344.441 281.582 347.97 282.758 351.696 284.009C354.114 284.813 356.608 285.661 359.605 286.019C365.871 286.778 368.715 284.545 372.015 281.954C373.232 281.001 374.494 280.018 376.046 279.051C379.331 277.011 382.586 276.907 386.023 276.787C388.198 276.713 390.433 276.639 392.7 276.043C395.574 275.284 397.734 273.735 399.818 272.231C402.57 270.251 405.171 268.375 409.414 268.063C412.411 267.839 413.795 265.397 413.627 263.104C413.46 260.975 411.924 258.802 408.882 259.01H408.852ZM409.293 266.946C404.73 267.288 401.871 269.343 399.118 271.338C397.019 272.842 395.057 274.271 392.38 274.971C390.236 275.537 388.061 275.596 385.962 275.671C382.525 275.79 378.966 275.909 375.422 278.098C373.81 279.095 372.471 280.138 371.285 281.076C367.924 283.696 365.506 285.587 359.726 284.902C356.852 284.56 354.418 283.741 352.046 282.937C348.167 281.626 344.502 280.406 339.422 281.358C337.414 281.746 335.498 282.535 333.643 283.324C331.285 284.306 329.065 285.244 326.646 285.393C324.122 285.542 321.764 284.872 318.707 283.1C318.144 282.773 317.658 282.341 317.125 281.88C316.563 281.373 315.97 280.867 315.285 280.48C312.73 279.08 304.015 276.639 298.008 276.639C296.106 276.639 294.479 276.877 293.399 277.487C292.243 278.128 291.027 278.128 289.932 277.502C288.745 276.817 287.954 275.522 287.954 274.271C287.954 273.542 288.243 272.499 289.582 271.755C295.954 268.197 308 267.229 315.087 271.532C316.137 272.172 316.973 272.767 317.703 273.289C319.757 274.763 321.247 275.82 325.11 276.356C329.202 276.922 329.856 276.639 330.981 275.954C331.513 275.626 332.198 275.209 333.901 274.822C334.935 274.584 335.894 274.316 336.821 274.048C339.316 273.333 341.475 272.723 344.456 273.11C347.574 273.512 350.008 274.286 352.152 274.971C357.414 276.639 361.582 277.964 371.194 272.485C372.076 271.978 372.867 271.383 373.612 270.802C374.92 269.805 376.152 268.852 377.825 268.405C380.578 267.661 382.692 267.497 384.745 267.348C387.954 267.11 390.981 266.886 395.954 264.504C396.593 264.206 397.186 263.908 397.764 263.626C401.627 261.735 404.183 260.484 408.928 260.127C411.209 259.963 412.319 261.541 412.441 263.194C412.578 264.876 411.635 266.782 409.293 266.946Z" fill="#251C4C"/>
<path d="M329.84 401.081C329.84 401.081 317.947 402.391 310.51 403.285C303.072 404.178 303.316 414.556 303.316 414.556C312 415.866 340.76 414.481 340.76 414.481C344.7 408.406 341.521 401.587 341.521 401.587C336.122 407.334 329.856 401.081 329.856 401.081H329.84Z" fill="#251C4C"/>
<path d="M474.388 280.034C481.764 283.012 477.916 290.932 477.916 290.932C477.916 290.932 483.27 301.414 486.707 307.936C490.129 314.457 500 310.66 500 310.66C498.251 302.233 487.011 276.282 487.011 276.282C479.833 274.763 474.388 280.034 474.388 280.034Z" fill="#251C4C"/>
<path d="M276.624 329.494H176.608V413.037H276.624V329.494Z" fill="white"/>
<path d="M176.046 413.588H277.201V328.929H176.046V413.588ZM177.186 330.045H276.061V412.471H177.186V330.045Z" fill="#251C4C"/>
<path d="M296.897 329.479H276.624V413.037H296.897V329.479Z" fill="#251C4C"/>
<path d="M226.662 382.976L214.738 339.098H194.875V403.433H207.209V352.781L220.213 403.433H232.989L246.038 352.781V403.433H258.357V339.098H238.464L226.662 382.976Z" fill="#251C4C"/>
<path d="M265.916 241.039H160.046V329.465H265.916V241.039Z" fill="#D5FF3C"/>
<path d="M159.468 330.031H266.479V240.488H159.468V330.031ZM160.608 241.605H265.338V328.914H160.608V241.605Z" fill="#251C4C"/>
<path d="M287.376 241.024H265.916V329.48H287.376V241.024Z" fill="#251C4C"/>
<path d="M205.171 251.208L178.068 319.311H192.973L198.722 303.841H226.525L232.593 319.311H247.878L220.03 251.208H205.171ZM203.027 292.376L212.426 267.095L222.008 292.376H203.027Z" fill="#251C4C"/>
<path d="M161.247 64.9316L178.129 146.836L199.24 152.807L297.262 133.436L182.342 70.8873L161.247 64.9316Z" fill="#251C4C"/>
<path d="M162.616 71.6768L168.395 99.6831C174.433 86.3425 179.483 72.8679 184.76 60.3164L166.951 63.8302C165.84 66.2274 164.38 68.8627 162.616 71.6768Z" fill="white"/>
<path d="M184.76 60.3163C179.483 72.8678 174.418 86.3424 168.395 99.683L178.129 146.851L276.167 127.466L259.285 45.5762L184.776 60.3014L184.76 60.3163Z" fill="#D5FF3C"/>
<path d="M162.616 71.6766C164.38 68.8626 165.84 66.2272 166.951 63.8301L161.232 64.9616L162.616 71.6766Z" fill="#D5FF3C"/>
<path d="M160.563 64.5295L177.673 147.506L276.821 127.912L259.711 44.9355L160.563 64.5295ZM178.57 146.181L161.901 65.3931L258.814 46.2309L275.483 127.019L178.57 146.181Z" fill="#251C4C"/>
<path d="M259.255 45.5762L276.152 127.481L297.262 133.436L280.365 51.5318L259.255 45.5762Z" fill="#251C4C"/>
<path d="M237.779 59.6162L186.586 69.7408L188.791 80.4013L207.909 76.6344L218.707 129.029L231.726 126.453L220.913 74.0586L239.985 70.2917L237.779 59.6162Z" fill="#251C4C"/>
<path d="M259.583 157.335L170.093 157.473L170.227 241.015L259.717 240.877L259.583 157.335Z" fill="white"/>
<path d="M260.228 156.781L169.597 156.915L169.734 241.009V241.574L260.365 241.425L260.228 157.332V156.781ZM170.89 240.458L170.753 158.032L259.103 157.898L259.24 240.324L170.89 240.458Z" fill="#251C4C"/>
<path d="M259.665 157.332L259.802 240.889H283.057L282.92 157.272L259.665 157.332Z" fill="#251C4C"/>
<path d="M204.532 220.521L204.502 203.012L234.023 202.967L234.008 192.128L204.487 192.173L204.471 177.909L236.198 177.864L236.183 166.98L192.578 167.04L192.684 231.376L237.399 231.316L237.384 220.477L204.532 220.521Z" fill="#251C4C"/>
<path d="M276.137 46.692C274.92 46.3347 273.916 46.6325 273.049 47.2578C272.989 47.1834 272.943 47.094 272.897 47.0345C271.894 45.8731 270.114 45.0691 268.654 46.0071C268.517 46.0965 268.395 46.2156 268.289 46.3347C267.863 46.1709 267.392 46.0518 266.844 46.0071C266.494 45.9922 266.175 46.0518 265.856 46.1262C265.795 46.1262 265.749 46.0965 265.688 46.0965C262.525 45.9476 262.114 45.888 261.947 48.5085C261.795 51.0396 264.03 53.5261 266.54 51.8436C266.692 52.2159 266.814 52.603 267.057 52.9752C267.833 54.1961 269.384 54.1365 270.236 53.0496C270.327 52.9305 270.403 52.7965 270.494 52.6774C270.844 53.6303 271.924 54.1663 273.065 53.675C273.992 53.2581 274.662 52.603 275.118 51.7841C275.133 51.8436 275.164 51.9181 275.148 51.9627C274.601 53.5261 274.829 55.8786 276.852 55.9679C278.19 56.0275 279.194 52.9901 278.875 50.459C278.859 48.7914 278.19 47.3025 276.152 46.7069L276.137 46.692Z" fill="white"/>
<path d="M276.304 46.1561C275.224 45.8434 274.175 45.9476 273.186 46.4985C271.954 45.2032 269.947 44.4736 268.35 45.5158C268.274 45.5605 268.213 45.6052 268.152 45.6647C267.741 45.5307 267.316 45.4563 266.875 45.4265C266.51 45.4116 266.19 45.4712 265.856 45.5307L265.536 45.501C262.403 45.3521 261.567 45.4414 261.384 48.449C261.293 50.1315 262.129 51.8139 263.452 52.5435C264.335 53.0348 265.308 53.0497 266.251 52.6179C266.342 52.8264 266.433 53.0199 266.57 53.2433C267.027 53.943 267.726 54.3748 268.502 54.4046C269.232 54.4344 269.901 54.1515 270.433 53.6304C270.662 53.8835 270.951 54.077 271.255 54.2111C271.894 54.4791 272.608 54.4493 273.278 54.1515C273.643 53.9877 273.992 53.7793 274.297 53.5559C274.297 54.2408 274.479 54.9257 274.844 55.4766C275.285 56.1168 275.97 56.4742 276.806 56.504C276.821 56.504 276.852 56.504 276.867 56.504C277.202 56.504 277.658 56.3997 278.129 55.8935C279.133 54.8215 279.681 52.4541 279.422 50.4292C279.407 48.2257 278.327 46.7516 276.289 46.1561H276.304ZM277.293 55.1342C277.186 55.2533 276.958 55.3724 276.867 55.3873C276.395 55.3724 276.046 55.1937 275.802 54.8513C275.376 54.2408 275.316 53.1242 275.665 52.1415C275.741 51.933 275.681 51.7395 275.665 51.6352L275.316 50.2357L274.616 51.5012C274.205 52.2606 273.597 52.8115 272.837 53.1539C272.456 53.3326 272.061 53.3475 271.726 53.1986C271.407 53.0646 271.164 52.8115 271.042 52.469L270.616 51.4417L269.992 52.3946C269.916 52.4988 269.856 52.603 269.795 52.6924C269.475 53.0944 269.019 53.3177 268.578 53.3028C268.167 53.2879 267.802 53.0497 267.559 52.6626C267.392 52.3946 267.285 52.1266 267.194 51.8586L266.844 50.9652L266.251 51.3672C265.475 51.8884 264.715 51.9628 264.03 51.5906C263.103 51.0695 262.464 49.789 262.54 48.5383C262.621 47.1884 263.61 46.5531 265.506 46.6325L265.825 46.6772H266.053C266.327 46.6027 266.586 46.5432 266.829 46.5581C267.27 46.5879 267.681 46.6772 268.106 46.841L268.532 46.9154L268.791 46.6474C268.867 46.573 268.943 46.4985 269.004 46.4687C270.129 45.7392 271.62 46.3794 272.532 47.4514L272.958 48.047L273.414 47.7194C274.236 47.1239 275.072 46.975 276 47.243C277.551 47.6896 278.297 48.7468 278.312 50.5186C278.555 52.4095 277.992 54.4344 277.308 55.1639L277.293 55.1342Z" fill="#251C4C"/>
<path d="M191.589 55.2984C191.589 55.2984 191.483 55.343 191.407 55.3579C191.057 55.343 190.692 55.3133 190.312 55.3877C189.719 55.5068 189.232 55.7153 188.791 55.9684C188.639 55.8642 188.502 55.745 188.335 55.6706C186.601 54.8815 184.791 56.0577 183.894 57.4722C183.848 57.5615 183.802 57.6657 183.757 57.7551C182.707 57.2191 181.567 57.0702 180.304 57.6508C178.175 58.6335 177.703 60.3458 177.977 62.1622C178.038 64.9614 179.65 68.1178 181.095 67.8349C183.285 67.4181 183.148 64.8274 182.281 63.2045C182.251 63.1449 182.281 63.0705 182.281 62.996C182.905 63.8 183.741 64.4254 184.837 64.7231C186.16 65.0805 187.24 64.3211 187.468 63.2342C187.574 63.3533 187.696 63.4873 187.802 63.6065C188.913 64.6487 190.601 64.47 191.24 63.0109C191.437 62.5642 191.513 62.1324 191.605 61.7007C194.616 63.1449 196.639 60.0629 196.046 57.3382C195.437 54.4944 194.996 54.6433 191.574 55.3133L191.589 55.2984Z" fill="white"/>
<path d="M196.608 57.2041C195.924 54.0029 195.087 54.0476 191.665 54.7027L191.346 54.792C190.996 54.7771 190.616 54.7623 190.19 54.8367C189.719 54.9409 189.262 55.0898 188.821 55.3132C188.745 55.2536 188.654 55.2089 188.563 55.1643C186.646 54.3007 184.608 55.4174 183.498 57.0254C182.342 56.5787 181.186 56.6085 180.061 57.1296C177.977 58.0974 177.065 59.8543 177.399 62.1621C177.46 64.4252 178.464 66.9564 179.711 67.9391C180.167 68.2964 180.593 68.4006 180.913 68.4006C181.019 68.4006 181.125 68.4006 181.202 68.3708C182.084 68.2071 182.753 67.7157 183.118 66.9564C183.452 66.2864 183.498 65.4824 183.376 64.7081C183.772 64.9464 184.213 65.125 184.669 65.259C185.445 65.4675 186.221 65.3781 186.844 65.0059C187.179 64.8124 187.452 64.5295 187.665 64.2168C188.319 64.7081 189.141 64.9166 189.901 64.7677C190.722 64.6039 191.407 64.0381 191.772 63.2192C191.894 62.9512 191.97 62.6981 192.03 62.445C193.141 62.7726 194.205 62.6088 195.072 61.9388C196.365 60.9561 197.004 59.0056 196.608 57.2041ZM194.373 61.0603C193.673 61.5963 192.806 61.641 191.863 61.1794L191.209 60.8668L190.996 61.8048C190.92 62.1472 190.859 62.4599 190.707 62.7726C190.494 63.2639 190.114 63.5766 189.658 63.6659C189.171 63.7701 188.608 63.5915 188.198 63.1895C188.106 63.1001 188.03 63.0108 187.878 62.847L187.118 62.0132L186.89 63.115C186.814 63.517 186.586 63.8446 186.236 64.053C185.871 64.2615 185.43 64.321 184.973 64.187C184.076 63.9339 183.316 63.4277 182.722 62.6683L181.871 61.6261L181.703 62.9959C181.703 63.0852 181.673 63.2788 181.779 63.4723C182.327 64.4997 182.464 65.7504 182.084 66.4948C181.871 66.9266 181.506 67.1797 180.973 67.2839C180.776 67.3137 180.563 67.1946 180.411 67.0755C179.544 66.3906 178.586 64.321 178.525 62.0877C178.251 60.1968 178.905 58.9163 180.532 58.157C180.989 57.9485 181.43 57.8443 181.886 57.8443C182.403 57.8443 182.935 57.9783 183.468 58.2612L183.97 58.5143L184.35 57.7847C185.156 56.5192 186.692 55.5663 188.076 56.1916C188.167 56.2363 188.259 56.2958 188.426 56.4298L188.73 56.6532L189.049 56.4745C189.49 56.2214 189.916 56.0576 190.403 55.9534C190.677 55.8938 190.966 55.9087 191.346 55.9236H191.437L191.529 55.9087C191.589 55.8938 191.635 55.8789 191.681 55.8492L191.878 55.8045C193.967 55.3975 195.169 55.9435 195.483 57.4423C195.772 58.8121 195.3 60.3456 194.357 61.0603H194.373Z" fill="#251C4C"/>
<path d="M338.57 138.959C335.665 144.319 309.734 153.967 305.156 153.357C303.224 153.104 279.544 136.785 274.084 133.018C273.977 131.187 273.703 128.567 272.882 127.509C272.319 126.78 271.209 126.199 270.951 127.45C270.783 128.209 271.057 129.147 271.331 129.847V129.877C268.76 127.331 265.125 125.187 261.582 125.633C259.285 125.931 259.468 127.331 261.49 127.882C265.414 128.954 267.772 130.83 262.023 128.894C260.852 128.507 258.266 128.224 257.962 129.043C257.308 130.77 261.643 131.649 263.468 132.289C264.608 133.465 260.061 132.661 259.209 133.004C255.331 134.582 263.772 136.294 263.909 136.875C264.274 138.483 258.768 136.473 260.167 138.766C261.217 140.478 266.981 140.329 268.563 141.118C269.399 141.535 269.871 142.22 270.525 142.503C270.844 142.964 271.194 143.5 271.62 144.096C276.274 150.662 286.981 164.39 298.859 169.333C300.213 169.899 302.251 170.241 304.776 170.405C309.992 170.747 317.323 170.226 324.913 169.109C325.719 168.99 326.525 168.886 327.331 168.722C329.338 168.41 331.3 168.052 333.262 167.635C347.878 164.673 361.034 159.714 359.605 154.399C358.16 148.994 341.369 133.808 338.601 138.959H338.57Z" fill="white"/>
<path d="M360.122 154.25C358.829 149.411 346.601 137.991 341.019 137.366C339.27 137.172 338.449 137.976 338.068 138.691C335.346 143.709 309.673 153.387 305.232 152.791C303.787 152.523 288.867 142.533 274.646 132.706C274.464 129.862 274.038 128.045 273.354 127.167C272.928 126.601 272.137 126.021 271.392 126.184C271.103 126.244 270.586 126.482 270.403 127.331C270.342 127.629 270.327 127.926 270.357 128.239C268.365 126.616 265.11 124.636 261.521 125.083C259.65 125.321 259.392 126.199 259.361 126.557C259.316 127.107 259.665 127.614 260.304 127.986C259.103 127.867 257.764 127.956 257.43 128.85C257.278 129.252 257.293 129.668 257.49 130.056C258.068 131.202 260.167 131.872 261.932 132.393C261.673 132.393 261.414 132.393 261.186 132.378C260.091 132.348 259.392 132.319 258.996 132.497C258.646 132.631 257.612 133.063 257.627 133.927C257.658 135.043 259.437 135.743 261.932 136.622C262.281 136.741 262.677 136.89 262.981 136.994C262.662 137.024 262.251 137.009 261.962 136.994C260.897 136.979 259.894 136.949 259.498 137.619C259.27 138.006 259.331 138.468 259.681 139.034C260.471 140.329 262.966 140.671 265.384 141.014C266.57 141.178 267.787 141.341 268.289 141.609C268.654 141.788 268.958 142.041 269.232 142.294C269.506 142.533 269.779 142.771 270.114 142.935C270.403 143.366 270.753 143.858 271.133 144.409C276.38 151.823 286.92 164.985 298.616 169.839C299.985 170.405 302.038 170.792 304.715 170.956C305.764 171.015 306.92 171.06 308.152 171.06C312.867 171.06 318.783 170.569 324.973 169.66L325.475 169.586C326.129 169.497 326.768 169.392 327.392 169.273C329.338 168.975 331.346 168.603 333.354 168.186C340.046 166.831 355.985 163.065 359.559 157.436C360.228 156.379 360.426 155.307 360.137 154.25H360.122ZM358.57 156.841C356.259 160.489 346.738 164.315 333.11 167.085C331.118 167.501 329.125 167.859 327.179 168.171C326.555 168.291 325.932 168.395 325.293 168.484L324.791 168.559C317.065 169.69 309.779 170.167 304.776 169.839C302.236 169.675 300.304 169.333 299.057 168.812C287.635 164.077 277.247 151.094 272.076 143.783C271.665 143.188 271.3 142.667 270.981 142.205L270.89 142.071L270.738 142.011C270.494 141.907 270.251 141.699 269.977 141.461C269.658 141.193 269.293 140.88 268.806 140.627C268.122 140.284 266.92 140.121 265.536 139.927C263.696 139.674 261.156 139.317 260.639 138.483C260.548 138.334 260.517 138.244 260.487 138.215C260.73 138.11 261.475 138.125 261.916 138.14C262.89 138.14 263.817 138.17 264.259 137.649C264.395 137.485 264.548 137.202 264.441 136.77C264.335 136.294 263.817 136.115 262.297 135.579C261.369 135.252 258.905 134.388 258.738 133.942C258.738 133.942 258.829 133.778 259.407 133.54C259.62 133.465 260.517 133.495 261.125 133.51C262.905 133.569 263.848 133.569 264.137 132.929C264.243 132.706 264.274 132.348 263.863 131.917L263.635 131.768C263.316 131.664 262.905 131.53 262.464 131.41C261.125 131.008 258.875 130.338 258.479 129.579C258.418 129.475 258.418 129.371 258.449 129.281C258.707 128.998 260.593 129.028 261.81 129.445C265.262 130.606 265.536 130.353 265.795 130.13L266.068 129.847L265.992 129.52C265.749 128.507 261.658 127.375 261.627 127.361C260.715 127.107 260.456 126.735 260.456 126.661C260.456 126.616 260.684 126.318 261.627 126.199C265.749 125.678 269.49 128.879 270.905 130.279L272.38 131.678L271.833 129.654C271.711 129.311 271.316 128.284 271.483 127.554C271.529 127.361 271.589 127.271 271.605 127.271C271.696 127.271 272.076 127.405 272.411 127.837C272.791 128.328 273.293 129.639 273.49 133.048V133.316L273.734 133.465C282.494 139.525 303.087 153.655 305.049 153.908C310.175 154.593 336.061 144.751 339.057 139.212C339.255 138.84 339.665 138.349 340.867 138.483C346.023 139.063 357.795 150.052 358.996 154.533C359.209 155.292 359.057 156.052 358.555 156.841H358.57Z" fill="#251C4C"/>
<path d="M355.027 129.192C342.601 130.189 329.49 141.252 327.452 143.009C330.099 155.024 336.943 165.238 347.316 170.39C360.152 161.531 377.232 148.577 375.3 137.917C374.099 131.261 360.684 128.73 355.027 129.192Z" fill="#251C4C"/>
<path d="M197.688 139.465C190.221 140.433 193.582 138.676 198.601 138.334C201.202 138.155 201.795 136.443 199.118 135.475C194.966 134.001 189.992 135.773 186.19 138.304C186.19 138.304 186.19 138.274 186.205 138.274C186.722 137.455 187.316 136.354 187.316 135.341C187.331 133.703 185.84 134.15 184.973 134.909C183.711 136.011 182.662 139.197 182.038 141.461C174.844 144.304 144.867 156.111 142.479 155.933C136.806 155.516 104.7 139.957 102.662 132.468C100.745 125.261 76.3498 140.076 73.1103 146.508C66.8897 158.866 128.061 183.716 142.205 180.872C157.871 177.715 174.555 163.184 181.962 156.126C182.631 155.486 183.209 154.905 183.711 154.414C184.593 154.22 185.338 153.491 186.464 153.178C188.578 152.583 195.498 154.25 197.232 152.374C199.544 149.858 192.365 150.96 193.232 149.039C193.551 148.354 204.198 148.354 199.954 145.376C199.027 144.721 193.308 144.572 195.011 143.381C197.399 143.054 202.859 143.054 202.54 140.716C202.388 139.614 199.194 139.287 197.688 139.48V139.465Z" fill="white"/>
<path d="M202.586 139.689C201.916 139.183 200.654 138.915 199.498 138.826C200.639 138.572 201.384 137.992 201.49 137.203C201.551 136.756 201.475 135.654 199.346 134.895C195.087 133.391 190.555 135.133 187.726 136.667C187.878 136.235 187.97 135.788 187.985 135.342C187.985 134.269 187.452 133.867 187.133 133.719C186.281 133.346 185.232 133.882 184.578 134.448C183.529 135.371 182.54 137.515 181.536 140.999C159.635 149.665 143.985 155.412 142.54 155.323C137.369 154.95 105.247 139.555 103.285 132.319C103.027 131.366 102.281 130.175 100.183 129.967C93.2928 129.282 75.4677 140.478 72.5627 146.24C71.5133 148.31 72.076 150.737 74.2205 153.447C84.4715 166.43 129.703 183.82 142.205 181.512C142.251 181.512 142.297 181.498 142.342 181.483C157.749 178.386 174.053 164.539 182.418 156.573C183.027 155.978 183.574 155.442 184.061 154.965C184.517 154.831 184.913 154.608 185.308 154.385C185.719 154.146 186.16 153.908 186.646 153.774C187.346 153.566 188.791 153.67 190.342 153.774C193.323 153.968 196.426 154.176 197.703 152.777C197.901 152.553 198.525 151.883 198.266 151.139C197.977 150.275 196.791 150.037 195.529 149.799C195.072 149.709 194.281 149.561 193.947 149.397C194.373 149.307 195.072 149.203 195.681 149.114C198.905 148.652 201.217 148.235 201.536 146.91C201.779 145.898 200.684 145.124 200.319 144.871C199.878 144.558 199.057 144.409 197.719 144.171C197.262 144.096 196.654 143.992 196.152 143.873C196.274 143.873 196.395 143.843 196.532 143.843C198.844 143.635 201.703 143.367 202.753 142.071C203.087 141.654 203.224 141.163 203.164 140.642C203.133 140.389 202.996 140.032 202.57 139.704L202.586 139.689ZM201.795 141.297C201.065 142.19 198.281 142.444 196.426 142.607C195.863 142.652 195.361 142.712 194.935 142.756H194.783L194.662 142.86C194.084 143.262 194.038 143.679 194.114 143.962C194.297 144.766 195.468 145.004 197.521 145.377C198.266 145.511 199.376 145.704 199.605 145.853C200.319 146.359 200.335 146.598 200.335 146.598C200.183 147.208 196.669 147.714 195.513 147.878C193.445 148.176 192.897 148.265 192.669 148.757C192.456 149.233 192.548 149.605 192.669 149.829C193.049 150.543 194.145 150.752 195.3 150.975C195.878 151.079 196.943 151.288 197.08 151.466C197.08 151.466 197.08 151.6 196.776 151.913C195.894 152.866 192.73 152.657 190.418 152.509C188.684 152.389 187.194 152.3 186.297 152.553C185.658 152.732 185.125 153.03 184.669 153.283C184.259 153.506 183.924 153.715 183.574 153.789L183.392 153.834L183.255 153.968C182.753 154.474 182.175 155.04 181.506 155.68C173.247 163.556 157.156 177.239 142.068 180.262C142.023 180.262 141.977 180.277 141.947 180.292C130.114 182.48 85.0646 165.179 75.1939 152.687C73.3688 150.379 72.8517 148.384 73.673 146.776C76.1065 141.952 90.2662 132.721 97.7491 131.336C98.6008 131.173 99.3764 131.113 100.03 131.187C101.536 131.336 101.901 132.081 102.038 132.632C103.285 137.277 114.373 143.873 120.882 147.402C129.932 152.315 139.392 156.335 142.418 156.558C144.837 156.737 171.087 146.464 182.266 142.042L182.555 141.922L182.631 141.625C183.818 137.426 184.776 135.907 185.384 135.371C185.871 134.939 186.418 134.776 186.57 134.85C186.616 134.865 186.677 135.014 186.677 135.327C186.677 136.309 185.901 137.545 185.627 137.977L184.046 140.463L186.51 138.811C188.608 137.411 194.023 134.329 198.859 136.056C199.878 136.414 200.228 136.86 200.198 137.039C200.167 137.262 199.62 137.649 198.525 137.724C198.479 137.724 193.278 138.126 192.73 139.257L192.578 139.674L192.806 139.972C193.019 140.255 193.323 140.657 197.734 140.091C199.483 139.868 201.764 140.389 201.886 140.791C201.916 140.984 201.886 141.148 201.749 141.297H201.795Z" fill="#251C4C"/>
<path d="M81.7643 107.827C75.3308 105.117 58.6008 103.077 54.5247 110.76C47.9848 123.073 62.8137 145.436 74.2966 161.204C88.5171 158.866 100.624 148.98 108.532 135.282C106.844 132.349 95.9087 113.812 81.7643 107.827Z" fill="#251C4C"/>
<path d="M74.7985 103.315C68.5932 102.004 62.6768 103.374 57.2167 107.409C54.038 109.747 52.2129 113.007 51.7719 117.072C49.9011 134.209 72.8669 160.474 73.8403 161.59L74.7833 160.786C74.5399 160.518 51.2091 133.822 53.019 117.206C53.4297 113.484 55.0875 110.521 57.9772 108.392C63.1331 104.58 68.7148 103.27 74.5399 104.506C92.6388 108.332 107.848 135.281 107.985 135.564L109.08 134.969C108.456 133.837 93.4601 107.245 74.7985 103.3V103.315Z" fill="white"/>
</g>
<defs>
<clipPath id="clip0_36_596">
<rect width="500" height="416" fill="white"/>
</clipPath>
</defs>
</svg>
