<svg width="500" height="446" viewBox="0 0 500 446" fill="none" xmlns="http://www.w3.org/2000/svg">
<g clip-path="url(#clip0_36_1278)">
<path d="M416.08 143.444C361.071 127.054 313.655 103.889 259.927 39.6197C206.216 -24.6494 61.8138 -4.87178 19.8376 91.5318C-22.1386 187.935 8.08622 276.934 58.4609 293.405C108.836 309.892 130.448 326.023 158.257 389.26C180.56 439.995 304.599 464.418 343.025 415.49C413.319 326.023 415.259 360.965 448.836 294.228C482.414 227.49 472.586 160.269 416.097 143.428L416.08 143.444Z" fill="#90FFFB"/>
<path d="M281.868 3.2752C240.829 13.164 309.957 81.6434 379.331 114.23C448.705 146.832 423.131 95.2264 375.945 45.7663C337.404 5.38846 322.908 -6.61359 281.868 3.2752Z" fill="#90FFFB"/>
<path d="M431.842 442.479H1.23267V445.689H431.842V442.479Z" fill="#251C4C"/>
<path d="M213.217 407.972H156.712V442.252H213.217C222.865 442.252 230.672 434.573 230.672 425.104C230.672 415.634 222.849 407.972 213.217 407.972Z" fill="#90FFFB"/>
<path d="M213.217 407.182H155.923V443.026H213.217C223.276 443.026 231.477 434.993 231.477 425.104C231.477 415.215 223.292 407.182 213.217 407.182ZM213.217 441.478H157.501V408.746H213.217C222.405 408.746 229.883 416.086 229.883 425.104C229.883 434.122 222.405 441.462 213.217 441.462V441.478Z" fill="#251C4C"/>
<path d="M213.217 407.972H156.712V421.426C163.484 424.007 171.126 427.023 173.608 423.216C176.451 418.845 185.836 411.94 185.836 411.94C185.836 411.94 203.964 411.811 216.291 411.811C228.617 411.811 230.54 422.99 230.573 423.2C229.603 414.634 222.208 407.972 213.217 407.972Z" fill="#251C4C"/>
<path d="M175.514 410.907H74.3047V438.831H175.514C183.371 438.831 189.731 432.572 189.731 424.877C189.731 417.166 183.371 410.923 175.514 410.923V410.907Z" fill="white"/>
<path d="M174.66 407.972H68.3058V413.844H174.66C180.987 413.844 186.132 418.893 186.132 425.104C186.132 431.314 180.987 436.364 174.66 436.364H68.3058V442.252H174.66C184.307 442.252 192.114 434.573 192.114 425.104C192.114 415.634 184.291 407.972 174.66 407.972Z" fill="#251C4C"/>
<path d="M190.158 332.701H146.391V359.254H190.158C197.62 359.254 203.685 353.318 203.685 345.978C203.685 338.638 197.637 332.701 190.158 332.701Z" fill="white"/>
<path d="M190.158 331.911H145.602V360.013H190.158C198.047 360.013 204.474 353.705 204.474 345.962C204.474 338.219 198.047 331.911 190.158 331.911ZM190.158 358.464H147.18V333.476H190.158C197.176 333.476 202.896 339.09 202.896 345.978C202.896 352.866 197.193 358.48 190.158 358.48V358.464Z" fill="#251C4C"/>
<path d="M160.953 334.976H82.5718V356.592H160.953C167.034 356.592 171.964 351.753 171.964 345.784C171.964 339.815 167.034 334.976 160.953 334.976Z" fill="white"/>
<path d="M160.295 332.701H77.9205V337.25H160.295C165.193 337.25 169.187 341.17 169.187 345.978C169.187 350.785 165.193 354.705 160.295 354.705H77.9205V359.254H160.295C167.757 359.254 173.822 353.318 173.822 345.978C173.822 338.638 167.773 332.701 160.295 332.701Z" fill="#251C4C"/>
<path d="M188.646 359.238H141.066V379.564H188.646C194.366 379.564 199.001 375.015 199.001 369.401C199.001 363.787 194.366 359.238 188.646 359.238Z" fill="white"/>
<path d="M188.646 358.464H140.26V380.355H188.646C194.793 380.355 199.79 375.451 199.79 369.417C199.79 363.384 194.793 358.48 188.646 358.48V358.464ZM188.646 378.79H141.855V360.013H188.646C193.922 360.013 198.212 364.223 198.212 369.401C198.212 374.58 193.922 378.79 188.646 378.79Z" fill="#251C4C"/>
<path d="M188.646 359.238H141.066V363.949L152.653 362.787H188.318C188.318 362.787 197.406 362.787 198.672 371.918C198.886 371.111 199.001 370.272 199.001 369.401C199.001 363.787 194.366 359.238 188.646 359.238Z" fill="#251C4C"/>
<path d="M145.273 360.98H68.5688V377.532H145.273C149.924 377.532 153.705 373.821 153.705 369.256C153.705 364.691 149.924 360.98 145.273 360.98Z" fill="white"/>
<path d="M144.78 359.238H65.0352V362.723H144.78C148.527 362.723 151.584 365.723 151.584 369.401C151.584 373.079 148.527 376.08 144.78 376.08H65.0352V379.564H144.78C150.5 379.564 155.134 375.015 155.134 369.401C155.134 363.787 150.5 359.238 144.78 359.238Z" fill="#251C4C"/>
<path d="M79.6792 393.76C79.6792 401.6 86.1548 407.956 94.1424 407.956H181.086V379.548H94.1424C86.1548 379.548 79.6792 385.904 79.6792 393.744V393.76Z" fill="#90FFFB"/>
<path d="M78.8903 393.76C78.8903 402.02 85.7439 408.747 94.1588 408.747H181.891V378.79H94.1588C85.7439 378.79 78.8903 385.517 78.8903 393.776V393.76ZM180.297 407.182H94.1424C86.5985 407.182 80.4681 401.165 80.4681 393.76C80.4681 386.356 86.5985 380.339 94.1424 380.339H180.297V407.182Z" fill="#251C4C"/>
<path d="M79.6792 393.76C79.6792 394.277 79.7121 394.777 79.7614 395.277C79.7614 395.245 83.936 385.614 95.638 385.517C107.34 385.404 157.863 385.517 157.863 385.517L171.603 379.564H94.1424C86.1548 379.564 79.6792 385.92 79.6792 393.76Z" fill="#251C4C"/>
<path d="M153.737 393.566C153.737 399.955 159.013 405.133 165.522 405.133H216.291V382H165.522C159.013 382 153.737 387.178 153.737 393.566Z" fill="white"/>
<path d="M151.749 393.76C151.749 401.6 158.224 407.956 166.212 407.956H221.238V403.084H166.212C160.969 403.084 156.712 398.89 156.712 393.76C156.712 388.63 160.969 384.42 166.212 384.42H221.238V379.548H166.212C158.224 379.548 151.749 385.904 151.749 393.744V393.76Z" fill="#251C4C"/>
<path d="M140.885 10.3075L142.791 16.7602L149.596 13.2274L145.092 7.41992L140.885 10.3075Z" fill="#251C4C"/>
<path d="M358.063 5.83891L150.385 5.90344C144.977 5.90344 140.589 10.2106 140.589 15.5341L141.23 200.614C141.23 204.776 144.665 208.164 148.905 208.164L360.841 208.099C365.081 208.099 368.533 204.712 368.533 200.55L367.892 15.4535C367.892 10.1461 363.503 5.82278 358.08 5.83891H358.063Z" fill="#251C4C"/>
<path d="M356.485 201.115L352.393 204.615L360.989 209.665L365.443 206.599L362.895 200.76L356.485 201.115Z" fill="#251C4C"/>
<path d="M358.063 5.83937L150.385 5.9039C144.961 5.9039 140.573 10.2272 140.573 15.5346V39.0709L363.865 41.8294L367.957 38.9418L367.859 15.4539C367.859 10.1304 363.471 5.82324 358.047 5.82324L358.063 5.83937Z" fill="#251C4C"/>
<path d="M345.753 25.8751L343.501 42.8457L363.881 41.8294L358.556 23.2617L345.753 25.8751Z" fill="#251C4C"/>
<path d="M353.971 8.66215L146.292 8.72668C140.885 8.72668 136.48 13.05 136.497 18.3574L137.138 203.437C137.138 207.599 140.573 210.987 144.813 210.987L356.748 210.923C360.989 210.923 364.44 207.535 364.44 203.373L363.799 18.2767C363.799 12.9693 359.411 8.64602 353.987 8.66215H353.971Z" fill="white"/>
<path d="M353.971 8.04933L146.292 8.11386C143.515 8.11386 140.901 9.17856 138.929 11.1144C136.957 13.0502 135.872 15.6151 135.872 18.3575L136.513 203.438C136.513 205.615 137.384 207.664 138.946 209.197C140.507 210.745 142.594 211.584 144.813 211.584L356.748 211.52C361.334 211.52 365.048 207.858 365.048 203.357L364.407 18.2608C364.407 12.6308 359.723 8.0332 353.971 8.0332V8.04933ZM356.732 210.326L144.797 210.39C142.906 210.39 141.148 209.664 139.8 208.358C138.469 207.051 137.729 205.309 137.729 203.454L137.088 18.3737C137.088 15.9539 138.042 13.6955 139.784 11.9855C141.526 10.2755 143.827 9.33988 146.276 9.33988L353.954 9.27535C359.017 9.27535 363.158 13.3244 363.158 18.293L363.799 203.389C363.799 207.212 360.627 210.326 356.732 210.326Z" fill="#251C4C"/>
<path d="M353.971 8.66211L146.292 8.72664C140.868 8.72664 136.48 13.0338 136.48 18.3573V41.8936L363.881 41.8291L363.783 18.2928C363.783 12.9693 359.395 8.66211 353.971 8.66211Z" fill="#251C4C"/>
<path d="M340.477 32.0693C343.346 32.0693 345.671 29.787 345.671 26.9717C345.671 24.1563 343.346 21.874 340.477 21.874C337.609 21.874 335.284 24.1563 335.284 26.9717C335.284 29.787 337.609 32.0693 340.477 32.0693Z" fill="white"/>
<path d="M320.492 21.874C323.352 21.874 325.685 24.1486 325.685 26.9717C325.685 29.7947 323.368 32.0693 320.492 32.0693C317.616 32.0693 315.298 29.7947 315.298 26.9717C315.298 24.1486 317.616 21.874 320.492 21.874Z" fill="white"/>
<path d="M300.523 32.0693C303.391 32.0693 305.716 29.787 305.716 26.9717C305.716 24.1563 303.391 21.874 300.523 21.874C297.654 21.874 295.329 24.1563 295.329 26.9717C295.329 29.787 297.654 32.0693 300.523 32.0693Z" fill="white"/>
<path d="M162.826 23.7622L160.262 21.2295L156.581 24.843L152.916 21.2295L150.352 23.7622L154.017 27.3596L150.352 30.957L152.916 33.4897L156.581 29.8761L160.262 33.4897L162.826 30.957L159.161 27.3596L162.826 23.7622Z" fill="white"/>
<path d="M293.685 132.152L296.595 137.572C297.515 139.185 298.008 141.008 298.008 142.863C298.008 145.767 296.857 148.493 294.77 150.542C292.683 152.591 289.905 153.72 286.947 153.72C286.503 153.72 286.059 153.688 285.616 153.639C280.521 153.059 276.346 148.816 275.919 143.767C275.738 141.589 276.215 139.443 277.283 137.556L280.208 132.103C280.899 130.216 280.208 128.313 279.469 127.006H247.814V158.092C248.997 158.737 250.214 159.076 251.331 159.076C251.923 159.076 252.515 158.979 253.041 158.785L258.563 155.93C260.19 155.027 262.047 154.559 263.954 154.559C267.109 154.559 270.117 155.882 272.221 158.205C274.341 160.56 275.311 163.577 274.933 166.722C274.341 171.739 270.018 175.821 264.874 176.24C264.562 176.272 264.25 176.272 263.937 176.272C262.047 176.272 260.19 175.805 258.546 174.901L252.975 172.014C252.482 171.852 251.906 171.755 251.315 171.755C250.197 171.755 248.981 172.094 247.798 172.756V203.842H311.255C319.423 203.842 326.08 197.324 326.08 189.291V127.006H294.409C293.669 128.313 292.979 130.216 293.702 132.136L293.685 132.152Z" fill="white"/>
<path d="M293.866 126.716C293.077 128.103 292.305 130.2 293.143 132.426L296.052 137.863C296.923 139.395 297.383 141.121 297.383 142.847C297.383 145.59 296.299 148.155 294.326 150.107C292.058 152.333 288.919 153.414 285.681 153.043C280.866 152.494 276.921 148.494 276.527 143.735C276.362 141.67 276.806 139.637 277.825 137.847L280.784 132.313C281.573 130.184 280.784 128.087 279.995 126.716L279.814 126.409H247.19V158.463L247.502 158.64C248.784 159.334 250.099 159.705 251.315 159.705C251.989 159.705 252.63 159.592 253.32 159.35L258.859 156.495C260.387 155.64 262.146 155.188 263.937 155.188C266.912 155.188 269.755 156.447 271.744 158.624C273.749 160.851 274.67 163.706 274.308 166.674C273.749 171.401 269.657 175.272 264.808 175.66C262.688 175.837 260.634 175.385 258.826 174.385L253.172 171.465C251.528 170.901 249.441 171.159 247.485 172.24L247.173 172.417V204.455H311.239C319.752 204.455 326.671 197.663 326.671 189.307V126.425H294.014L293.833 126.732L293.866 126.716ZM325.455 127.619V189.291C325.455 196.97 319.078 203.229 311.255 203.229H248.422V173.111C249.408 172.611 250.411 172.353 251.331 172.353C251.841 172.353 252.35 172.433 252.712 172.546L258.267 175.418C260.289 176.531 262.622 177.031 264.94 176.837C270.364 176.402 274.933 172.078 275.557 166.787C275.952 163.464 274.933 160.27 272.681 157.786C270.462 155.35 267.29 153.946 263.954 153.946C261.949 153.946 259.993 154.446 258.283 155.398L252.843 158.205C251.528 158.673 250 158.479 248.439 157.705V127.587H279.107C279.699 128.732 280.208 130.313 279.666 131.797L276.741 137.25C275.606 139.234 275.113 141.509 275.294 143.799C275.738 149.123 280.143 153.591 285.533 154.22C289.149 154.64 292.666 153.43 295.198 150.946C297.4 148.784 298.616 145.896 298.616 142.831C298.616 140.879 298.107 138.96 297.137 137.266L294.277 131.91C293.685 130.329 294.179 128.732 294.787 127.587H325.472L325.455 127.619Z" fill="#251C4C"/>
<path d="M264.135 154.576C262.261 154.576 260.387 155.06 258.744 155.963L253.221 158.802C251.249 159.512 249.31 158.834 247.978 158.108V127.006H216.307C215.551 128.313 214.877 130.217 215.584 132.136L218.493 137.557C219.414 139.154 219.89 140.993 219.89 142.848C219.89 148.833 214.927 153.704 208.829 153.704C208.435 153.704 208.024 153.688 207.629 153.64C202.797 153.14 198.721 149.365 197.932 144.655C197.522 142.17 197.949 139.718 199.198 137.54L202.107 132.088C202.797 130.2 202.107 128.297 201.367 126.99H169.696V189.065C169.696 197.212 176.451 203.826 184.735 203.826H247.962V172.756C249.293 172.014 251.233 171.337 253.156 172.03L258.711 174.902C260.634 175.95 262.82 176.418 265.038 176.241C266.994 176.079 268.852 175.386 270.413 174.305C272.96 172.675 274.785 169.949 275.113 166.9C275.146 166.626 275.146 166.368 275.163 166.094C275.163 166.078 275.163 166.045 275.163 166.029C275.163 165.932 275.163 165.852 275.163 165.755C275.163 165.642 275.163 165.529 275.163 165.416C275.163 162.512 274.012 159.786 271.925 157.737C269.838 155.689 267.044 154.559 264.085 154.559L264.135 154.576Z" fill="#90FFFB"/>
<path d="M264.134 153.978C262.146 153.978 260.174 154.478 258.464 155.43L253.024 158.237C251.413 158.818 249.786 158.334 248.603 157.753V126.409H215.962L215.781 126.716C214.992 128.087 214.22 130.184 215.058 132.426L217.984 137.863C218.855 139.379 219.299 141.105 219.299 142.864C219.299 148.526 214.614 153.123 208.846 153.123C208.468 153.123 208.073 153.107 207.695 153.059C203.142 152.591 199.28 149.026 198.541 144.59C198.146 142.251 198.557 139.928 199.74 137.847L202.682 132.313C203.471 130.184 202.682 128.103 201.91 126.716L201.729 126.409H169.088V189.081C169.088 197.55 176.106 204.455 184.751 204.455H248.603V173.143C249.77 172.562 251.381 172.062 252.893 172.594L258.448 175.466C260.469 176.579 262.787 177.063 265.121 176.886C267.126 176.724 269.098 176.014 270.774 174.853C273.552 173.078 275.409 170.142 275.738 167.013C275.771 166.723 275.771 166.448 275.787 166.174H275.163L275.787 166.029V165.48C275.804 162.415 274.587 159.544 272.385 157.382C270.183 155.221 267.241 154.027 264.118 154.027L264.134 153.978ZM274.571 166.093C274.571 166.351 274.571 166.593 274.522 166.852C274.226 169.642 272.566 172.24 270.084 173.821C268.556 174.869 266.813 175.498 265.022 175.643C262.918 175.805 260.864 175.369 259.023 174.369L253.386 171.465C251.216 170.691 249.096 171.465 247.683 172.24L247.37 172.417V203.245H184.751C176.796 203.245 170.321 196.889 170.321 189.081V127.619H201.006C201.598 128.764 202.107 130.345 201.565 131.829L198.656 137.282C197.341 139.589 196.881 142.186 197.324 144.799C198.162 149.752 202.469 153.753 207.564 154.285C214.499 154.979 220.515 149.623 220.515 142.88C220.515 140.928 220.005 138.992 219.036 137.314L216.159 131.975C215.568 130.378 216.077 128.797 216.669 127.651H247.354V158.495L247.666 158.673C249.688 159.77 251.676 160.028 253.484 159.383L259.023 156.527C260.568 155.672 262.327 155.221 264.102 155.221C266.896 155.221 269.509 156.285 271.481 158.221C273.453 160.157 274.538 162.738 274.538 165.464V166.126L274.571 166.093Z" fill="#251C4C"/>
<path d="M289.248 50.316L269.115 50.2676C288.574 72.1584 307.311 88.7903 325.981 101.841L326.031 82.3537C311.699 71.8519 298.978 60.7855 289.248 50.316Z" fill="white"/>
<path d="M269.115 50.2671L247.88 50.2188L247.831 75.2875H247.748V81.2563C246.401 81.9984 244.527 82.6598 242.604 81.9822L237.032 79.0947C235.11 78.0461 232.924 77.5783 230.705 77.7557C228.733 77.9009 226.892 78.6107 225.33 79.6915C222.766 81.3208 220.959 84.0471 220.63 87.096C220.597 87.3703 220.597 87.6284 220.581 87.9026C220.581 87.9187 220.581 87.951 220.581 87.9671C220.581 88.0639 220.581 88.1446 220.581 88.2414C220.581 88.3543 220.581 88.4672 220.581 88.5801C220.581 91.4839 221.731 94.2263 223.818 96.275C225.906 98.3237 228.683 99.4691 231.642 99.4691C233.532 99.4691 235.389 99.0013 237.032 98.0818L242.555 95.2426C244.527 94.5328 246.466 95.2103 247.798 95.9524L247.765 106.422L247.716 127.006L279.403 127.087C280.159 128.393 280.833 130.232 280.143 132.12L277.201 137.589C276.132 139.476 275.656 141.621 275.837 143.799C275.985 145.735 276.708 147.542 277.809 149.074C279.469 151.591 282.246 153.365 285.353 153.688C285.632 153.72 285.895 153.72 286.175 153.736C286.207 153.736 286.224 153.736 286.24 153.736C286.339 153.736 286.421 153.736 286.52 153.736C286.635 153.736 286.75 153.736 286.865 153.736C289.823 153.736 292.601 152.607 294.705 150.558C296.792 148.51 297.959 145.783 297.959 142.88C297.959 141.025 297.482 139.202 296.545 137.589L293.653 132.168C292.93 130.249 293.62 128.345 294.359 127.022L325.932 127.087L325.998 101.824C307.327 88.7737 288.591 72.1419 269.131 50.251L269.115 50.2671Z" fill="#90FFFB"/>
<path d="M312.11 50.3638L289.248 50.3154C298.978 60.785 311.699 71.8514 326.03 82.3532L326.08 64.1242C326.096 56.5584 319.834 50.38 312.126 50.3638H312.11Z" fill="#90FFFB"/>
<path d="M312.126 49.7507L247.272 49.6055L247.222 74.6743H247.14V80.885C245.546 81.6755 244.1 81.8529 242.9 81.4335L237.345 78.562C235.323 77.4489 233.006 76.965 230.655 77.1424C228.65 77.3037 226.678 77.9974 224.985 79.175C222.208 80.9495 220.35 83.8855 220.005 87.0312C219.972 87.3055 219.972 87.5958 219.956 87.8378L219.923 88.5799C219.923 91.6449 221.139 94.5325 223.342 96.6942C225.544 98.8719 228.486 100.066 231.609 100.066C233.597 100.066 235.553 99.5656 237.279 98.6138L242.736 95.8069C244.346 95.2262 245.973 95.7101 247.14 96.307L247.107 106.405V107.018L247.058 127.603L278.992 127.683C279.798 129.232 279.978 130.652 279.551 131.829L276.625 137.282C275.491 139.266 274.998 141.541 275.179 143.847C275.344 145.815 276.05 147.751 277.25 149.413C279.058 152.139 282.049 153.962 285.254 154.301C285.534 154.333 285.829 154.333 286.059 154.333L286.815 154.365C289.938 154.365 292.864 153.172 295.083 151.01C297.301 148.848 298.518 145.961 298.518 142.896C298.518 140.944 298.008 139.008 297.038 137.314L294.179 131.958C293.587 130.377 294.08 128.78 294.688 127.635L326.507 127.699L326.655 64.1079C326.655 56.2034 320.13 49.7507 312.077 49.7345L312.126 49.7507ZM325.307 126.506L293.981 126.441L293.801 126.748C292.683 128.732 292.42 130.684 293.077 132.458L295.986 137.895C296.858 139.411 297.318 141.137 297.318 142.896C297.318 145.638 296.233 148.203 294.244 150.155C292.272 152.091 289.659 153.155 286.717 153.155H286.174C285.912 153.123 285.649 153.123 285.402 153.091C282.559 152.801 279.913 151.171 278.285 148.719C277.217 147.219 276.56 145.493 276.428 143.734C276.264 141.67 276.708 139.637 277.727 137.846L280.701 132.313C281.326 130.635 281.063 128.764 279.929 126.78L279.748 126.473L248.324 126.393L248.373 106.405V105.809L248.389 95.5811L248.077 95.4036C246.664 94.6293 244.527 93.8711 242.259 94.6938L236.72 97.5491C235.175 98.4041 233.417 98.8558 231.642 98.8558C228.848 98.8558 226.234 97.775 224.246 95.8392C222.273 93.9034 221.189 91.3223 221.189 88.4508V88.2411H220.581L221.205 88.1282V87.9185C221.221 87.6604 221.238 87.4022 221.254 87.1603C221.55 84.3695 223.21 81.7723 225.708 80.1913C227.237 79.1428 228.995 78.5136 230.787 78.3684C232.891 78.2071 234.962 78.6427 236.786 79.6429L242.423 82.5627C244.133 83.1757 246.039 82.9176 248.061 81.8045L248.373 81.6271V75.9003H248.472L248.521 50.8315L312.143 50.9767C319.506 50.9928 325.505 56.897 325.488 64.1241L325.34 126.506H325.307Z" fill="#251C4C"/>
<path d="M480.54 310.52C459.437 275.208 455.115 260.657 434.817 236.653C412.037 209.697 386.71 223.602 380.251 231.265C321.544 300.97 233.482 314.94 224.772 358.432C220.646 379 235.619 426.621 320.59 438.832C332.818 440.591 346.493 441.623 361.778 441.72C488.545 442.591 518.145 370.611 489.169 324.603C485.981 319.554 483.137 314.892 480.524 310.536L480.54 310.52Z" fill="white"/>
<path d="M464.269 280.564C455.312 264.142 448.82 252.269 435.294 236.266C426.27 225.587 416.048 220.183 404.921 220.183H404.888C393.071 220.183 383.407 226.587 379.775 230.878C351.029 264.997 314.493 286.162 285.139 303.165C253.583 321.442 228.65 335.896 224.163 358.303C222.109 368.547 224.64 385.146 237.871 401.052C253.304 419.588 287.309 441.801 361.761 442.317C362.55 442.317 363.339 442.317 364.128 442.317C449.198 442.317 480.393 410.183 491.437 390.921C503.435 369.982 502.778 345.075 489.695 324.281C477.894 305.536 470.334 291.695 464.269 280.564ZM490.369 390.325C479.357 409.538 447.998 441.64 361.778 441.107C287.802 440.591 254.092 418.636 238.824 400.294C225.856 384.711 223.375 368.514 225.363 358.545C229.752 336.67 254.47 322.345 285.764 304.213C315.2 287.162 351.834 265.932 380.711 231.652C384.179 227.539 393.482 221.409 404.872 221.393H404.904C415.653 221.393 425.564 226.651 434.34 237.04C447.785 252.962 454.244 264.787 463.185 281.145C469.266 292.276 476.826 306.133 488.66 324.926C501.512 345.333 502.153 369.789 490.385 390.341L490.369 390.325Z" fill="#251C4C"/>
<path d="M423.986 286.678C418.447 244.59 390.671 249.946 350.881 279.177C311.14 308.359 299.159 322.732 273.043 323.846C246.927 324.975 246.664 339.703 251.381 343.43C277.365 363.981 347.988 367.321 393.942 360.287C417.708 356.641 440.471 330.46 458.517 332.299C458.517 332.299 428.489 320.732 424.002 286.662L423.986 286.678Z" fill="white"/>
<path d="M424.594 286.597C422.474 270.465 417.149 260.835 408.339 257.173C396.079 252.091 377.161 259.125 350.503 278.693C342.022 284.919 334.807 290.469 328.447 295.373C305.092 313.36 293.357 322.378 272.993 323.249C254.487 324.039 250 331.589 248.915 334.815C247.551 338.88 249.014 342.381 250.953 343.913C266.189 355.964 294.228 360.836 315.068 362.82C325.127 363.772 335.777 364.239 346.427 364.239C362.978 364.239 379.544 363.11 393.991 360.9C405.529 359.126 416.623 352.237 427.355 345.575C438.614 338.59 449.231 331.976 458.418 332.912L462.922 333.363L458.714 331.734C458.418 331.621 428.966 319.925 424.594 286.597ZM426.714 344.559C416.097 351.157 405.102 357.98 393.827 359.706C344.898 367.192 276.132 362.271 251.759 342.978C250.082 341.655 248.981 338.558 250.115 335.186C251.101 332.218 255.342 325.217 273.075 324.459C293.833 323.571 305.667 314.457 329.236 296.325C335.596 291.437 342.795 285.887 351.275 279.661C372.132 264.335 388.124 256.77 399.727 256.77C402.735 256.77 405.447 257.27 407.879 258.286C416.146 261.722 421.356 271.288 423.394 286.742C427.076 314.747 448.13 327.814 455.641 331.621C446.798 332.073 437.019 338.138 426.731 344.543L426.714 344.559Z" fill="#251C4C"/>
<path d="M410.854 227.006C411.133 227.668 438.088 293.034 421.176 332.46C411.018 356.109 392.939 357.932 373.792 359.868C361.268 361.126 348.317 362.449 338.094 370.482C326.129 379.887 323.861 396.6 332.309 413.038C338.916 425.911 353.478 439.656 374.466 439.656V438.478C354.201 438.478 340.116 425.105 333.69 412.602C326.951 399.503 326.031 381.662 339.13 371.337C348.991 363.578 361.696 362.287 373.973 361.045C392.726 359.158 412.12 357.19 422.573 332.847C439.649 293.05 412.531 227.297 412.251 226.651L410.854 227.022V227.006Z" fill="#251C4C"/>
<path d="M356.535 319.264C330.797 337.59 317.32 337.751 301.723 337.945C293.061 338.041 283.265 338.17 270.347 341.477C251.545 346.301 244.478 363.997 244.133 378.952C243.722 396.213 252.531 417.474 272.813 423.362L273.322 422.249C253.731 416.571 245.234 395.825 245.628 378.984C245.973 364.449 252.761 347.253 270.824 342.623C283.528 339.364 292.798 339.251 301.755 339.138C317.648 338.945 331.372 338.783 357.537 320.151C397.706 291.533 398.067 228.619 398.067 227.99H396.588C396.588 228.619 396.243 291.017 356.551 319.264H356.535Z" fill="#251C4C"/>
<path d="M485.537 349.108C484.288 340.477 481.888 331.976 478.65 323.7C475.446 315.408 471.534 307.31 467.129 299.406C462.692 291.501 457.777 283.79 452.551 276.208C457.564 283.871 462.264 291.678 466.472 299.631C470.729 307.584 474.509 315.683 477.549 323.958C479.111 328.088 480.376 332.282 481.576 336.492C482.644 340.719 483.63 344.962 484.189 349.237C484.551 351.366 484.682 353.528 484.896 355.657C484.978 357.803 485.142 359.964 485.06 362.11C485.027 366.417 484.616 370.708 483.729 374.935C482.053 383.404 478.552 391.679 473.046 399.052C467.573 406.44 460.16 412.86 451.663 418.152C443.133 423.427 433.535 427.556 423.477 430.702C413.418 433.848 402.899 436.171 392.151 437.284C402.932 436.364 413.55 434.219 423.739 431.235C433.913 428.169 443.643 424.104 452.354 418.861C461.048 413.619 468.575 407.085 474.196 399.6C479.834 392.115 483.45 383.726 485.192 375.128C486.079 370.821 486.474 366.465 486.49 362.126C486.572 359.948 486.392 357.77 486.293 355.609C486.079 353.447 485.931 351.269 485.553 349.124L485.537 349.108Z" fill="#251C4C"/>
<path d="M376.455 313.795L349.599 320.732C349.599 320.732 336.22 301.084 334.413 303.39C324.288 296.067 312.06 296.341 312.06 296.341C312.06 296.341 239.744 291.695 236.079 330.314C232.217 370.999 245.858 414.958 245.858 414.958L253.665 417.797C253.665 417.797 253.665 417.797 253.665 417.781C253.665 417.765 253.665 417.732 253.698 417.7C253.698 417.668 253.731 417.62 253.747 417.571C255.079 414.183 272.089 371.579 284.432 354.754C285.238 353.657 286.191 352.77 287.276 352.092C302.807 342.252 359.378 353.463 380.81 349.253C382.026 349.205 397.837 338.364 397.673 336.896C395.322 316.312 376.438 313.795 376.438 313.795H376.455Z" fill="#251C4C"/>
<path d="M258.842 322.862C242.029 379.355 253.254 417.523 253.649 417.781C253.649 417.781 253.649 417.781 253.649 417.765C253.649 417.765 253.649 417.716 253.681 417.684C253.681 417.652 253.714 417.604 253.731 417.555C255.046 414.603 269.394 382.565 284.416 354.738C285.073 353.528 286.026 352.657 287.259 352.076L393.531 342.075C393.794 340.429 401.025 338.364 400.861 336.88L348.218 326.878C345.424 322.894 273.93 272.03 258.826 322.845L258.842 322.862Z" fill="#251C4C"/>
<path d="M242.818 427.896L249.901 429.864L257.938 414.651L244.445 412.57L242.818 427.896Z" fill="white"/>
<path d="M242.16 428.347L250.214 430.59L258.875 414.184L243.886 411.877L242.16 428.347ZM257.002 415.119L249.589 429.154L243.492 427.46L244.987 413.264L257.002 415.119Z" fill="#251C4C"/>
<path d="M253.205 425.848C253.205 425.848 250.46 428.961 244.921 425.541C244.921 425.541 212.133 426.219 206.232 442.302L258.333 441.221C258.333 441.221 262.343 429.929 253.205 425.864V425.848Z" fill="#251C4C"/>
<path d="M258.579 439.478L222.734 440.22C222.684 436.687 221.862 433.316 220.153 430.138C219.989 429.831 219.529 430.106 219.693 430.412C221.353 433.493 222.158 436.784 222.191 440.22L206.61 440.543C206.265 440.543 206.265 441.091 206.61 441.075L222.191 440.753C222.191 441.156 222.224 441.543 222.191 441.946C222.175 442.285 222.717 442.269 222.734 441.93C222.766 441.527 222.734 441.14 222.734 440.736L258.579 439.994C258.924 439.994 258.924 439.462 258.579 439.462V439.478Z" fill="white"/>
<path d="M236.622 426.105C236.704 426.089 236.786 426.041 236.802 425.928C237.558 422.782 232.808 412.958 228.437 416.233C226.941 417.362 227.04 419.766 227.713 421.411C227.056 422.863 228.272 424.799 229.439 425.654C230.376 426.347 231.461 426.589 232.578 426.622C232.562 426.702 232.578 426.783 232.644 426.847C234.403 428.235 235.34 430.235 235.29 432.429C235.29 432.768 235.816 432.752 235.833 432.429C235.898 430.171 234.929 428.09 233.187 426.622C234.107 426.589 235.044 426.412 235.931 426.234C235.964 426.234 235.981 426.251 236.013 426.267C236.03 426.267 236.046 426.267 236.063 426.267C236.079 426.299 236.096 426.331 236.128 426.363C236.128 426.363 236.128 426.396 236.161 426.396C238.216 427.783 239.317 430.042 239.218 432.477C239.202 432.816 239.744 432.8 239.761 432.477C239.859 429.945 238.692 427.638 236.654 426.138L236.622 426.105ZM231.444 425.992C229.867 425.638 228.026 424.121 228.075 422.363C228.075 422.282 228.124 422.25 228.124 422.185C229.423 424.234 232.447 425.17 234.863 425.912C233.729 426.121 232.562 426.251 231.444 425.992ZM228.322 421.459C228.749 420.766 229.653 420.572 230.491 420.588C231.757 420.621 232.71 421.25 233.614 422.04C234.748 423.024 235.652 424.218 235.882 425.67C233.417 424.863 229.702 423.734 228.322 421.459ZM233.137 420.975C231.806 420.04 229.275 419.507 228.042 420.911C227.713 420.104 227.648 419.185 227.993 418.104C229.308 413.99 233.154 417.556 234.321 419.54C235.29 421.169 236.506 423.202 236.359 425.17C235.931 423.444 234.616 421.992 233.137 420.959V420.975Z" fill="white"/>
<path d="M239.843 409.474C239.268 410.329 239.251 412.523 239.251 412.523C237.164 415.136 239.728 417.072 239.728 417.072C245.776 420.847 255.621 421.137 258.333 421.25C261.045 421.347 259.204 418.782 259.204 418.782C259.204 418.782 261.357 418.556 261.077 415.588C260.798 412.619 240.435 408.619 239.859 409.474H239.843Z" fill="#251C4C"/>
<path d="M385.971 300.632L336.253 296.099C311.222 297.486 260.699 289.097 266.255 333.928C271.3 374.499 292.749 415.038 292.749 415.038L300.983 416.313C300.983 416.313 300.983 416.313 300.983 416.297C300.983 416.28 300.983 416.248 300.999 416.216C300.999 416.184 301.016 416.135 301.016 416.087C301.64 412.506 309.809 367.466 318.552 348.591C319.325 346.93 320.41 345.607 321.774 344.591C333.657 335.734 366.363 349.414 388.403 349.801C388.403 349.801 388.403 349.801 388.42 349.801C420.912 336.751 404.921 307.455 404.921 307.455C398.363 302.664 385.938 300.632 385.938 300.632H385.971Z" fill="#251C4C"/>
<path d="M364.933 346.495C338.834 341.252 307.672 317.361 300.161 336.881C292.732 356.223 294.902 409.345 294.951 410.313C297.992 415.12 300.786 416.249 300.966 416.314C300.966 416.314 300.966 416.314 300.966 416.297C300.966 416.281 300.966 416.249 300.983 416.217C300.983 416.185 300.999 416.136 300.999 416.088C301.065 415.765 301.295 414.829 301.657 413.41C304.73 400.924 317.385 350.867 318.815 350.044C333.048 339.446 363.635 357.513 383.538 350.044C383.538 350.044 386.332 353.448 400.302 342.688C395.257 344.011 384.787 350.496 364.884 346.495H364.933Z" fill="#251C4C"/>
<path d="M292.371 428.331L299.701 428.896L304.549 412.441L290.891 412.99L292.371 428.331Z" fill="white"/>
<path d="M291.812 428.896L300.161 429.541L305.388 411.796L290.234 412.409L291.828 428.896H291.812ZM299.241 428.25L292.929 427.766L291.549 413.57L303.695 413.07L299.224 428.25H299.241Z" fill="#251C4C"/>
<path d="M300.375 425.169C300.375 425.169 297.679 428.331 292.091 424.976C292.091 424.976 259.319 426.153 253.665 442.301L305.733 440.462C305.733 440.462 309.579 429.121 300.375 425.185V425.169Z" fill="#251C4C"/>
<path d="M305.946 438.704L270.117 439.979C270.018 436.446 269.131 433.09 267.389 429.945C267.224 429.638 266.764 429.945 266.928 430.235C268.638 433.3 269.476 436.575 269.575 440.011L253.994 440.559C253.649 440.559 253.665 441.108 254.01 441.092L269.575 440.543C269.575 440.947 269.607 441.334 269.591 441.737C269.575 442.076 270.117 442.06 270.133 441.721C270.15 441.318 270.1 440.93 270.1 440.527L305.93 439.253C306.275 439.253 306.259 438.704 305.913 438.72L305.946 438.704Z" fill="white"/>
<path d="M283.791 425.67C283.873 425.653 283.956 425.605 283.972 425.492C284.679 422.33 279.781 412.571 275.458 415.926C273.979 417.071 274.127 419.491 274.817 421.12C274.193 422.588 275.426 424.508 276.593 425.347C277.546 426.024 278.631 426.266 279.748 426.266C279.732 426.347 279.748 426.428 279.83 426.492C281.605 427.847 282.575 429.832 282.559 432.042C282.559 432.38 283.101 432.364 283.101 432.025C283.134 429.767 282.131 427.686 280.356 426.266C281.277 426.218 282.197 426.041 283.085 425.831C283.117 425.831 283.134 425.847 283.167 425.863C283.183 425.863 283.2 425.863 283.216 425.863C283.232 425.895 283.249 425.928 283.282 425.944C283.282 425.944 283.282 425.976 283.315 425.976C285.386 427.331 286.536 429.573 286.47 432.009C286.47 432.348 287.013 432.332 287.013 431.993C287.078 429.461 285.879 427.17 283.808 425.702L283.791 425.67ZM278.614 425.621C277.02 425.282 275.163 423.814 275.179 422.04C275.179 421.959 275.228 421.927 275.228 421.862C276.56 423.879 279.6 424.782 282.033 425.492C280.899 425.718 279.732 425.863 278.614 425.637V425.621ZM275.426 421.137C275.836 420.443 276.74 420.233 277.579 420.233C278.844 420.233 279.797 420.862 280.718 421.637C281.868 422.605 282.789 423.782 283.035 425.234C280.57 424.46 276.839 423.395 275.409 421.137H275.426ZM280.225 420.572C278.877 419.669 276.33 419.168 275.13 420.588C274.785 419.798 274.702 418.862 275.031 417.781C276.28 413.635 280.175 417.168 281.392 419.12C282.378 420.733 283.627 422.75 283.512 424.734C283.052 423.008 281.72 421.588 280.225 420.572Z" fill="white"/>
<path d="M307.804 412.764C306.932 409.909 286.174 409.909 285.78 410.844C285.386 411.796 285.813 413.958 285.813 413.958C284.284 416.926 287.177 418.33 287.177 418.33C293.866 420.878 303.58 419.265 306.259 418.846C308.938 418.426 306.62 416.265 306.62 416.265C306.62 416.265 308.691 415.636 307.82 412.78L307.804 412.764Z" fill="#251C4C"/>
<path d="M324.107 210.714C313.277 202.841 297.909 215.908 286.355 223.426C280.291 227.362 275.278 229.781 272.5 226.862C268.21 222.361 272.467 211.262 273.831 200.922C274.67 194.598 275.738 189.016 276.313 186.129C280.636 181.305 278.483 172.981 276.165 167.884C275.442 166.287 271.711 163.109 269.509 161.625C268.49 160.931 266.485 162.738 267.422 164.206C268.72 166.271 270.561 168.126 271.662 170.304C272.237 171.433 272.434 172.788 272.401 174.159C272.073 173.659 271.645 173.256 271.07 172.965C269.46 172.207 268.605 173.062 268.145 174.256C267.323 173.433 266.238 172.949 264.923 173.385C263.756 173.772 263.296 174.627 263.148 175.627C261.718 175.692 260.272 176.821 259.927 178.515C259.417 180.999 260.239 183.693 261.932 185.548C261.932 185.548 261.949 185.58 261.965 185.596C261.998 185.645 262.064 185.677 262.096 185.726C262.327 185.968 262.557 186.193 262.82 186.403C263.625 187.113 264.611 187.645 265.663 188.049C254.651 201.744 239.876 245.994 253.78 255.076C275.656 269.353 356.255 233.992 324.107 210.681V210.714Z" fill="white"/>
<path d="M324.486 210.23C314.821 203.212 301.673 212.246 291.105 219.489C289.346 220.699 287.654 221.861 286.027 222.925C280.751 226.345 275.524 229.136 272.96 226.458C270.068 223.425 271.448 216.747 272.895 209.665C273.47 206.826 274.078 203.906 274.456 201.002C275.278 194.775 276.33 189.258 276.905 186.419C282 180.531 278.088 170.578 276.74 167.658C275.886 165.77 271.777 162.431 269.87 161.157C269.18 160.689 268.194 160.866 267.438 161.592C266.682 162.302 266.238 163.496 266.929 164.56C267.487 165.432 268.128 166.287 268.769 167.109C269.64 168.238 270.528 169.384 271.152 170.61C271.448 171.191 271.645 171.9 271.744 172.675C271.629 172.594 271.498 172.53 271.366 172.465C270.561 172.078 269.821 172.013 269.18 172.271C268.704 172.465 268.293 172.82 267.964 173.352C266.994 172.675 265.893 172.513 264.759 172.884C263.658 173.239 262.951 174.014 262.655 175.143C261.045 175.433 259.697 176.772 259.352 178.45C258.826 181.063 259.648 183.967 261.505 186.032C261.554 186.096 261.603 186.145 261.669 186.193C261.916 186.451 262.179 186.693 262.442 186.903C263.083 187.468 263.839 187.952 264.71 188.355C256.032 199.728 245.283 229.184 247.946 245.59C248.718 250.365 250.575 253.753 253.451 255.624C257.084 257.996 262.162 259.044 268.013 259.044C288.706 259.044 318.996 245.978 328.693 232.395C332.802 226.652 335.399 218.15 324.486 210.246V210.23ZM327.674 231.685C314.443 250.22 269.065 264.368 254.125 254.608C251.545 252.93 249.868 249.817 249.145 245.397C246.483 228.959 257.527 199.195 266.14 188.468L266.649 187.822L265.877 187.532C264.825 187.129 263.937 186.613 263.214 185.983C262.968 185.79 262.754 185.58 262.491 185.338L262.392 185.209C260.798 183.435 260.075 180.934 260.535 178.692C260.831 177.208 262.129 176.353 263.181 176.288L263.691 176.256L263.756 175.756C263.888 174.804 264.315 174.272 265.104 174.014C265.367 173.933 265.63 173.885 265.877 173.885C266.518 173.885 267.109 174.175 267.685 174.74L268.358 175.417L268.704 174.53C268.934 173.917 269.229 173.53 269.591 173.401C269.903 173.272 270.298 173.336 270.791 173.562C271.218 173.772 271.58 174.078 271.876 174.53L272.944 176.143L273.01 174.223C273.059 172.642 272.78 171.207 272.221 170.078C271.547 168.755 270.626 167.545 269.723 166.383C269.114 165.593 268.473 164.77 267.948 163.931C267.602 163.399 267.915 162.802 268.276 162.479C268.588 162.189 268.983 162.06 269.164 162.173C271.596 163.818 275.015 166.851 275.606 168.174C278.22 173.901 279.65 181.531 275.853 185.774L275.738 185.903L275.705 186.064C275.13 188.855 274.061 194.501 273.207 200.889C272.829 203.728 272.237 206.648 271.662 209.455C270.084 217.166 268.72 223.829 272.04 227.313C275.376 230.83 281.359 227.426 286.684 223.974C288.311 222.909 290.037 221.732 291.795 220.522C302.577 213.117 314.772 204.745 323.73 211.23C331.734 217.021 333.098 224.119 327.658 231.717L327.674 231.685Z" fill="#251C4C"/>
<path d="M337.568 187.758C327.312 189.129 309.989 201.615 296.857 211.504C288.229 217.989 298.879 257.383 307.146 252.463C315.249 247.623 320.015 240.509 322.678 234.96C324.979 230.185 325.718 226.587 325.718 226.587C325.718 226.587 347.939 186.387 337.568 187.758Z" fill="#251C4C"/>
<path d="M310.597 240.815C310.154 248.785 310.187 250.317 310.252 250.349C310.252 250.349 310.252 250.349 310.269 250.349L318.092 244.139C318.092 244.139 326.573 237.17 326.343 234.831C326.096 232.491 337.995 190.581 337.995 190.581C337.995 190.581 326.951 201.518 322.76 210.165C318.552 218.812 311.173 230.781 310.614 240.815H310.597Z" fill="#251C4C"/>
<path d="M404.477 255.189C404.592 251.172 404.674 247.107 404.674 243.106C404.789 222.264 403.31 202.744 398.494 199.131C397.41 198.292 396.144 197.421 394.747 196.501C392.66 195.098 390.227 193.63 387.483 192.226C383.193 190 378.147 187.951 372.526 186.548C363.865 184.322 353.757 183.596 342.647 186.096C342.647 186.096 342.647 186.128 342.614 186.128C339.918 186.725 337.174 187.5 334.38 188.548C333.722 188.774 333.065 189.032 332.374 189.274C322.99 192.984 324.338 213.036 325.85 229.862C326.54 237.67 327.247 244.768 326.967 249.204C326.852 250.688 326.688 252.188 326.392 253.64C324.272 266.029 317.287 277.628 315.725 286.646C316.153 287.968 334.856 298.486 345.276 302.326C363.372 308.988 393.958 314.183 401.798 312.731C405.003 312.134 407.057 311.295 407.55 310.295C409.062 307.085 403.852 275.934 404.477 255.205V255.189Z" fill="white"/>
<path d="M404.477 255.189C404.592 251.172 404.674 247.107 404.674 243.106C404.789 222.264 403.31 202.744 398.494 199.131C397.41 198.292 396.144 197.421 394.747 196.501C392.66 195.098 390.227 193.63 387.483 192.226C383.193 190 378.147 187.951 372.526 186.548C363.865 184.322 353.757 183.596 342.647 186.096C342.647 186.096 342.647 186.128 342.614 186.128C339.918 186.725 337.174 187.5 334.38 188.548C333.722 188.774 333.065 189.032 332.375 189.274C322.99 192.984 324.338 213.036 325.85 229.862C326.54 237.67 309.661 286.194 311.715 287.113C312.142 288.436 336.746 299.761 350.7 305.375C368.582 312.569 393.958 314.183 401.798 312.731C405.003 312.134 407.057 311.295 407.55 310.295C409.062 307.085 403.836 275.934 404.477 255.205V255.189Z" fill="#251C4C"/>
<path d="M350.881 184.806C350.881 184.806 348.711 188.71 350.881 189.13C355.647 190.065 362.534 184.806 362.534 184.806V171.046L350.881 175.789V184.806Z" fill="white"/>
<path d="M350.256 184.645C349.895 185.338 348.859 187.484 349.484 188.79C349.714 189.29 350.158 189.613 350.749 189.726C351.177 189.807 351.621 189.855 352.081 189.855C356.88 189.855 362.649 185.5 362.912 185.29L363.158 185.112V170.158L350.273 175.401V184.661L350.256 184.645ZM351.423 185.096L351.505 176.208L361.926 171.965V184.515C360.693 185.403 354.99 189.355 351.012 188.548C350.749 188.5 350.667 188.387 350.618 188.29C350.306 187.645 350.914 186.048 351.423 185.096Z" fill="#251C4C"/>
<path d="M348.744 152.672C348.744 152.672 343.814 160.883 342.154 168.739C340.97 174.321 350.914 182.516 360.068 175.208C369.223 167.9 367.777 155.592 367.777 155.592L348.744 152.688V152.672Z" fill="white"/>
<path d="M368.319 155.043L348.416 151.994L348.202 152.349C348.005 152.688 343.205 160.738 341.529 168.594C340.921 171.481 342.893 174.934 346.345 176.998C348.235 178.128 350.273 178.692 352.327 178.692C355.105 178.692 357.915 177.676 360.43 175.659C369.749 168.223 368.417 156.011 368.352 155.495L368.302 155.043H368.319ZM359.674 174.724C355.713 177.886 350.979 178.353 347.002 175.966C344.027 174.191 342.236 171.191 342.745 168.836C344.175 162.077 348.12 154.962 349.056 153.317L367.185 156.092C367.333 158.35 367.481 168.497 359.674 174.724Z" fill="#251C4C"/>
<path d="M404.477 255.189C404.592 251.172 404.674 247.106 404.674 243.106C403.08 239.508 401.075 236.024 398.642 232.346C391.887 222.118 392.068 194.92 387.647 198.453C371.951 211.004 368.533 236.314 378.114 249.913C384.672 259.157 392.463 261.561 394.057 273.546C395.207 282.145 398.971 304.181 401.798 312.714C405.003 312.118 407.057 311.279 407.55 310.279C409.062 307.068 403.836 275.918 404.477 255.189Z" fill="#251C4C"/>
<path d="M361.285 147.09C358.786 146.396 356.732 145.864 354.546 144.299C353.248 143.379 352.344 142.46 350.782 141.944C344.997 140.008 338.456 143.218 341.94 149.622C345.326 155.865 355.253 157.14 362.714 157.785C362.517 158.527 362.419 159.318 362.271 159.914C361.646 162.592 359.871 165.77 360.66 168.577C361.186 170.449 362.994 171.642 364.966 171.126C366.248 170.787 366.774 169.997 367.119 169.077C370.751 164.722 371.82 156.188 369.026 151.768C367.251 148.961 364.358 147.961 361.268 147.106L361.285 147.09Z" fill="#251C4C"/>
<path d="M333.722 304.101L375.403 292.631L331.865 290.05L333.722 304.101Z" fill="white"/>
<path d="M375.452 292.034L331.898 289.453C331.717 289.42 331.536 289.517 331.405 289.646C331.273 289.775 331.224 289.953 331.24 290.13L333.114 304.181C333.147 304.358 333.229 304.504 333.394 304.6C333.492 304.665 333.607 304.697 333.739 304.697C333.788 304.697 333.854 304.697 333.903 304.681L375.583 293.211C375.879 293.131 376.06 292.856 376.027 292.566C375.994 292.276 375.748 292.05 375.452 292.034ZM334.248 303.326L332.572 290.695L371.721 293.018L334.248 303.326Z" fill="#251C4C"/>
<path d="M333.722 304.101V309.263L375.633 296.68L375.403 292.631L333.722 304.101Z" fill="white"/>
<path d="M375.764 292.147C375.616 292.034 375.419 292.018 375.238 292.05L333.558 303.52C333.295 303.6 333.114 303.826 333.114 304.1V309.262C333.114 309.456 333.196 309.633 333.344 309.746C333.443 309.827 333.591 309.859 333.706 309.859C333.772 309.859 333.821 309.859 333.887 309.827L375.814 297.244C376.093 297.164 376.257 296.906 376.257 296.631L376.027 292.582C376.027 292.405 375.929 292.227 375.764 292.13V292.147ZM334.33 308.44V304.552L374.827 293.405L374.992 296.228L334.33 308.424V308.44Z" fill="#251C4C"/>
<path d="M243.623 303.358L333.722 309.263V304.1L243.59 298.761L243.623 303.358Z" fill="white"/>
<path d="M333.771 303.503L243.639 298.164C243.475 298.147 243.311 298.212 243.179 298.325C243.048 298.438 242.982 298.599 242.982 298.76V303.358C242.998 303.681 243.261 303.939 243.574 303.955L333.673 309.859C333.673 309.859 333.706 309.859 333.722 309.859C333.87 309.859 334.034 309.795 334.15 309.698C334.281 309.585 334.347 309.424 334.347 309.262V304.1C334.347 303.777 334.1 303.519 333.788 303.487L333.771 303.503ZM333.098 308.617L244.231 302.793V299.406L333.114 304.681V308.633L333.098 308.617Z" fill="#251C4C"/>
<path d="M323.467 253.01L240.582 248.09C238.347 247.961 236.539 249.865 236.835 252.042L243.607 298.76L333.739 304.1L326.786 256.043C326.556 254.382 325.176 253.107 323.467 252.994V253.01Z" fill="#90FFFB"/>
<path d="M323.499 252.398L240.615 247.477C239.333 247.397 238.166 247.881 237.312 248.768C236.457 249.671 236.063 250.881 236.227 252.107L242.998 298.825C243.048 299.115 243.278 299.325 243.574 299.341L333.706 304.681H333.739C333.903 304.681 334.067 304.616 334.199 304.487C334.33 304.358 334.38 304.165 334.363 303.987L327.427 255.947C327.164 253.995 325.537 252.494 323.532 252.382L323.499 252.398ZM244.132 298.18L237.443 251.962C237.328 251.107 237.608 250.252 238.216 249.607C238.824 248.962 239.678 248.655 240.55 248.687L323.434 253.608C324.847 253.688 325.998 254.753 326.178 256.14L333.016 303.455L244.132 298.18Z" fill="#251C4C"/>
<path d="M395.487 198.679C389.932 194.243 381.434 196.34 378.969 202.954C377.194 207.697 376.142 213.762 377.424 220.957C378.739 228.458 382.947 235.137 388.781 240.138C391.181 242.186 393.958 244.638 396.588 247.107C402.488 252.672 405.841 274.176 404.691 276.047C398.379 286.388 366.643 283.871 366.626 283.855C365.689 283.613 364.654 283.516 363.898 283.387C361.811 283.032 359.657 282.887 357.685 282.08C355.762 281.08 354.152 279.467 352.755 277.838C351.571 276.434 350.092 273.531 347.758 274.45C345.556 275.321 345.687 278.273 346.493 280.016C346.624 280.29 346.821 280.548 346.986 280.806C346.69 280.854 346.394 280.854 346.082 280.951C343.6 280.79 341.118 280.967 338.867 281.709C336.073 282.629 330.6 286.065 332.243 289.598C332.753 290.695 334.117 291.066 335.004 290.114C336.746 288.243 338.686 286.549 340.921 285.5C340.428 286.807 340.625 288.452 341.94 289.791C342.252 290.114 342.68 290.421 343.156 290.662C343.189 291.179 343.321 291.695 343.748 292.114C344.093 292.469 344.537 292.679 345.013 292.824C344.701 293.663 345.063 294.744 346.197 294.905C348.596 295.276 350.897 294.986 353.067 294.099C353.543 294.324 354.037 294.534 354.579 294.695C357.028 295.389 359.542 294.954 361.942 294.26C363.47 294.018 364.933 293.55 365.87 293.131C365.87 293.131 419.844 308.875 432.006 292.13C444.202 275.321 439.024 249.236 423.772 229.668C423.345 229.136 406.137 207.229 395.47 198.695L395.487 198.679Z" fill="white"/>
<path d="M424.15 229.12C419.943 223.796 405.43 205.858 395.881 198.211C393.071 195.953 389.291 195.179 385.773 196.13C382.306 197.066 379.627 199.47 378.41 202.744C376.224 208.568 375.698 214.73 376.833 221.054C378.114 228.362 382.223 235.298 388.387 240.589C390.326 242.251 393.252 244.8 396.177 247.542C401.929 252.979 405.102 274.063 404.181 275.741C398.166 285.613 367.021 283.29 366.807 283.274C366.133 283.097 365.426 283 364.802 282.903C364.522 282.871 364.259 282.823 364.013 282.79C363.487 282.693 362.961 282.629 362.451 282.548C360.857 282.322 359.345 282.097 357.997 281.548C356.009 280.516 354.415 278.806 353.264 277.451C353.05 277.209 352.837 276.902 352.607 276.596C351.473 275.063 349.911 272.966 347.577 273.885C346.723 274.224 346.082 274.87 345.72 275.741C345.096 277.289 345.474 279.144 345.983 280.258C345.983 280.274 346.016 280.306 346.016 280.322C343.288 280.161 340.839 280.435 338.719 281.129C336.648 281.806 332.933 283.887 331.75 286.581C331.257 287.71 331.241 288.807 331.75 289.84C332.095 290.582 332.769 291.114 333.541 291.227C334.281 291.34 334.988 291.082 335.514 290.517C337.141 288.775 338.636 287.517 340.116 286.63C340.05 287.904 340.543 289.162 341.546 290.179C341.825 290.469 342.203 290.743 342.614 291.001C342.696 291.614 342.943 292.114 343.337 292.518C343.616 292.792 343.945 293.018 344.34 293.179C344.29 293.647 344.405 294.131 344.635 294.518C344.948 295.034 345.49 295.373 346.131 295.47C348.498 295.841 350.848 295.583 353.083 294.728C353.478 294.905 353.938 295.099 354.447 295.244C357.225 296.018 360.035 295.421 362.09 294.825C363.405 294.615 364.835 294.212 365.969 293.744C367.777 294.26 380.498 297.777 394.353 299.471C399.513 300.1 404.198 300.422 408.405 300.422C420.6 300.422 428.703 297.761 432.565 292.437C444.202 276.402 440.816 250.414 424.331 229.249L424.2 229.088L424.15 229.12ZM431.53 291.776C419.762 307.972 366.61 292.711 366.067 292.55L365.837 292.485L365.624 292.582C364.802 292.953 363.388 293.421 361.778 293.679C359.805 294.244 357.225 294.808 354.743 294.115C354.217 293.97 353.741 293.744 353.33 293.566L353.083 293.453L352.82 293.55C350.717 294.405 348.514 294.663 346.279 294.324C345.983 294.276 345.786 294.163 345.654 293.937C345.506 293.695 345.474 293.34 345.589 293.034L345.802 292.437L345.178 292.26C344.734 292.131 344.405 291.953 344.175 291.711C343.912 291.453 343.781 291.13 343.764 290.663V290.324L343.436 290.162C343.008 289.937 342.63 289.662 342.367 289.388C341.348 288.34 341.02 286.984 341.48 285.726L342.006 284.323L340.642 284.968C338.636 285.92 336.697 287.42 334.544 289.727C334.232 290.066 333.887 290.098 333.673 290.066C333.311 290.001 332.983 289.743 332.802 289.372C332.457 288.646 332.473 287.904 332.835 287.097C333.804 284.887 337.075 282.968 339.064 282.306C341.069 281.645 343.419 281.403 346.049 281.58H346.147L346.246 281.564C346.394 281.516 346.558 281.5 346.706 281.484C346.838 281.484 346.969 281.451 347.084 281.435L347.939 281.274L347.495 280.532C347.429 280.419 347.364 280.322 347.282 280.209C347.183 280.064 347.101 279.935 347.035 279.79C346.591 278.822 346.345 277.338 346.788 276.225C347.019 275.66 347.413 275.257 347.972 275.031C349.32 274.499 350.306 275.644 351.538 277.322C351.785 277.66 352.031 277.983 352.245 278.241C353.478 279.693 355.171 281.516 357.406 282.661C358.951 283.29 360.611 283.532 362.205 283.774C362.714 283.855 363.224 283.919 363.75 284.016C363.996 284.065 364.276 284.097 364.572 284.145C365.163 284.226 365.821 284.323 366.511 284.5C366.823 284.532 398.659 287.097 405.184 276.402C406.515 274.224 403.096 252.479 396.982 246.703C394.04 243.945 391.099 241.38 389.143 239.718C383.193 234.621 379.216 227.926 377.983 220.893C376.882 214.779 377.391 208.826 379.495 203.196C380.58 200.308 382.946 198.163 386.02 197.34C389.159 196.501 392.528 197.179 395.027 199.195C404.724 206.955 420.124 226.135 423.098 229.91L423.23 230.072C439.402 250.833 442.772 276.225 431.448 291.824L431.53 291.776Z" fill="#251C4C"/>
<path d="M385.987 195.485C377.556 197.405 375.452 213.456 376.52 220.102C378.87 234.717 394.155 249.43 396.571 251.704C411.741 247.703 424.282 238.847 430.001 226.184C417.543 211.649 399.497 192.404 385.987 195.469V195.485Z" fill="#251C4C"/>
<path d="M272.484 307.118L271.514 306.359C271.432 306.472 262.721 317.377 265.63 334.025C268.506 350.431 274.752 378.146 274.818 378.42L276.017 378.162C275.952 377.888 269.706 350.189 266.846 333.816C264.036 317.732 272.385 307.214 272.484 307.101V307.118Z" fill="white"/>
<path d="M353.856 305.923L353.396 307.052C353.576 307.133 368.187 312.779 388.173 312.779C394.254 312.779 400.845 312.263 407.665 310.891L407.419 309.714C378.558 315.489 354.102 306.036 353.856 305.939V305.923Z" fill="white"/>
<path d="M377.572 208.714C379.281 199.712 386.201 196.05 386.266 196.018L385.691 194.953C385.379 195.114 378.197 198.889 376.356 208.472C374.121 220.183 380.761 234.847 396.111 252.108L397.032 251.318C382.174 234.605 375.435 219.893 377.556 208.73L377.572 208.714Z" fill="white"/>
<path d="M329.285 192.388L328.89 191.92L328.496 191.452C328.151 191.743 319.9 198.711 325.192 229.862L322.037 245.51L323.253 245.752L326.425 229.991V229.878V229.765C321.248 199.389 329.186 192.436 329.268 192.372L329.285 192.388Z" fill="white"/>
<path d="M87.2231 419.265C86.8286 421.588 86.2205 430.493 87.4532 431.67C88.6365 432.816 99.7469 435.3 100.01 433.042C100.224 431.09 102.574 420.152 101.423 418.749C100.24 417.281 87.371 418.507 87.2395 419.265H87.2231Z" fill="white"/>
<path d="M87.8148 418.329C87.256 418.474 86.7136 418.652 86.615 419.152C86.4671 420.071 85.3166 430.46 87.0095 432.089C88.0614 433.09 93.896 434.541 97.4789 434.541C98.3007 434.541 98.9909 434.461 99.484 434.299C100.322 434.009 100.552 433.477 100.602 433.106C100.651 432.67 100.815 431.767 101.013 430.605C102.262 423.507 102.771 419.458 101.884 418.361C100.503 416.667 90.1651 417.732 87.7984 418.329H87.8148ZM99.8127 430.396C99.5991 431.573 99.4347 432.509 99.3854 432.961C99.3854 432.993 99.3032 433.073 99.0896 433.154C96.7722 433.961 88.7188 432.025 87.8806 431.234C87.0588 430.444 87.3053 422.781 87.7984 419.587C89.5734 418.861 99.9771 418.2 100.93 419.119C101.621 420.055 100.306 427.573 99.8127 430.396Z" fill="#251C4C"/>
<path d="M117.399 431.687C109.378 430.735 100.355 430.864 100.355 430.864C100.355 430.864 92.3674 435.139 86.5492 428.944C86.5492 428.944 80.5996 437.285 84.8564 443.85C84.8564 443.85 115.837 445.286 125.189 443.85C125.189 443.85 125.436 432.639 117.415 431.687H117.399Z" fill="#251C4C"/>
<path d="M18.72 419.265C18.3256 421.588 17.7175 430.492 18.9337 431.67C20.1171 432.815 29.7976 436.51 30.0605 434.267C30.2742 432.315 32.2136 420.2 31.0631 418.797C29.8797 417.345 18.8515 418.507 18.72 419.265Z" fill="white"/>
<path d="M19.4432 418.281C18.6871 418.474 18.1941 418.684 18.1119 419.168C17.8489 420.7 16.9121 430.573 18.5063 432.106C19.4925 433.057 25.6558 435.574 28.6963 435.574C29.0908 435.574 29.4524 435.526 29.7153 435.429C30.4549 435.171 30.6193 434.622 30.6522 434.332C30.685 434.009 30.7672 433.428 30.8823 432.654C32.1807 423.282 32.345 419.426 31.5397 418.426C30.1755 416.764 21.4812 417.764 19.4267 418.297L19.4432 418.281ZM29.6825 432.477C29.5674 433.267 29.4852 433.864 29.4524 434.187C29.4524 434.203 29.4524 434.235 29.3209 434.283C27.5952 434.88 20.3964 432.202 19.3774 431.235C18.5557 430.444 18.8022 422.749 19.2952 419.571C20.9224 418.813 29.7811 418.248 30.5864 419.168C31.0959 419.878 30.8001 424.346 29.6825 432.477Z" fill="#251C4C"/>
<path d="M64.8051 229.942C62.7342 232.265 66.6623 252.946 72.0695 266.658C78.3643 282.531 86.089 301.051 86.8779 310.665C88.3407 328.555 86.9929 364.61 85.5466 382.5C85.4644 383.694 85.4644 425.249 85.4644 425.249L102.59 426.863C111.909 399.568 129.725 338.331 129.725 311.149C129.725 283.967 127.326 238.669 117.152 217.182C107.472 196.743 69.2919 224.973 64.8051 229.974V229.942Z" fill="#251C4C"/>
<path d="M92.8605 285.71C89.7049 280.161 88.1435 273.918 88.6037 267.578C88.8666 264.11 91.0526 259.738 89.8528 256.27C88.3736 251.898 75.028 237.089 71.6258 239.331C67.517 242.058 69.5878 252.559 67.9279 257.447C74.2226 273.337 86.1055 301.051 86.878 310.666C88.3407 328.556 85.3166 364.466 84.3305 382.372C83.3443 400.214 85.4645 425.234 85.4645 425.234L96.0325 426.234C95.0628 419.701 96.0325 405.15 96.3941 398.52C97.0844 386.953 100.01 375.661 102.755 364.449C107.061 346.656 111.186 327.798 106.058 309.714C103.396 300.422 97.5939 293.953 92.8769 285.742L92.8605 285.71Z" fill="#251C4C"/>
<path d="M39.7739 210.923C36.6512 210.552 34.3831 211.149 33.3805 212.762C30.1756 218.021 27.661 222.893 25.7051 227.474C12.9676 257.173 23.7 275.111 23.4699 313.747C23.4699 315.973 23.437 318.264 23.3877 320.522C22.9768 336.493 27.3651 356.157 22.6974 372.837C13.5265 405.553 17.4052 425.234 17.4052 425.234L32.608 426.847C40.5464 401.1 61.7481 357.093 64.8709 330.088C69.7029 288.146 75.5539 243.219 75.8169 232.168C75.8498 230.394 75.8826 229.442 75.8826 229.442C65.4132 216.94 47.6794 211.842 39.7739 210.923Z" fill="#251C4C"/>
<path d="M201.68 101.21C199.773 100.968 195.779 103.598 194.103 104.743C190.619 107.147 187.299 110.551 185.935 114.551C185.655 114.358 185.376 114.164 185.08 114.003C185.31 113.39 185.655 112.809 185.967 112.309C186.822 110.986 185.031 109.244 183.814 110.422C182.631 111.567 181.661 112.793 181.809 114.519C181.842 114.793 183.535 123.263 184.603 125.94C183.305 127.957 181.974 132.474 180.659 137.539C180.363 138.652 180.084 139.765 179.788 140.911V140.943C177.372 150.267 174.972 160.027 172.523 158.978C171.093 158.317 167.313 152.913 162.317 145.734C162.021 145.299 161.676 144.847 161.347 144.395C160.821 143.653 160.328 142.911 159.753 142.137C159.72 142.072 159.671 142.024 159.638 141.959C149.612 127.65 136.628 113.6 126.553 109.905C116.577 106.276 128.903 146.509 128.903 146.509C128.903 146.509 128.821 150.251 130.038 155.494C131.204 160.64 133.423 164.189 138.37 169.722C138.551 169.916 138.748 170.125 138.929 170.351C140.063 171.577 141.312 172.819 142.693 174.078C143.712 174.965 144.764 175.82 145.898 176.707C146.572 177.223 147.295 177.74 148.018 178.224C154.954 182.999 164.371 186.983 177.027 187.806C189.994 188.629 195.516 172.868 196.207 152.461C196.47 143.54 195.845 133.748 194.547 124.069C195.319 123.65 196.141 123.021 197.308 121.988C200.858 119.262 199.56 116.019 198.557 116.632C200.25 114.777 199.675 112.341 198.442 112.6C199.527 110.744 197.768 106.986 195.138 109.067C196.223 107.421 199.74 104.937 201.696 104.034C203.406 103.243 203.323 101.404 201.696 101.194L201.68 101.21Z" fill="white"/>
<path d="M201.762 100.613C200.233 100.42 197.604 101.597 193.741 104.259C191.851 105.55 188.827 107.985 186.773 111.341C186.707 110.744 186.362 110.212 185.935 109.873C185.129 109.244 184.094 109.292 183.354 110.002C182.122 111.196 181.004 112.583 181.168 114.583C181.201 114.858 182.779 122.843 183.897 125.892C182.549 128.166 181.25 132.764 180.034 137.41L179.919 137.845C179.673 138.813 179.41 139.797 179.163 140.814L178.818 142.136C177.043 149.009 174.824 157.558 173.033 158.413C172.901 158.478 172.835 158.462 172.77 158.43C171.438 157.817 167.05 151.493 162.826 145.395C162.662 145.137 162.465 144.879 162.267 144.605L161.413 143.411C161.035 142.862 160.657 142.314 160.295 141.862C160.262 141.798 160.229 141.733 160.131 141.604C148.297 124.714 135.806 112.648 126.75 109.324C125.14 108.744 124.137 109.228 123.578 109.744C118.631 114.309 127.145 142.879 128.279 146.573C128.279 147.218 128.295 150.767 129.429 155.606C130.58 160.656 132.716 164.318 137.894 170.093L138.107 170.319C138.222 170.432 138.337 170.561 138.469 170.722C139.554 171.916 140.803 173.142 142.282 174.497C143.268 175.352 144.32 176.223 145.52 177.159C146.194 177.675 146.933 178.207 147.673 178.691C155.956 184.386 165.818 187.66 176.994 188.386C177.339 188.402 177.668 188.419 177.996 188.419C181.415 188.419 184.422 187.273 186.986 184.999C194.432 178.385 196.453 163.656 196.831 152.461C197.094 143.975 196.535 134.28 195.221 124.375C195.977 123.924 196.749 123.278 197.702 122.456C200.546 120.278 200.661 117.665 199.839 116.519C199.773 116.422 199.691 116.326 199.609 116.261C200.398 114.971 200.381 113.551 199.905 112.744C199.74 112.47 199.543 112.277 199.297 112.147C199.609 110.873 199.165 109.26 198.179 108.421C197.85 108.147 197.472 107.969 197.094 107.905C198.524 106.63 200.579 105.259 201.992 104.598C203.11 104.082 203.718 103.114 203.57 102.162C203.438 101.339 202.764 100.742 201.795 100.629L201.762 100.613ZM201.417 103.501C199.51 104.388 195.812 106.937 194.612 108.76L192.492 111.97L195.516 109.566C196.223 109.002 196.831 108.937 197.341 109.357C198.097 110.002 198.376 111.486 197.9 112.309L197.209 113.503L198.573 113.212C198.573 113.212 198.705 113.18 198.82 113.373C199.116 113.874 199.099 115.148 198.097 116.245L195.122 119.375L198.754 117.164C198.754 117.164 199.001 117.455 199.034 117.939C199.066 118.374 199.001 119.955 196.913 121.552C195.845 122.488 195.023 123.133 194.267 123.553L193.889 123.746L193.939 124.166C195.286 134.135 195.862 143.927 195.599 152.461C195.056 168.173 191.786 179.127 186.148 184.144C183.601 186.402 180.544 187.451 177.076 187.225C166.13 186.499 156.466 183.321 148.379 177.739C147.656 177.255 146.95 176.755 146.292 176.255C145.125 175.336 144.073 174.481 143.12 173.658C141.69 172.335 140.474 171.141 139.439 170.012C139.307 169.851 139.176 169.706 139.044 169.56L138.847 169.351C133.752 163.672 131.763 160.285 130.646 155.397C129.462 150.315 129.528 146.589 129.528 146.557V146.46L129.495 146.363C126.816 137.603 120.669 114.132 124.433 110.679C124.614 110.502 124.893 110.325 125.37 110.325C125.633 110.325 125.945 110.373 126.323 110.518C136.727 114.325 150.089 129.457 159.079 142.266C159.112 142.33 159.145 142.378 159.243 142.524C159.654 143.072 160.032 143.604 160.394 144.137L161.265 145.363C161.446 145.621 161.626 145.863 161.807 146.105C167.806 154.735 170.781 158.881 172.277 159.575C172.704 159.768 173.164 159.752 173.592 159.543C175.745 158.51 177.47 152.396 180.034 142.475L180.379 141.12C180.626 140.12 180.889 139.152 181.135 138.184L181.25 137.749C182.434 133.232 183.814 128.36 185.129 126.311L185.294 126.053L185.179 125.763C184.176 123.23 182.483 114.987 182.417 114.519C182.302 113.099 183.058 112.051 184.242 110.889C184.62 110.518 184.998 110.696 185.179 110.857C185.458 111.067 185.737 111.567 185.441 112.035C185.129 112.518 184.751 113.164 184.505 113.841L184.324 114.309L184.768 114.567C185.047 114.729 185.31 114.89 185.573 115.083L186.247 115.584L186.51 114.793C188.088 110.179 192.164 106.856 194.448 105.291C199.099 102.097 200.94 101.775 201.598 101.855C202.008 101.904 202.271 102.097 202.304 102.388C202.354 102.726 202.107 103.227 201.417 103.549V103.501Z" fill="#251C4C"/>
<path d="M127.145 107.84C119.683 105.856 117.842 127.457 118.401 143.33C118.631 149.46 119.042 154.235 119.371 155.687C119.552 156.397 119.864 157.139 120.357 157.897C121.327 159.478 122.921 161.156 124.844 162.882C126.208 164.076 127.753 165.35 129.364 166.608C133.588 169.899 138.288 173.222 141.493 176.271C157.813 167.947 164.207 153.413 163.418 140.152C152.603 127.44 139.948 111.228 127.145 107.84Z" fill="#251C4C"/>
<path d="M37.2264 256.899C36.1252 249.171 37.7523 241.767 39.0014 234.266C39.6753 230.007 40.2505 225.716 40.1354 221.312C40.0204 217.698 25.7051 220.586 25.7051 226.522C12.9676 256.221 23.6835 275.095 23.4534 313.731C23.4534 315.957 23.4206 318.248 23.3713 320.506C22.9932 336.477 22.4016 354.641 19.7555 371.741C13.3949 412.877 17.3887 425.218 17.3887 425.218L20.8566 425.54C20.7745 416.781 20.9881 404.391 21.9414 395.696C23.4534 381.968 27.3651 369.079 32.1971 356.157C39.9547 335.331 45.1647 314.747 43.6855 292.34C42.8802 280.144 38.9357 268.836 37.2099 256.882L37.2264 256.899Z" fill="#251C4C"/>
<path d="M129.265 138.475L120.373 157.898C121.343 159.479 125.058 162.963 126.98 164.673C130.021 155.478 135.33 144.799 136.612 140.927C141.526 126.086 138.617 115.891 138.617 115.891L129.249 138.475H129.265Z" fill="#251C4C"/>
<path d="M76.3428 98.5492C72.7927 99.0654 69.9001 100.033 67.9114 101.437C67.4676 101.759 67.0074 102.147 66.5144 102.647C60.2196 108.97 49.1421 130.377 41.1544 152.494C33.9557 172.417 22.0564 218.957 22.2865 222.57C22.5495 226.523 43.9813 236.783 71.4779 235.798C92.6139 235.056 120.669 223.474 122.625 221.135C124.745 210.939 112.599 188.597 117.004 174.933C118.401 170.61 121.754 164.109 125.337 156.962C133.094 141.54 142.101 124.731 139.471 114.697C127.26 104.179 96.3119 95.3874 76.3428 98.5653V98.5492Z" fill="#251C4C"/>
<path d="M120.587 95.758L108.721 90.9346V100.759C108.721 100.759 112.994 110.325 120.587 109.357C122.822 109.067 120.587 104.227 120.587 104.227V95.7741V95.758Z" fill="white"/>
<path d="M121.195 95.3547L108.096 90.0312V100.759L108.146 101.001C108.31 101.388 112.271 110.035 119.486 110.035C119.864 110.035 120.258 110.019 120.653 109.954C121.212 109.889 121.639 109.599 121.902 109.147C122.707 107.728 121.557 104.921 121.195 104.098V95.3547ZM120.834 108.551C120.784 108.631 120.702 108.728 120.505 108.744C113.914 109.599 109.822 101.646 109.329 100.614V91.838L119.963 96.1613V104.227L120.012 104.469C120.587 105.727 121.228 107.841 120.817 108.551H120.834Z" fill="#251C4C"/>
<path d="M75.7675 141.734C66.3664 150.429 58.9869 152.945 58.9869 152.945L57.2448 166.867C57.2448 166.867 68.5688 163.189 78.6602 148.041C82.8019 141.815 86.1548 129.006 84.0346 118.343C84.0346 118.343 85.1686 133.039 75.7675 141.734Z" fill="#251C4C"/>
<path d="M123.496 72.2212L103.938 73.7699C103.938 73.7699 101.505 86.1752 110.249 94.2734C118.993 102.388 128.986 93.4829 128.213 87.7239C127.112 79.6257 123.48 72.2051 123.48 72.2051L123.496 72.2212Z" fill="white"/>
<path d="M124.055 71.9472L123.874 71.5762L103.428 73.1894L103.346 73.641C103.248 74.1573 100.947 86.4658 109.838 94.7092C112.287 96.9676 115.048 98.1291 117.859 98.1291C119.486 98.1291 121.129 97.7419 122.707 96.9353C126.586 94.9834 129.281 90.9021 128.838 87.6434C127.737 79.5291 124.088 72.0279 124.055 71.9472ZM122.132 95.8706C119.897 96.9999 115.41 98.2259 110.677 93.838C103.215 86.9175 104.152 76.6093 104.464 74.3347L123.102 72.8506C123.841 74.4476 126.668 80.9165 127.605 87.8048C127.983 90.5956 125.567 94.1284 122.132 95.8706Z" fill="#251C4C"/>
<path d="M104.941 75.9801C104.941 75.9801 104.891 75.9801 104.875 75.9962C104.283 75.5768 103.346 75.48 102.722 76.1737C101.243 77.803 100.651 80.1582 101.473 82.2231C101.621 82.5941 101.67 82.9329 101.736 82.9813C101.571 83.3039 101.358 83.6266 101.259 83.9815C100.947 85.1913 101.325 85.9495 101.801 87.0304C102.623 88.8371 102.36 91.0311 104.76 91.7247C106.765 92.3055 108.639 91.1278 109.214 89.2404C110.085 86.4012 108.359 83.1265 107.784 80.3841C107.439 78.7548 107.439 75.7865 104.957 75.964L104.941 75.9801Z" fill="#251C4C"/>
<path d="M121.064 68.2695C114.079 63.075 98.7936 69.3987 103.264 78.9971C105.91 84.6594 110.414 80.2393 114.095 78.4809C116.593 77.2871 120.423 76.8355 123.118 75.4159C123.513 76.1418 124.466 76.5935 125.288 75.8998C127.408 74.0769 129.939 70.9474 127.539 68.2372C125.682 66.1239 123.102 67.0273 121.047 68.3017L121.064 68.2695Z" fill="#251C4C"/>
<path d="M115.591 182.208C118.023 183.112 119.305 181.789 117.267 179.821C114.128 176.788 108.885 176.369 104.349 177.127C104.349 177.127 104.365 177.111 104.382 177.095C105.187 176.546 106.19 175.788 106.633 174.885C107.357 173.401 105.795 173.191 104.678 173.546C102.952 174.078 100.404 176.901 98.8923 178.708C92.729 179.692 73.8939 182.402 63.8025 180.337C59.8416 179.531 57.2448 177.998 57.2448 175.336C57.2448 173.11 57.8857 159.543 63.8847 153.881C64.1805 153.591 64.4599 153.333 64.7886 153.058C67.1882 150.832 69.6535 148.654 71.8395 146.799C77.7891 141.702 82.0788 134.894 83.41 127.247C84.7249 119.924 83.6401 113.745 81.8322 108.906C79.3176 102.179 70.6725 100.033 65.0023 104.55C54.1385 113.245 48.5833 117.859 34.9747 133.732C34.9254 133.813 34.8596 133.845 34.7939 133.926L34.761 133.958C34.3008 134.507 33.8571 135.039 33.4133 135.588C32.0656 137.298 30.9151 139.137 29.9126 141.089C26.7077 147.202 25.097 154.333 24.9491 161.398V161.431C24.571 178.176 32.3615 194.711 46.3809 197.889C61.9289 201.405 83.1964 195.001 92.9097 191.597C93.7808 191.291 94.5533 191 95.2271 190.758C96.0982 190.952 97.1008 190.581 98.2677 190.758C100.437 191.081 105.992 195.42 108.359 194.404C111.531 193.049 104.546 191.129 106.14 189.742C106.716 189.242 116.363 193.581 113.783 189.161C113.208 188.177 108.096 185.725 110.151 185.338C112.452 186.016 117.399 188.242 118.105 185.983C118.434 184.919 115.673 183.322 114.227 182.886C107.061 180.724 110.841 180.498 115.541 182.225L115.591 182.208Z" fill="white"/>
<path d="M118.664 182.353C118.911 181.982 119.305 180.934 117.694 179.385C114.473 176.272 109.608 176.014 106.387 176.272C106.716 175.933 106.995 175.562 107.192 175.159C107.652 174.191 107.34 173.61 107.11 173.352C106.502 172.674 105.319 172.723 104.497 172.981C103.083 173.416 101.144 175.11 98.5636 178.159C92.6632 179.095 73.861 181.789 63.9176 179.756C59.8909 178.95 57.8529 177.449 57.8529 175.336C57.8529 175.191 58.0337 160.237 64.312 154.3C64.5421 154.074 64.7722 153.865 65.0188 153.639L65.1995 153.477C67.3197 151.493 69.7522 149.348 72.2339 147.234C78.5287 141.846 82.7033 134.781 84.0017 127.344C85.1522 120.907 84.6098 114.632 82.4075 108.696C81.1584 105.372 78.4301 102.92 74.9129 101.969C71.33 101.001 67.4841 101.791 64.6243 104.082C53.5468 112.954 48.0738 117.536 34.4652 133.409C34.4159 133.458 34.3666 133.522 34.3173 133.571C33.8407 134.119 33.4133 134.668 32.9531 135.216C31.6054 136.942 30.4056 138.83 29.4031 140.798C26.2639 146.783 24.5382 153.897 24.3738 161.398C23.8808 183.337 35.3856 195.985 46.2823 198.453C49.5037 199.179 52.988 199.501 56.5545 199.501C69.8508 199.501 84.5277 195.178 93.1727 192.145C93.9781 191.855 94.7012 191.597 95.3422 191.355C95.8024 191.419 96.279 191.371 96.7392 191.339C97.2158 191.29 97.7089 191.242 98.2184 191.323C98.9251 191.436 100.207 192.113 101.555 192.823C104.184 194.226 106.896 195.662 108.655 194.92C108.934 194.807 109.773 194.452 109.855 193.662C109.953 192.758 108.984 192.065 107.948 191.339C107.57 191.064 106.896 190.597 106.683 190.306C107.094 190.387 107.8 190.597 108.392 190.758C111.515 191.661 113.766 192.21 114.621 191.145C115.278 190.339 114.605 189.193 114.374 188.806C114.112 188.354 113.421 187.87 112.32 187.128C111.926 186.87 111.4 186.499 110.972 186.177C111.104 186.225 111.252 186.273 111.383 186.322C113.553 187.064 116.265 187.999 117.777 187.257C118.253 187.015 118.582 186.628 118.746 186.128C118.812 185.886 118.861 185.515 118.598 185.047C118.204 184.305 117.152 183.531 116.1 182.982C117.267 183.241 118.22 183.015 118.648 182.337L118.664 182.353ZM109.69 181.337C109.756 181.692 109.871 182.16 114.095 183.434C115.788 183.95 117.662 185.37 117.563 185.773C117.497 185.967 117.399 186.096 117.218 186.193C116.182 186.709 113.536 185.806 111.794 185.209C111.268 185.031 110.775 184.87 110.381 184.741L110.233 184.692L110.085 184.725C109.395 184.854 109.181 185.209 109.115 185.483C108.951 186.289 109.904 186.983 111.613 188.145C112.238 188.564 113.158 189.193 113.306 189.435C113.75 190.177 113.651 190.419 113.651 190.419C113.405 190.758 111.745 190.484 108.737 189.613C106.748 189.032 106.206 188.903 105.795 189.258C105.401 189.596 105.335 189.968 105.335 190.226C105.368 191.032 106.272 191.661 107.225 192.339C107.702 192.678 108.589 193.307 108.638 193.533C108.638 193.533 108.573 193.662 108.162 193.823C106.962 194.339 104.184 192.855 102.146 191.774C100.634 190.968 99.3196 190.274 98.3992 190.129C97.7418 190.032 97.1337 190.08 96.6077 190.129C96.1475 190.177 95.7366 190.21 95.4079 190.129L95.2271 190.097L95.0628 190.161C94.3889 190.419 93.6329 190.693 92.7618 191C81.9309 194.791 61.5344 200.663 46.5782 197.275C32.3615 194.049 25.2778 176.804 25.6229 161.398C25.7708 154.107 27.4637 147.17 30.5207 141.346C31.4904 139.443 32.6409 137.62 33.9557 135.958C34.383 135.41 34.8268 134.877 35.2541 134.377L35.5006 134.103C48.9942 118.375 54.4343 113.809 65.4461 105.001C67.2868 103.533 69.5878 102.759 71.9052 102.759C72.8092 102.759 73.7296 102.872 74.6335 103.114C77.7727 103.969 80.2051 106.147 81.3063 109.099C83.4429 114.842 83.9689 120.907 82.8512 127.134C81.5857 134.313 77.559 141.12 71.4779 146.331C68.9797 148.46 66.5308 150.622 64.4106 152.606L64.2463 152.768C63.9833 153.01 63.7368 153.219 63.5067 153.461C56.7517 159.833 56.6695 175.207 56.6695 175.352C56.6695 178.127 59.0362 180.014 63.7204 180.95C73.9925 183.047 93.3535 180.24 99.0402 179.321L99.2703 179.288L99.4182 179.111C102.475 175.449 104.102 174.384 104.908 174.142C105.532 173.949 106.107 174.029 106.222 174.142C106.255 174.174 106.255 174.352 106.124 174.626C105.697 175.513 104.48 176.32 104.069 176.61L101.423 178.24L104.497 177.723C106.995 177.304 113.208 176.707 116.873 180.256C117.645 180.998 117.777 181.547 117.662 181.708C117.563 181.869 116.971 182.063 115.837 181.644C115.788 181.627 110.907 179.869 109.953 180.676L109.641 180.998L109.723 181.353L109.69 181.337Z" fill="#251C4C"/>
<path d="M74.7157 101.292C60.9592 98.1619 42.5679 117.778 29.8633 132.587C35.6814 145.476 48.4518 154.494 63.9176 158.592C66.3993 156.269 81.9637 141.282 84.3469 126.393C85.4316 119.617 83.295 103.26 74.6993 101.308L74.7157 101.292Z" fill="#251C4C"/>
<path d="M48.8956 431.687C40.8751 430.735 30.6029 430.299 30.6029 430.299C30.6029 430.299 23.8643 435.139 18.0462 428.944C18.0462 428.944 12.0965 437.285 16.3533 443.85C16.3533 443.85 47.3342 445.286 56.686 443.85C56.686 443.85 56.9325 432.639 48.912 431.687H48.8956Z" fill="#251C4C"/>
<path d="M79.5149 101.663L78.8246 102.663C83.2129 105.583 85.7111 109.567 86.237 114.487C88.1928 132.523 63.7204 157.882 63.4739 158.14L64.3614 158.979C65.3804 157.93 89.4748 132.958 87.4697 114.358C86.8944 109.051 84.2154 104.792 79.5149 101.646V101.663Z" fill="white"/>
<path d="M140.231 119.509L121.067 164.345L122.203 164.813L141.368 119.978L140.231 119.509Z" fill="white"/>
<path d="M22.7467 222.15L21.8428 222.973C22.155 223.296 29.5674 230.958 45.8057 234.685C51.6896 236.04 57.6885 236.62 63.7039 236.62C85.3494 236.62 107.044 228.99 122.888 221.666L122.362 220.569C52.9222 252.655 23.0261 222.441 22.7303 222.134L22.7467 222.15Z" fill="white"/>
</g>
<defs>
<clipPath id="clip0_36_1278">
<rect width="500" height="445.689" fill="white"/>
</clipPath>
</defs>
</svg>
