<svg width="500" height="457" viewBox="0 0 500 457" fill="none" xmlns="http://www.w3.org/2000/svg">
<g clip-path="url(#clip0_36_1526)">
<path d="M362.769 79.3793C285.091 82.1759 278.416 59.5345 195.09 23.463C183.781 18.565 171.934 15.8 159.976 14.8994C158.647 14.8046 157.319 14.7256 155.99 14.6782C81.0794 11.6288 3.41654 80.6433 23.3147 158.743C46.7559 250.731 -18.5378 358.961 70.0864 404.054C158.711 449.147 332.068 488.837 420.55 404.054C509.032 319.271 563.206 72.1587 362.769 79.3793Z" fill="#F4D933"/>
<path d="M255.702 24.5058C292.873 63.6898 337.303 57.907 352.583 54.3836C356.379 53.5146 358.847 49.9122 358.356 46.057C352.899 3.55493 212.3 -21.2511 255.702 24.5058Z" fill="#F4D933"/>
<path d="M463.13 453.856H48.7172V457H463.13V453.856Z" fill="#251C4C"/>
<path d="M288.602 60.4194H282.718V108.862H288.602V60.4194Z" fill="#251C4C"/>
<path d="M266.569 331.121L310.651 453.856H313.593L269.511 331.121H266.569Z" fill="#251C4C"/>
<path d="M260.258 331.121H257.442V453.856H260.258V331.121Z" fill="#251C4C"/>
<path d="M203.821 453.856H206.763L250.862 331.121H247.92L203.821 453.856Z" fill="#251C4C"/>
<path d="M265.287 331.121L285.391 387.132H291.275L271.156 331.121H265.287Z" fill="#251C4C"/>
<path d="M261.792 331.121H255.908V382.724H261.792V331.121Z" fill="#251C4C"/>
<path d="M226.424 387.132H232.308L252.428 331.121H246.544L226.424 387.132Z" fill="#251C4C"/>
<path d="M271.156 324.88H246.544V331.121H271.156V324.88Z" fill="#251C4C"/>
<path d="M296.685 65.3647H274.635V71.6058H296.685V65.3647Z" fill="#251C4C"/>
<path d="M284.616 329.209H233.083V335.45H284.616V329.209Z" fill="#251C4C"/>
<path d="M259.277 400.91L298.251 416.331V413.85L259.277 398.429V400.91Z" fill="#251C4C"/>
<path d="M218.895 416.331L258.423 400.91V398.429L218.895 413.85V416.331Z" fill="#251C4C"/>
<path d="M373.256 321.815H165.243C164.705 321.815 164.262 322.257 164.262 322.795V328.214C164.262 328.751 164.705 329.194 165.243 329.194H373.256C373.794 329.194 374.237 328.751 374.237 328.214V322.795C374.237 322.257 373.794 321.815 373.256 321.815Z" fill="#251C4C"/>
<path d="M372.402 71.5901H166.097C165.085 71.5901 164.262 72.4117 164.262 73.4229V77.1517C164.262 78.1629 165.085 78.9845 166.097 78.9845H372.402C373.414 78.9845 374.237 78.1629 374.237 77.1517V73.4229C374.237 72.4117 373.414 71.5901 372.402 71.5901Z" fill="#251C4C"/>
<path d="M366.534 75.2871H170.732V329.209H366.534V75.2871Z" fill="#251C4C"/>
<path d="M364.161 75.2874H168.359V329.21H364.161V75.2874Z" fill="white"/>
<path d="M167.774 329.794H364.762V74.7026H167.774V329.81V329.794ZM168.96 75.8876H363.576V328.625H168.96V75.8876Z" fill="#251C4C"/>
<path d="M370.267 321.815H162.254C161.716 321.815 161.273 322.258 161.273 322.795V328.214C161.273 328.751 161.716 329.194 162.254 329.194H370.267C370.804 329.194 371.247 328.751 371.247 328.214V322.795C371.247 322.258 370.804 321.815 370.267 321.815Z" fill="white"/>
<path d="M370.267 321.23H162.254C161.384 321.23 160.672 321.941 160.672 322.81V328.23C160.672 329.099 161.384 329.794 162.254 329.794H370.267C371.137 329.794 371.833 329.083 371.833 328.23V322.81C371.833 321.941 371.121 321.23 370.267 321.23ZM370.662 328.23C370.662 328.451 370.488 328.609 370.283 328.609H162.254C162.032 328.609 161.858 328.435 161.858 328.23V322.81C161.858 322.589 162.032 322.415 162.254 322.415H370.267C370.488 322.415 370.646 322.589 370.646 322.81V328.23H370.662Z" fill="#251C4C"/>
<path d="M369.413 71.5901H163.108C162.095 71.5901 161.273 72.4117 161.273 73.4229V77.1517C161.273 78.1629 162.095 78.9845 163.108 78.9845H369.413C370.425 78.9845 371.247 78.1629 371.247 77.1517V73.4229C371.247 72.4117 370.425 71.5901 369.413 71.5901Z" fill="white"/>
<path d="M369.413 71.0054H163.108C161.779 71.0054 160.688 72.0956 160.688 73.4228V77.1516C160.688 78.4946 161.779 79.569 163.108 79.569H369.413C370.741 79.569 371.833 78.4788 371.833 77.1516V73.4228C371.833 72.0798 370.741 71.0054 369.413 71.0054ZM370.662 77.1516C370.662 77.831 370.109 78.384 369.428 78.384H163.108C162.428 78.384 161.874 77.831 161.874 77.1516V73.4228C161.874 72.7434 162.428 72.1904 163.108 72.1904H369.413C370.093 72.1904 370.646 72.7434 370.646 73.4228V77.1516H370.662Z" fill="#251C4C"/>
<g opacity="0.2">
<path d="M302.331 264.619C302.331 264.619 304.008 287.892 302.838 294.133H330.913C330.913 294.133 331.467 270.417 330.55 263.213L302.316 264.619H302.331Z" fill="#251C4C"/>
<path d="M304.024 229.432C304.024 229.432 305.701 252.532 304.546 258.726H332.527C332.527 258.726 333.08 235.168 332.163 228.01L304.04 229.416L304.024 229.432Z" fill="#251C4C"/>
<path d="M305.384 189.869C305.384 189.869 307.061 212.795 305.906 218.925H333.776C333.776 218.925 334.314 195.557 333.412 188.463L305.4 189.869H305.384Z" fill="#251C4C"/>
<path d="M310.208 144.001C310.208 144.001 311.885 166.706 310.73 172.789L338.458 172.757C338.458 172.757 338.996 149.626 338.079 142.595L310.193 144.001H310.208Z" fill="#251C4C"/>
<path d="M273.323 143.844C273.323 143.844 274.92 166.532 273.734 172.631L301.462 172.6C301.462 172.6 302.078 149.484 301.193 142.453L273.323 143.844Z" fill="#251C4C"/>
<path d="M242.558 142.232C242.558 142.232 244.076 164.921 242.89 170.988L270.602 170.956C270.602 170.956 271.298 147.857 270.444 140.826L242.574 142.232H242.558Z" fill="#251C4C"/>
<path d="M280.045 102.985C280.045 102.985 281.642 125.484 280.488 131.519L308.089 131.488C308.089 131.488 308.69 108.562 307.804 101.594L280.045 102.985Z" fill="#251C4C"/>
<path d="M188.732 155.82C188.732 155.82 190.124 178.556 188.89 184.655L216.618 184.623C216.618 184.623 217.44 161.461 216.618 154.414L188.732 155.804V155.82Z" fill="#251C4C"/>
<path d="M261.982 189.901C261.982 189.901 263.548 212.811 262.361 218.957H290.215C290.215 218.957 290.864 195.604 289.978 188.494L261.982 189.901Z" fill="#251C4C"/>
<path d="M270.27 264.635C270.27 264.635 271.867 287.908 270.681 294.149H298.757C298.757 294.149 299.389 270.433 298.504 263.229L270.286 264.635H270.27Z" fill="#251C4C"/>
<path d="M270.982 229.306C270.982 229.306 272.579 252.405 271.393 258.599H299.358C299.358 258.599 299.991 235.057 299.105 227.9L270.982 229.306Z" fill="#251C4C"/>
<path d="M235.171 264.651C235.171 264.651 236.69 287.924 235.472 294.149H263.532C263.532 294.149 264.243 270.449 263.389 263.229L235.171 264.635V264.651Z" fill="#251C4C"/>
<path d="M200.089 264.651C200.089 264.651 201.528 287.908 200.294 294.149H228.338C228.338 294.149 229.145 270.449 228.307 263.244L200.104 264.651H200.089Z" fill="#251C4C"/>
<path d="M189.744 192.713C189.744 192.713 191.089 215.971 189.839 222.196H217.867C217.867 222.196 218.753 198.496 217.946 191.291L189.744 192.697V192.713Z" fill="#251C4C"/>
<path d="M235.377 243.384C235.377 243.384 231.786 265.219 231.897 271.429L260.036 272.14C260.036 272.14 262.741 247.365 264.449 242.373L239.315 239.592L235.361 243.384H235.377Z" fill="#251C4C"/>
<path d="M238.588 243.589L239.331 239.608L235.377 243.384L238.588 243.589Z" fill="#251C4C"/>
<path d="M296.495 213.68C296.495 213.68 293.047 235.389 293.205 241.551L321.296 242.262C321.296 242.262 323.843 217.63 325.52 212.668L300.433 209.919L296.511 213.68H296.495Z" fill="#251C4C"/>
<path d="M299.706 213.869L300.418 209.919L296.495 213.68L299.706 213.869Z" fill="#251C4C"/>
</g>
<path d="M299.279 262.028C299.279 262.028 300.955 285.301 299.785 291.542H327.861C327.861 291.542 328.414 267.827 327.497 260.606L299.263 262.012L299.279 262.028Z" fill="white"/>
<path d="M328.035 259.99L298.646 261.459L298.693 262.059C298.709 262.296 300.354 285.333 299.215 291.416L299.089 292.111H328.462V291.527C328.493 290.563 328.999 267.684 328.098 260.511L328.035 259.974V259.99ZM327.291 290.942H300.481C301.351 284.464 300.165 266.215 299.911 262.581L326.975 261.222C327.718 268.19 327.354 287.355 327.275 290.926L327.291 290.942Z" fill="#251C4C"/>
<path d="M300.971 226.825C300.971 226.825 302.648 249.925 301.477 256.134H329.458C329.458 256.134 330.012 232.592 329.094 225.419L300.971 226.825Z" fill="#F4D933"/>
<path d="M329.616 224.803L300.339 226.272L300.386 226.873C300.402 227.11 302.047 249.972 300.908 256.024L300.781 256.719H330.059V256.134C330.075 255.171 330.597 232.466 329.695 225.356L329.632 224.819L329.616 224.803ZM328.889 255.534H302.189C303.059 249.103 301.873 231.012 301.62 227.394L328.588 226.051C329.316 232.972 328.968 251.979 328.905 255.534H328.889Z" fill="#251C4C"/>
<path d="M302.331 187.278C302.331 187.278 304.008 210.204 302.853 216.334H330.723C330.723 216.334 331.261 192.966 330.36 185.872L302.347 187.278H302.331Z" fill="white"/>
<path d="M330.866 185.256L301.699 186.709L301.746 187.31C301.762 187.531 303.407 210.22 302.268 216.224L302.142 216.919H331.293V216.318C331.309 215.37 331.831 192.84 330.929 185.777L330.866 185.24V185.256ZM330.138 215.734H303.549C304.404 209.351 303.217 191.449 302.98 187.847L329.838 186.504C330.565 193.377 330.217 212.195 330.154 215.734H330.138Z" fill="#251C4C"/>
<path d="M307.156 141.41C307.156 141.41 308.832 164.115 307.678 170.198L335.405 170.166C335.405 170.166 335.943 147.035 335.026 140.004L307.14 141.41H307.156Z" fill="#F4D933"/>
<path d="M335.564 139.404L306.523 140.857L306.571 141.458C306.586 141.679 308.231 164.147 307.108 170.087L306.982 170.783L336.006 170.751V170.166C336.038 169.218 336.544 146.909 335.643 139.925L335.564 139.388V139.404ZM334.836 169.582L308.374 169.613C309.228 163.278 308.042 145.566 307.788 141.979L334.52 140.636C335.247 147.43 334.915 166.058 334.836 169.582Z" fill="#251C4C"/>
<path d="M270.286 141.252C270.286 141.252 271.883 163.941 270.697 170.024L298.425 169.993C298.425 169.993 299.041 146.877 298.156 139.846L270.286 141.252Z" fill="white"/>
<path d="M298.678 139.246L269.653 140.699L269.7 141.3C269.716 141.521 271.266 163.989 270.128 169.93L269.985 170.641L298.994 170.609V170.04C299.041 169.092 299.627 146.798 298.741 139.799L298.678 139.262V139.246ZM297.839 169.424L271.393 169.456C272.263 163.12 271.156 145.408 270.918 141.837L297.634 140.494C298.346 147.304 297.934 165.916 297.839 169.44V169.424Z" fill="#251C4C"/>
<path d="M239.505 139.641C239.505 139.641 241.024 162.33 239.837 168.397L267.549 168.365C267.549 168.365 268.245 145.266 267.391 138.235L239.521 139.625L239.505 139.641Z" fill="white"/>
<path d="M267.897 137.618L238.888 139.072L238.936 139.672C238.952 139.894 240.438 162.345 239.268 168.286L239.126 168.997L268.119 168.966V168.397C268.166 167.449 268.815 145.171 267.961 138.171L267.897 137.634V137.618ZM266.964 167.781L240.533 167.812C241.419 161.476 240.375 143.78 240.138 140.21L266.838 138.867C267.518 145.676 267.059 164.273 266.964 167.781Z" fill="#251C4C"/>
<path d="M277.008 100.394C277.008 100.394 278.606 122.893 277.451 128.928L305.052 128.897C305.052 128.897 305.653 105.971 304.767 99.0032L277.008 100.394Z" fill="#F4D933"/>
<path d="M305.289 98.3711L276.375 99.8247L276.423 100.425C276.439 100.646 278.004 122.909 276.866 128.802L276.723 129.513L305.621 129.481V128.913C305.669 127.98 306.223 105.86 305.353 98.9241L305.289 98.3711ZM304.467 128.296L278.131 128.328C279.001 122.04 277.878 104.502 277.625 100.947L304.23 99.6035C304.941 106.35 304.546 124.789 304.467 128.281V128.296Z" fill="#251C4C"/>
<path d="M185.679 153.229C185.679 153.229 187.071 175.965 185.837 182.064L213.565 182.032C213.565 182.032 214.387 158.87 213.565 151.823L185.679 153.213V153.229Z" fill="#F4D933"/>
<path d="M214.103 151.206L185.062 152.66L185.094 153.26C185.094 153.482 186.47 175.997 185.268 181.938L185.125 182.649L214.15 182.617V182.048C214.198 181.1 214.988 158.759 214.166 151.744L214.103 151.191V151.206ZM212.995 181.448L186.549 181.479C187.482 175.128 186.517 157.368 186.312 153.798L213.043 152.455C213.691 159.28 213.106 177.94 212.995 181.448Z" fill="#251C4C"/>
<path d="M258.945 187.31C258.945 187.31 260.511 210.22 259.324 216.366H287.179C287.179 216.366 287.827 192.998 286.941 185.903L258.945 187.31Z" fill="#F4D933"/>
<path d="M287.463 185.287L258.312 186.741L258.359 187.341C258.375 187.562 259.91 210.251 258.755 216.239L258.613 216.95H287.748L287.764 216.35C287.795 215.402 288.412 192.887 287.527 185.824L287.463 185.271V185.287ZM286.593 215.749H260.02C260.906 209.366 259.799 191.465 259.577 187.862L286.419 186.519C287.115 193.392 286.688 212.21 286.593 215.749Z" fill="#251C4C"/>
<path d="M267.217 262.044C267.217 262.044 268.815 285.317 267.628 291.558H295.704C295.704 291.558 296.337 267.842 295.451 260.637L267.233 262.044H267.217Z" fill="white"/>
<path d="M295.957 260.005L266.584 261.475L266.632 262.075C266.648 262.312 268.214 285.333 267.059 291.432L266.917 292.143H296.273L296.289 291.558C296.321 290.594 296.922 267.716 296.02 260.558L295.957 260.005ZM295.119 290.942H268.324C269.21 284.464 268.087 266.231 267.85 262.597L294.913 261.238C295.625 268.206 295.214 287.371 295.119 290.942Z" fill="#251C4C"/>
<path d="M267.945 226.715C267.945 226.715 269.542 249.814 268.356 256.008H296.321C296.321 256.008 296.954 232.466 296.068 225.309L267.945 226.715Z" fill="#F4D933"/>
<path d="M296.574 224.692L267.296 226.162L267.344 226.762C267.359 226.999 268.925 249.862 267.771 255.897L267.628 256.608H296.89L296.906 256.024C296.938 255.06 297.523 232.355 296.637 225.245L296.574 224.692ZM295.736 255.408H269.036C269.922 248.977 268.799 230.902 268.562 227.284L295.514 225.941C296.226 232.861 295.815 251.853 295.72 255.423L295.736 255.408Z" fill="#251C4C"/>
<path d="M232.119 262.044C232.119 262.044 233.637 285.317 232.419 291.542H260.479C260.479 291.542 261.191 267.842 260.337 260.622L232.119 262.028V262.044Z" fill="#F4D933"/>
<path d="M260.859 260.021L231.486 261.491L231.533 262.091C231.549 262.328 233.036 285.349 231.85 291.447L231.707 292.158H261.064L261.08 291.574C261.112 290.61 261.792 267.747 260.922 260.574L260.859 260.021ZM259.91 290.958H233.131C234.048 284.464 232.989 266.231 232.751 262.612L259.799 261.254C260.495 268.237 260.004 287.387 259.91 290.958Z" fill="#251C4C"/>
<path d="M197.036 262.06C197.036 262.06 198.475 285.317 197.226 291.558H225.27C225.27 291.558 226.076 267.858 225.238 260.653L197.036 262.06Z" fill="white"/>
<path d="M225.776 260.037L196.419 261.507L196.451 262.107C196.451 262.344 197.858 285.365 196.656 291.448L196.514 292.159H225.855L225.871 291.59C225.902 290.626 226.662 267.763 225.823 260.606L225.76 260.053L225.776 260.037ZM224.716 290.958H197.953C198.886 284.464 197.89 266.247 197.684 262.628L224.732 261.27C225.396 268.253 224.843 287.403 224.732 290.958H224.716Z" fill="#251C4C"/>
<path d="M186.691 190.122C186.691 190.122 188.036 213.379 186.786 219.605H214.814C214.814 219.605 215.7 195.905 214.894 188.7L186.691 190.106V190.122Z" fill="#F4D933"/>
<path d="M215.416 188.099L186.059 189.569L186.09 190.169C186.09 190.406 187.419 213.427 186.201 219.51L186.059 220.221H215.384L215.4 219.636C215.431 218.672 216.285 195.826 215.479 188.652L215.416 188.099ZM214.245 219.02H187.482C188.447 212.526 187.514 194.309 187.308 190.691L214.356 189.332C214.988 196.315 214.356 215.465 214.245 219.02Z" fill="#251C4C"/>
<path d="M232.34 240.793C232.34 240.793 228.749 262.628 228.86 268.822L256.999 269.533C256.999 269.533 259.704 244.758 261.412 239.766L236.279 236.985L232.324 240.777L232.34 240.793Z" fill="white"/>
<path d="M236.073 236.384L231.771 240.492L231.739 240.682C231.597 241.583 228.133 262.644 228.259 268.822V269.391L257.521 270.133L257.584 269.596C257.616 269.343 260.305 244.822 261.966 239.955L262.203 239.26L236.326 236.4L236.057 236.369L236.073 236.384ZM260.637 240.303C259.055 246.054 256.857 265.362 256.461 268.948L229.43 268.269C229.509 261.87 232.53 243.21 232.862 241.093L236.468 237.633L260.621 240.303H260.637Z" fill="#251C4C"/>
<path d="M235.551 240.998L236.279 237.016L232.34 240.793L235.551 240.998Z" fill="#251C4C"/>
<path d="M293.442 211.089C293.442 211.089 289.994 232.798 290.152 238.96L318.244 239.671C318.244 239.671 320.79 215.039 322.467 210.077L297.365 207.328L293.442 211.089Z" fill="white"/>
<path d="M297.159 206.712L292.904 210.804L292.873 210.994C292.73 211.879 289.409 232.814 289.567 238.976V239.544L318.781 240.287L318.829 239.734C318.861 239.481 321.391 215.102 323.02 210.267L323.258 209.572L297.428 206.744L297.159 206.712ZM321.692 210.583C320.158 216.287 318.085 235.484 317.706 239.055L290.737 238.375C290.769 232.024 293.664 213.49 293.996 211.373L297.57 207.944L321.676 210.599L321.692 210.583Z" fill="#251C4C"/>
<path d="M296.653 211.278L297.365 207.328L293.442 211.089L296.653 211.278Z" fill="#251C4C"/>
<path d="M94.6189 33.8912L99.5539 30.6522L95.0302 28.1558L0 26.2598L5.06153 92.7463L9.58527 95.2427L13.334 92.3039L90.6646 88.2433L111.528 95.9221L92.2147 68.5406L94.6189 33.8912Z" fill="#251C4C"/>
<path d="M9.58527 95.2427L28.3288 94.2631C39.7488 67.2134 62.1619 44.6036 89.0829 30.4468L4.52374 28.772L9.58527 95.2427Z" fill="white"/>
<path d="M99.554 30.6522L89.0829 30.4468C62.1619 44.5878 39.7646 67.2134 28.3288 94.2631L95.1884 90.7397L116.051 98.4343L96.7543 71.0528L99.554 30.668V30.6522Z" fill="#F4D933"/>
<path d="M100.187 30.0833L4.53956 28.1873H3.89105L9.04748 95.8746L95.1093 91.3558L117.633 99.6666L97.3554 70.8947L100.187 30.0991V30.0833ZM114.47 97.2176L95.394 90.1866L95.2833 90.1392L10.1389 94.6106L5.17225 29.3723L98.9213 31.2367L96.1533 71.2107L114.47 97.2176Z" fill="#251C4C"/>
<path d="M87.8966 42.3126C85.7138 43.6082 83.9423 43.4818 82.582 41.886C81.886 41.3172 80.9686 41.807 80.7788 42.597C79.7191 42.36 78.6751 42.123 77.6154 41.9018C76.9194 41.1592 75.401 41.5226 75.6066 42.7076C75.9388 44.6668 69.4379 41.7754 69.3746 41.7438C68.5363 41.412 67.7929 42.0598 67.8087 42.8972C67.8403 43.94 65.0723 43.1184 64.5187 43.0394C64.1391 42.992 63.6962 43.1342 63.4747 43.4502C62.241 43.2132 61.0072 42.9762 59.7735 42.7392C58.8086 41.6806 57.0213 43.0236 57.9861 44.0822C61.1021 47.5108 62.1144 45.8834 65.2621 45.7886C67.002 45.7254 66.9229 47.179 68.8052 45.9308C69.4853 45.4726 69.7858 44.967 69.9282 44.3824C72.4115 45.362 76.4291 46.6892 77.5679 44.7142C79.2762 45.8044 81.2217 46.1204 82.3289 44.493C85.0179 46.231 88.6558 47.1474 89.937 43.1974C90.3799 41.8386 88.3237 40.938 87.8808 42.2968L87.8966 42.3126Z" fill="#251C4C"/>
<path d="M41.4729 43.5609C40.1917 43.7505 38.8947 43.9401 37.6135 44.1297C37.2181 43.7505 36.3323 43.8295 36.0318 44.3193C34.1179 45.5359 32.4096 45.5517 30.907 44.3825C30.3375 44.0507 29.7049 44.4773 29.436 44.9671C29.0563 45.6307 26.9052 44.7775 26.2725 44.6037C25.8771 44.4931 25.4816 44.7459 25.2286 45.0145C22.9034 47.4319 18.2531 44.7775 15.8806 43.9085C14.5361 43.4029 13.6345 45.4569 14.979 45.9625C17.3357 46.8473 20.3094 48.5379 22.9192 48.5063C24.3902 48.4905 25.0229 47.3687 26.1618 47.2581C28.2338 47.0527 29.4043 48.3483 30.7804 46.8473C33.0107 47.9849 35.3833 48.4273 37.1073 46.6103C39.8121 48.4747 42.8965 47.4635 43.6873 43.9243C44.0037 42.5181 41.7734 42.1863 41.4729 43.5925V43.5609Z" fill="#251C4C"/>
<path d="M78.8649 54.3522C77.6312 53.6254 76.3658 52.9776 75.053 52.4246C74.531 52.1876 73.7718 52.4404 73.582 53.0092C73.5662 53.0724 73.5345 53.1198 73.5187 53.183C73.0916 52.9934 72.6488 52.8354 72.2375 52.63C71.5257 52.2982 70.4818 52.946 70.6716 53.7834C70.5292 53.183 67.9668 53.0408 67.3183 52.9934C66.0846 52.9144 66.6066 53.499 65.9897 53.5622C63.8702 53.815 62.8895 53.4832 61.1338 52.7722C60.596 52.5668 59.8684 52.7722 59.6628 53.3568C59.6311 53.4516 52.8297 54.0994 52.371 53.5306C51.4536 52.4246 49.6662 53.7676 50.5837 54.8736C52.3394 56.9908 54.9809 56.0744 57.5274 56.185C59.1408 56.2482 60.3745 56.3272 61.197 55.2212C62.6364 55.8532 64.2498 56.58 65.7524 56.4062C65.9264 56.3904 66.8754 55.79 67.0969 55.7742C68.1725 55.6952 68.473 55.9006 69.5011 55.9164C70.6558 55.948 72.0477 55.9954 72.6646 55.2212C73.0284 55.3792 73.3763 55.553 73.7401 55.6794C74.2621 55.8848 75.0213 55.6794 75.2112 55.0948C75.2112 55.0632 75.2428 55.0316 75.2428 55C77.3307 56.0902 80.4783 57.6386 81.0794 54.6682C81.3641 53.2462 79.1497 52.9302 78.8649 54.3364V54.3522Z" fill="#251C4C"/>
<path d="M32.0142 55.9639C32.1723 55.4425 31.8402 55.3951 31.3024 55.2371C30.8121 55.0949 30.3692 55.0949 29.863 55.1739C29.2303 55.2687 27.2057 56.5485 26.6679 55.9323C25.7347 54.8579 23.9315 56.1851 24.8806 57.2753C26.2092 58.7921 27.8542 58.2391 29.4834 57.6071C30.3217 57.2911 30.5432 57.4333 31.3498 57.7493C31.7611 57.9231 32.1249 58.0653 32.5836 58.0179C33.2796 57.9389 33.849 57.5123 34.0704 56.8487C34.4975 55.4899 32.4412 54.5735 32.0142 55.9481V55.9639Z" fill="#251C4C"/>
<path d="M85.2393 66.6289C83.2938 67.3873 81.7279 67.1029 80.5258 65.8073C79.9089 65.3175 79.1497 65.6335 78.8017 66.2339C78.4853 66.7869 70.4976 66.0759 69.4853 65.9653C68.9475 65.9021 68.5521 66.1707 68.2832 66.6289C67.8087 66.6289 67.3342 66.6289 66.8596 66.6289C66.2428 66.2655 65.4677 66.3445 65.1356 67.0555C64.8192 67.7349 59.4255 66.8659 58.6663 66.7711C57.2269 66.6131 56.8948 68.8251 58.3341 68.9831C60.4695 69.2201 64.5661 70.5631 66.4958 68.8725C67.3974 69.1885 67.9985 68.9989 69.1531 68.9357C69.2481 68.9357 69.8966 68.5723 69.8966 68.4775C70.3236 68.4775 70.9721 69.0779 71.5099 69.0937C72.3008 69.0937 73.06 68.5091 73.8351 68.5249C75.2586 68.5249 75.7964 69.7257 77.473 69.5519C78.6119 69.4413 79.3869 68.9515 80.0354 68.2247C82.3606 69.8363 84.8281 70.4683 86.9792 67.9877C87.9283 66.8975 86.1567 65.5071 85.2235 66.5973L85.2393 66.6289Z" fill="#251C4C"/>
<path d="M51.6751 66.5499C49.8719 66.7237 48.0845 66.8975 46.2814 67.0871C45.8859 66.8659 45.2058 67.0397 44.9527 67.4189C43.719 67.4189 42.4852 67.3873 41.2515 67.3873C40.9193 66.8501 40.1443 66.8501 39.6856 67.1661C37.0599 68.2247 34.7664 67.8613 32.805 66.0917C32.3463 65.7915 31.5713 65.7283 31.2391 66.2813C31.5397 65.7757 20.9263 68.2247 20.4992 68.2563C19.0598 68.3195 19.3287 70.5473 20.7681 70.4841C22.1126 70.4209 22.5554 70.0575 23.7734 69.8205C26.7154 69.2517 27.3797 69.8205 29.5467 69.5045C30.2901 69.3939 31.9351 68.5565 32.4571 68.5723C33.7857 68.6197 35.2093 70.0891 36.7277 70.2155C38.1038 70.3419 39.0371 70.1049 40.0494 69.5519C41.552 71.3531 43.0705 70.8791 45.3798 70.3261C48.0845 69.6783 50.4888 70.5947 53.0195 68.3669C54.0951 67.4189 52.7506 65.6177 51.6751 66.5815V66.5499Z" fill="#251C4C"/>
<path d="M74.4045 78.858C74.1514 79.3162 65.2146 77.8783 65.1039 77.8625C64.6136 77.8625 64.1074 78.0206 63.9018 78.5262C63.8702 78.621 57.7647 79.0318 56.4044 79.0002C55.487 78.9686 54.5696 78.5736 53.668 78.6052C52.7981 78.6368 52.1496 79.332 51.1847 79.0792C49.7928 78.7 49.4765 80.912 50.8526 81.2912C52.3552 81.702 54.0476 81.3702 55.6452 81.4966C56.4044 81.5598 57.1795 81.4018 57.8754 81.386C59.6944 81.3544 61.6083 82.3498 63.3957 81.939C64.2814 81.7336 64.7559 80.8172 65.3728 80.6118C65.6101 80.5328 65.7208 80.4854 65.7999 80.438C65.7999 80.4854 65.8632 80.5328 66.2586 80.5486C66.9071 80.5802 67.5714 81.1332 68.2674 81.2122C69.6277 81.3702 70.7032 81.0384 72.1268 81.2596C74.2621 81.6072 75.2903 81.8916 76.4765 79.7744C77.1725 78.5104 75.1163 77.6413 74.4203 78.8737L74.4045 78.858Z" fill="#251C4C"/>
<path d="M34.5924 80.0589C32.6943 81.8285 31.2708 80.3749 29.262 80.1537C27.9175 79.9957 26.6679 80.7383 25.2918 80.4855C24.2953 80.3117 23.2989 79.3795 22.2233 79.6797C21.2742 79.9483 21.3217 80.9121 20.6257 81.3071C19.3762 82.0023 20.2145 84.0879 21.464 83.3769C22.8243 82.6185 22.3024 81.9707 23.8841 82.4131C25.3235 82.8081 26.2567 82.6975 27.6644 82.5395C30.6539 82.1919 33.2954 84.2933 35.9369 81.8443C36.9808 80.8647 35.6363 79.0793 34.5766 80.0589H34.5924Z" fill="#251C4C"/>
<path d="M242.036 119.954C240.091 118.611 234.222 119.274 231.739 119.606C225.333 120.459 218.342 123.177 214.83 128.77C213.818 129.75 213.233 130.998 213.201 132.578C213.154 132.783 213.043 132.973 213.011 133.178C212.964 133.415 212.98 133.621 213.011 133.81C211.461 137.555 199.741 174.669 196.767 175.112C196.134 175.191 190.472 171.794 186.628 169.06C184.635 167.607 182.468 166.058 180.364 164.557C176.094 161.587 172.092 158.932 170.305 158.474C153.032 154.192 159.501 181.479 163.408 185.35C164.215 186.124 166.097 187.499 168.755 189.047C178.862 194.956 204.913 203.567 215.51 191.733C215.827 191.386 216.096 191.038 216.333 190.659C221.521 183.027 222.09 153.924 221.916 141.252C222.834 141.157 223.909 140.92 225.333 140.557C230.774 139.53 231.217 135.201 229.778 135.311C232.688 134.205 233.447 131.188 231.96 130.777C234.222 129.339 234.46 124.172 230.395 125.01C232.53 123.793 237.781 123.019 240.438 123.114C242.748 123.193 243.713 121.107 242.052 119.954H242.036Z" fill="white"/>
<path d="M242.384 119.448C240.881 118.405 237.275 118.247 231.66 118.99C223.751 120.033 217.424 123.477 214.403 128.312C213.249 129.434 212.632 130.856 212.6 132.404C212.584 132.483 212.553 132.546 212.537 132.61C212.489 132.736 212.442 132.878 212.41 133.036C212.363 133.257 212.363 133.479 212.379 133.716C211.967 134.758 211.05 137.444 209.816 141.078C206.51 150.811 198.76 173.611 196.767 174.495C196.055 174.369 190.962 171.399 186.976 168.555C185.473 167.464 183.876 166.311 182.278 165.173L180.697 164.036C176.505 161.113 172.361 158.348 170.431 157.858C164.231 156.325 161.289 158.885 159.929 161.287C155.943 168.365 160.023 182.822 162.965 185.745C163.914 186.661 165.955 188.083 168.438 189.537C175.524 193.677 188.131 198.195 199.155 198.195C205.846 198.195 211.967 196.536 215.938 192.112C216.285 191.749 216.57 191.354 216.807 190.975C222.644 182.364 222.565 147.841 222.502 141.758C223.261 141.647 224.162 141.458 225.428 141.142C229.635 140.352 231.264 137.571 231.043 135.928C231.011 135.738 230.964 135.564 230.901 135.422C232.53 134.458 233.337 132.91 233.289 131.756C233.273 131.346 233.147 130.998 232.925 130.729C234.032 129.544 234.491 127.522 233.89 126.037C233.748 125.689 233.431 125.105 232.799 124.725C235.14 124.062 238.382 123.635 240.391 123.73C241.815 123.777 243.001 123.114 243.365 122.024C243.665 121.107 243.301 120.127 242.384 119.495V119.448ZM242.226 121.613C242.068 122.087 241.435 122.529 240.438 122.498C237.829 122.419 232.419 123.145 230.078 124.457L226.757 126.337L230.489 125.563C231.66 125.326 232.435 125.626 232.767 126.463C233.257 127.68 232.688 129.544 231.612 130.24L230.474 130.966L231.786 131.33C231.786 131.33 232.055 131.409 232.071 131.788C232.119 132.562 231.328 134.032 229.54 134.711L225.618 136.18L229.778 135.864C229.778 135.864 229.92 136.212 229.762 136.733C229.398 137.934 228.006 139.404 225.159 139.941C223.625 140.32 222.628 140.525 221.822 140.62L221.268 140.683V141.236C221.331 145.36 221.632 181.7 215.779 190.327C215.558 190.675 215.321 190.991 215.02 191.307C209.373 197.611 199.393 197.563 192.006 196.426C183.132 195.051 174.069 191.449 169.023 188.494C166.208 186.835 164.468 185.54 163.804 184.892C161.115 182.237 157.303 168.412 160.972 161.887C162.206 159.691 164.199 158.601 166.904 158.601C167.885 158.601 168.96 158.743 170.131 159.027C171.871 159.47 176.094 162.314 179.985 165.015L181.551 166.137C183.148 167.275 184.746 168.428 186.248 169.518C188.4 171.051 195.628 175.807 196.83 175.68C198.792 175.38 202.366 166.753 210.955 141.458C212.205 137.792 213.185 134.901 213.549 134.016L213.612 133.858L213.581 133.684C213.549 133.542 213.549 133.415 213.581 133.273C213.597 133.194 213.628 133.115 213.66 133.052C213.707 132.941 213.739 132.815 213.786 132.578C213.834 131.203 214.308 130.097 215.336 129.086C219.481 122.482 228.243 120.681 231.818 120.207C238.793 119.29 240.992 119.969 241.688 120.459C242.163 120.791 242.352 121.218 242.21 121.629L242.226 121.613Z" fill="#251C4C"/>
<path d="M134.732 86.5841C130.287 88.3379 127.282 92.5407 125.257 96.6646C123.612 100.014 122.647 103.632 121.429 107.124C120.575 109.589 119.468 113.286 117.839 115.151C113.489 120.096 107.146 116.541 104.268 115.403C103.382 114.645 101.753 114.898 101.721 116.288C101.373 126.937 114.644 138.155 125.241 134.269C131.837 131.835 136.187 125.215 138.006 118.721C139.002 115.166 139.034 111.216 140.647 107.851C143.795 101.326 148.034 102.274 152.732 98.9556C152.858 98.8766 152.921 98.766 153.001 98.6712C153.523 98.4026 153.871 97.8812 153.728 97.1544C152.21 89.9179 141.786 83.8033 134.747 86.5841H134.732Z" fill="#251C4C"/>
<path d="M132.058 430.535C131.679 432.842 131.078 441.642 132.28 442.812C133.435 443.949 144.238 446.398 144.475 444.17C144.696 442.243 146.958 431.42 145.851 430.029C144.696 428.576 132.185 429.792 132.058 430.535Z" fill="white"/>
<path d="M132.612 429.619C132.074 429.761 131.537 429.935 131.457 430.44C131.315 431.341 130.192 441.627 131.853 443.238C132.865 444.234 138.544 445.671 142.023 445.671C142.814 445.671 143.494 445.592 143.985 445.419C144.807 445.118 145.029 444.613 145.076 444.234C145.124 443.791 145.282 442.891 145.472 441.753C146.689 434.738 147.18 430.725 146.31 429.65C144.965 427.975 134.906 429.018 132.612 429.619ZM144.285 441.548C144.08 442.717 143.921 443.649 143.874 444.091C143.874 444.123 143.795 444.202 143.589 444.281C141.343 445.087 133.514 443.175 132.707 442.369C131.9 441.595 132.153 434.011 132.628 430.851C134.352 430.124 144.459 429.476 145.392 430.393C146.073 431.325 144.791 438.751 144.301 441.548H144.285Z" fill="#251C4C"/>
<path d="M161.384 442.843C153.602 441.895 144.823 442.037 144.823 442.037C144.823 442.037 137.057 446.272 131.394 440.141C131.394 440.141 125.605 448.405 129.749 454.883C129.749 454.883 159.849 456.305 168.944 454.883C168.944 454.883 169.182 443.791 161.384 442.859V442.843Z" fill="#251C4C"/>
<path d="M65.4677 430.535C65.0881 432.842 64.4871 441.642 65.6892 442.812C66.8438 443.949 76.2551 447.599 76.4924 445.371C76.698 443.444 78.5803 431.467 77.473 430.077C76.3184 428.623 65.5943 429.792 65.4677 430.535Z" fill="white"/>
<path d="M66.1637 429.571C65.5626 429.729 64.9616 429.919 64.8667 430.44C64.7243 431.341 63.6013 441.626 65.2621 443.238C66.227 444.186 72.2217 446.667 75.1795 446.667C75.575 446.667 75.9071 446.619 76.176 446.524C76.7138 446.335 77.046 445.94 77.0934 445.434C77.1251 445.118 77.2041 444.534 77.3149 443.759C78.5644 434.501 78.7384 430.677 77.9476 429.682C76.6189 428.023 68.1725 429.034 66.1637 429.539V429.571ZM76.1128 443.617C76.002 444.391 75.9229 444.992 75.8913 445.339C75.8913 445.355 75.7648 445.434 75.4642 445.466C73.1549 445.735 66.8755 443.143 66.1004 442.385C65.2937 441.595 65.5468 433.995 66.0213 430.851C67.6031 430.108 76.2077 429.555 76.9985 430.44C77.5047 431.135 77.2041 435.575 76.1128 443.602V443.617Z" fill="#251C4C"/>
<path d="M110.262 243.289C108.253 245.58 112.065 266.041 117.333 279.597C123.454 295.303 130.967 313.615 131.726 323.126C133.15 340.822 131.837 376.483 130.429 394.179C130.35 395.364 130.35 436.46 130.35 436.46L146.99 438.056C156.053 411.054 173.357 350.476 173.357 323.6C173.357 296.725 171.032 251.9 161.146 230.649C151.735 210.441 114.644 238.343 110.278 243.305L110.262 243.289Z" fill="#251C4C"/>
<path d="M137.531 298.447C134.479 292.948 132.944 286.786 133.403 280.498C133.656 277.069 135.776 272.74 134.621 269.311C133.182 264.982 120.211 250.336 116.89 252.548C112.888 255.234 114.913 265.63 113.299 270.465C119.42 286.17 130.967 313.583 131.726 323.095C133.15 340.791 130.208 376.293 129.243 394.021C128.278 411.67 130.334 436.428 130.334 436.428L140.6 437.408C139.667 430.946 140.6 416.552 140.964 409.995C141.644 398.556 144.475 387.385 147.132 376.278C151.324 358.676 155.326 340.017 150.343 322.131C147.765 312.935 142.118 306.536 137.531 298.415V298.447Z" fill="#251C4C"/>
<path d="M85.9195 224.471C82.8825 224.108 80.6681 224.692 79.7191 226.288C76.6031 231.502 74.1672 236.305 72.2691 240.84C59.8842 270.212 70.3078 287.971 70.0864 326.176C70.0864 328.388 70.0547 330.647 70.0073 332.891C69.6118 348.691 73.8825 368.141 69.3271 384.636C60.4062 416.994 64.1865 436.476 64.1865 436.476L78.9599 438.072C86.6787 412.602 107.289 369.073 110.31 342.355C115.007 300.864 120.686 256.434 120.939 245.501C120.971 243.747 121.002 242.815 121.002 242.815C110.832 230.443 93.5908 225.403 85.9036 224.503L85.9195 224.471Z" fill="#251C4C"/>
<path d="M83.452 269.959C82.3764 262.312 83.9581 254.981 85.176 247.571C85.8246 243.352 86.394 239.118 86.2833 234.757C86.1725 231.186 72.2691 234.046 72.2691 239.924C59.8842 269.296 70.3078 287.971 70.0864 326.176C70.0864 328.388 70.0547 330.647 70.0073 332.891C69.6435 348.691 69.0741 366.656 66.4958 383.577C60.3113 424.262 64.1865 436.476 64.1865 436.476L67.5556 436.792C67.4765 428.133 67.6821 415.873 68.6154 407.277C70.0864 393.689 73.8825 380.955 78.5961 368.157C86.1251 347.553 91.2024 327.203 89.7631 305.035C88.9722 292.98 85.1444 281.794 83.4678 269.959H83.452Z" fill="#251C4C"/>
<path d="M94.793 442.843C86.995 441.895 77.0143 441.484 77.0143 441.484C77.0143 441.484 70.466 446.272 64.8034 440.141C64.8034 440.141 59.0143 448.405 63.1584 454.883C63.1584 454.883 93.2587 456.305 102.354 454.883C102.354 454.883 102.591 443.791 94.793 442.859V442.843Z" fill="#251C4C"/>
<path d="M147.148 137.919C136.677 135.596 149.995 160.465 149.41 165.932C148.714 172.299 160.988 183.707 165.433 192.334C175.303 189.964 182.231 179.109 184.777 163.262C176.189 148.394 159.233 140.605 147.148 137.919Z" fill="#251C4C"/>
<path d="M148.651 134.585C104.062 120.286 107.969 149.563 106.767 172.157C106.656 174.211 106.514 176.202 106.26 178.114C106.134 179.078 105.976 180.041 105.77 180.989C101.167 202.351 77.4256 225.419 77.4256 225.419C107.731 248.929 165.987 236.511 165.987 236.511C165.987 236.511 159.296 217.187 155.342 199.223C151.403 181.211 162.396 181.779 166.619 167.781C170.827 153.766 148.651 134.6 148.651 134.6V134.585Z" fill="#251C4C"/>
<path d="M144.586 121.913L141.834 132.657C141.834 132.657 146.769 141.789 151.751 142.042C154.013 142.169 152.874 137.666 152.874 137.666L154.93 129.655L144.586 121.897V121.913Z" fill="white"/>
<path d="M144.222 120.886L141.185 132.72L141.296 132.926C141.501 133.305 146.468 142.358 151.719 142.627C151.767 142.627 151.798 142.627 151.846 142.627C152.399 142.627 152.858 142.421 153.19 142.011C154.139 140.857 153.649 138.345 153.491 137.65L155.61 129.402L144.222 120.87V120.886ZM152.241 137.666L152.273 137.808C152.542 138.898 152.716 140.683 152.241 141.268C152.162 141.363 152.036 141.458 151.767 141.442C147.575 141.221 143.21 133.889 142.466 132.562L144.934 122.924L154.234 129.892L152.241 137.65V137.666Z" fill="#251C4C"/>
<path d="M117.269 237.98L117 239.149C117.111 239.181 123.818 240.682 135.032 240.682C143.241 240.682 153.886 239.876 166.129 237.064L165.86 235.895C137.183 242.467 117.475 238.012 117.269 237.98Z" fill="white"/>
<path d="M144.301 103.696C144.301 103.696 138.781 115.388 145.234 125.61C151.688 135.833 164.088 130.982 164.8 125.073C165.797 116.762 163.756 107.029 163.756 107.029L144.301 103.696Z" fill="white"/>
<path d="M164.262 106.508L143.953 103.016L143.763 103.427C143.7 103.553 138.18 115.53 144.728 125.926C147.259 129.939 151.071 132.151 155.231 132.151C156.117 132.151 157.034 132.057 157.936 131.851C161.969 130.935 165.038 128.186 165.401 125.152C166.398 116.841 164.373 107.014 164.342 106.919L164.262 106.524V106.508ZM164.199 124.994C163.899 127.49 161.146 129.892 157.667 130.666C152.985 131.725 148.54 129.702 145.74 125.278C140.204 116.525 143.779 106.508 144.665 104.359L163.234 107.551C163.598 109.447 165.053 117.821 164.199 124.994Z" fill="#251C4C"/>
<path d="M133.308 245.027H133.34C134.21 245.216 135.348 245.39 136.218 245.106C137.658 244.632 136.835 243.494 135.918 242.973C134.225 242.025 129.686 242.341 127.835 242.499C127.424 241.867 117.855 234.14 108.174 225.435C101.927 219.873 95.6629 213.948 91.7086 209.255C89.5258 206.648 86.3623 195.399 85.2551 194.261C84.053 193.013 92.278 182.727 98.8738 177.213C100.139 176.154 101.341 175.254 102.401 174.638C105.327 172.994 99.0636 141.663 83.452 152.786C83.3729 152.865 83.278 152.897 83.2147 152.96C63.5222 166.943 51.8016 187.815 61.9879 204.942C72.4273 222.48 97.0706 239.497 110.072 244.695C115.245 246.749 118.614 247.776 118.614 247.776C119.057 248.376 119.848 248.803 120.401 249.609C121.524 251.236 122.078 257.651 124.229 258.567C127.108 259.8 124.055 253.985 125.985 254.159C126.681 254.222 129.765 263.323 131.125 258.82C131.426 257.825 129.907 252.895 131.442 254.001C132.406 255.944 134.004 260.605 135.95 259.657C136.867 259.215 136.234 256.371 135.617 255.139C132.612 249.04 135.111 251.394 136.867 255.581C137.784 257.761 139.461 257.761 139.508 255.17C139.587 251.173 136.614 247.46 133.292 244.963L133.308 245.027Z" fill="white"/>
<path d="M135.254 245.864C135.649 245.864 136.044 245.801 136.408 245.69C137.373 245.374 137.579 244.79 137.61 244.458C137.689 243.605 136.914 242.846 136.218 242.467C134.573 241.535 130.856 241.677 128.088 241.898C127.598 241.409 126.364 240.35 123.312 237.775C119.642 234.662 114.074 229.953 108.586 225.024C101.072 218.34 95.5522 212.905 92.1831 208.908C90.9968 207.502 89.4151 203.141 88.1497 199.649C86.9476 196.331 86.2358 194.435 85.7613 193.977C85.4766 192.523 92.6576 183.233 99.2692 177.719C100.645 176.565 101.768 175.744 102.702 175.206C103.429 174.796 103.761 173.611 103.714 171.588C103.587 166.2 100.408 154.145 93.6225 150.764C90.3958 149.152 86.8527 149.689 83.0407 152.407C82.9774 152.439 82.8984 152.502 82.8193 152.581C64.3763 165.695 50.6469 187.072 61.4976 205.321C71.9054 222.796 96.7068 240.066 109.867 245.327C109.946 245.359 116.115 247.792 118.218 248.313C118.44 248.598 118.725 248.835 118.978 249.056C119.31 249.34 119.642 249.64 119.911 250.02C120.275 250.541 120.623 251.868 120.971 253.164C121.667 255.787 122.394 258.504 123.992 259.199C124.245 259.31 125.02 259.642 125.621 259.199C126.317 258.678 126.159 257.588 126.016 256.434C125.969 256.055 125.874 255.407 125.89 255.06C126.095 255.392 126.364 255.929 126.602 256.387C127.899 258.947 128.927 260.764 130.145 260.764C130.176 260.764 130.208 260.764 130.255 260.764C131.236 260.685 131.6 259.484 131.71 259.089C131.853 258.615 131.758 257.856 131.568 256.64C131.521 256.292 131.442 255.85 131.41 255.423C131.426 255.455 131.442 255.502 131.457 255.55C132.312 257.461 133.371 259.847 134.826 260.369C135.285 260.542 135.776 260.511 136.218 260.29C136.44 260.179 136.725 259.958 136.883 259.484C137.12 258.804 137.025 257.746 136.788 256.766C137.326 257.572 138.006 257.967 138.718 257.841C139.129 257.762 140.094 257.351 140.141 255.281C140.22 251.22 137.436 247.887 135.285 245.896L135.254 245.864ZM138.464 256.624C138.322 256.671 137.832 256.387 137.421 255.407C137.405 255.36 135.554 251.015 134.384 250.889H133.957L133.751 251.173C133.545 251.473 133.292 251.837 135.08 255.455C135.728 256.766 135.997 258.883 135.681 259.168C135.522 259.247 135.38 259.247 135.222 259.199C134.257 258.852 133.229 256.545 132.549 255.028C132.343 254.57 132.153 254.143 131.979 253.796L131.79 253.575C131.252 253.195 130.856 253.274 130.635 253.417C129.971 253.827 130.097 254.902 130.366 256.782C130.461 257.446 130.619 258.457 130.54 258.694C130.319 259.405 130.129 259.515 130.129 259.515C129.528 259.484 128.167 256.798 127.661 255.802C126.839 254.191 126.57 253.654 126.032 253.606C125.985 253.606 125.937 253.606 125.89 253.606C125.478 253.606 125.225 253.78 125.067 253.938C124.529 254.491 124.672 255.486 124.814 256.545C124.877 257.051 125.004 257.999 124.925 258.172C124.925 258.172 124.798 258.188 124.466 258.046C123.391 257.588 122.663 254.823 122.125 252.816C121.73 251.299 121.382 250.004 120.891 249.309C120.543 248.803 120.132 248.44 119.768 248.124C119.5 247.887 119.262 247.681 119.104 247.46L118.993 247.302L118.804 247.239C118.804 247.239 115.387 246.212 110.326 244.174C97.3079 238.975 72.8069 221.911 62.5415 204.673C52.0705 187.072 65.5626 166.279 83.705 153.387L83.8316 153.292C87.1058 150.953 90.1427 150.416 92.8791 151.696C98.6366 154.366 101.942 164.289 102.449 170.498C102.67 173.137 102.275 174.021 102.116 174.132C101.104 174.701 99.9178 175.57 98.4942 176.771C92.8 181.526 84.7015 191.022 84.5434 193.835C84.5117 194.293 84.6857 194.561 84.8281 194.704C85.2077 195.099 86.1725 197.721 87.0109 200.044C88.387 203.82 89.937 208.086 91.2499 209.666C94.6506 213.711 100.218 219.178 107.779 225.909C113.283 230.854 118.851 235.563 122.536 238.691C125.004 240.777 127.123 242.578 127.345 242.846L127.535 243.147L127.899 243.115C131.995 242.783 134.589 242.925 135.649 243.51C136.187 243.81 136.456 244.237 136.424 244.347C136.424 244.363 136.329 244.458 136.06 244.553C135.238 244.821 134.02 244.553 133.498 244.458L130.398 243.573L132.976 245.517C134.811 246.891 139.05 250.604 138.955 255.234C138.939 256.245 138.654 256.608 138.512 256.64L138.464 256.624Z" fill="#251C4C"/>
<path d="M125.763 132.752C114.391 126.858 93.749 140.241 79.2129 150.622C81.3641 163.451 87.0899 173.5 99.728 180.626C102.433 179.109 120.164 168.507 125.684 155.741C128.183 149.926 132.865 136.433 125.779 132.752H125.763Z" fill="#251C4C"/>
<path d="M166.24 106.571C164.784 105.007 165.639 104.659 164.927 103.301C164.294 102.131 163.646 101.294 162.554 100.536C159.739 98.5922 156.037 98.1182 152.716 98.0708C151.672 98.0708 151.308 98.9398 151.498 99.7298C148.24 99.556 144.111 101.642 142.276 103.301C138.623 106.619 136.582 113.207 138.211 117.963C139.477 121.692 142.767 125.326 145.962 121.629C148.414 118.8 148.92 115.719 149.552 112.196C149.79 110.9 150.027 109.81 150.407 108.878C152.668 107.029 155.373 106.002 157.936 106.65C158.41 107.456 158.711 108.578 159.153 109.368C159.802 110.569 160.704 111.611 161.795 112.433C163.487 113.713 166.081 114.55 167.885 112.97C169.498 111.548 169.356 109.257 167.948 107.788C167.458 107.282 166.698 107.061 166.24 106.571Z" fill="#251C4C"/>
<path d="M145.725 113.381C144.333 115.957 146.421 118.216 147.876 118.058L150.138 113.286C150.138 113.286 147.117 110.806 145.725 113.381Z" fill="white"/>
<path d="M147.022 111.659C146.262 111.817 145.63 112.307 145.203 113.097C144.459 114.487 144.491 115.988 145.329 117.205C145.946 118.105 146.863 118.658 147.733 118.658C147.812 118.658 147.876 118.658 147.955 118.658L147.812 117.457C147.417 117.489 146.769 117.205 146.326 116.525C146.057 116.13 145.503 115.056 146.262 113.65C146.515 113.176 146.848 112.907 147.259 112.828C148.176 112.638 149.378 113.428 149.758 113.729L150.517 112.796C150.517 112.796 148.682 111.311 147.022 111.643V111.659Z" fill="#251C4C"/>
<path d="M154.044 96.143C150.454 96.4748 146.848 97.4228 144.665 100.52C143.589 102.068 146.009 103.711 147.085 102.163C148.777 99.7454 151.798 99.2872 154.551 99.0344C156.433 98.8606 155.895 95.9692 154.029 96.143H154.044Z" fill="white"/>
<path d="M204.022 109.359L201.007 117.427L255.11 137.6L258.124 129.533L204.022 109.359Z" fill="#251C4C"/>
<path d="M206.242 109.415L200.326 107.203C198.807 106.634 197.115 107.409 196.561 108.925L195.122 112.796C194.553 114.313 195.328 116.004 196.846 116.557L202.762 118.769C203.141 118.911 203.584 118.721 203.727 118.326L206.7 110.363C206.843 109.984 206.653 109.542 206.257 109.399L206.242 109.415Z" fill="#F4D933"/>
<path d="M206.51 108.657L200.595 106.445C198.665 105.718 196.514 106.713 195.786 108.641L194.347 112.512C193.999 113.444 194.031 114.455 194.442 115.372C194.853 116.288 195.596 116.968 196.53 117.315L202.445 119.527C202.619 119.59 202.809 119.622 202.983 119.622C203.616 119.622 204.201 119.243 204.438 118.611L207.412 110.648C207.713 109.842 207.301 108.957 206.495 108.657H206.51ZM202.967 117.995L197.099 115.798C196.561 115.593 196.15 115.198 195.913 114.692C195.676 114.171 195.66 113.602 195.85 113.065L197.289 109.194C197.479 108.657 197.89 108.246 198.396 108.009C198.681 107.883 198.981 107.819 199.282 107.819C199.535 107.819 199.788 107.867 200.025 107.962L205.909 110.095L202.952 117.995H202.967Z" fill="#251C4C"/>
<path d="M258.201 129.529L255.18 137.587L262.678 136.955C263.706 136.876 264.164 135.643 263.437 134.901L258.185 129.513L258.201 129.529Z" fill="#F4D933"/>
<path d="M261.301 132.705L259.609 137.223L262.693 136.971C263.722 136.892 264.18 135.659 263.453 134.917L261.301 132.705Z" fill="#251C4C"/>
<path d="M218.184 118.09C215.922 120.159 213.771 129.687 213.185 132.562L220.129 125.942C220.825 124.726 221.774 120.175 221.711 118.706C221.616 116.288 219.417 116.952 218.184 118.09Z" fill="white"/>
<path d="M221.141 116.62C220.082 116.178 218.69 116.825 217.772 117.647C215.321 119.875 213.185 129.529 212.584 132.436L213.755 132.673C214.894 127.143 216.839 120.112 218.563 118.532C219.275 117.884 220.192 117.521 220.651 117.71C220.983 117.852 221.062 118.342 221.078 118.721C221.126 120.08 220.224 124.504 219.576 125.626L220.619 126.226C221.379 124.915 222.344 120.222 222.28 118.658C222.233 117.331 221.616 116.794 221.11 116.588L221.141 116.62Z" fill="#251C4C"/>
<path d="M128.31 136.607C135.728 158.648 99.7754 179.915 99.4116 180.12L100.028 181.163C100.123 181.116 109.392 175.665 117.601 167.496C128.563 156.578 132.66 145.771 129.449 136.228L128.31 136.607Z" fill="white"/>
<path d="M158.078 143.559L157.35 144.507C157.508 144.633 173.009 156.736 164.563 170.245C155.816 184.244 153.317 189.711 153.206 189.932L154.298 190.422C154.298 190.422 156.876 184.781 165.575 170.877C174.591 156.468 158.236 143.685 158.062 143.559H158.078Z" fill="white"/>
<path d="M248.221 327.155C248.426 326.887 248.6 326.602 248.774 326.318C248.363 321.088 247.794 315.764 246.829 310.565C246.734 310.012 246.623 309.444 246.496 308.875C246.243 307.579 245.959 306.284 245.642 305.02C244.915 302.065 239.157 291.716 236.611 291.353C234.001 290.973 232.213 293.865 230.758 295.571C229.651 296.851 228.591 298.162 227.516 299.49C228.212 303.613 229.335 312.651 228.971 312.209C226.962 309.633 225.428 306.773 224.289 303.74C224.115 303.977 223.925 304.214 223.751 304.451C219.512 310.328 215.147 316.696 212.6 323.521C211.366 326.808 210.844 330.173 210.734 333.57C214.324 338.974 221.679 350.713 221.141 350.429C217.329 348.375 214.119 345.61 211.113 342.608C211.177 343.287 211.256 343.935 211.335 344.614C212.932 358.755 214.878 374.445 225.76 384.778C226.092 385.094 226.503 384.794 226.551 384.43C226.662 384.399 226.757 384.288 226.804 384.146C229.003 377.573 234.76 373.244 238.809 367.856C240.786 365.265 242.479 362.453 243.918 359.53C241.751 360.288 239.553 360.904 237.228 361.094C236.658 361.141 245.01 352.246 248.015 347.395C248.948 342.782 249.233 338.057 249.154 333.349C246.908 334.882 244.33 335.877 241.498 335.861C240.976 335.861 246.101 330.015 248.221 327.155Z" fill="white"/>
<path d="M248.917 333.001C246.75 334.487 244.488 335.292 242.178 335.435C242.748 334.629 244.029 333.065 245.105 331.753C246.386 330.189 247.714 328.577 248.553 327.408C248.758 327.124 248.948 326.839 249.138 326.555L249.217 326.429V326.286C248.711 319.998 248.078 314.974 247.256 310.502C247.161 309.933 247.05 309.365 246.924 308.812C246.639 307.39 246.354 306.126 246.069 304.941C245.405 302.239 239.632 291.368 236.69 290.958C234.254 290.594 232.514 292.759 231.122 294.497C230.885 294.781 230.663 295.066 230.458 295.318C229.366 296.567 228.322 297.878 227.294 299.142L227.089 299.395L227.12 299.584C227.674 302.902 228.386 308.511 228.591 310.96C227.025 308.764 225.728 306.284 224.716 303.598L224.431 302.855L223.973 303.503C223.894 303.613 223.815 303.724 223.72 303.835C223.625 303.961 223.53 304.087 223.435 304.214C219.386 309.823 214.83 316.411 212.22 323.379C211.082 326.429 210.465 329.747 210.322 333.554V333.697L210.386 333.807C213.28 338.168 218.437 346.384 220.177 349.402C217.329 347.711 214.577 345.483 211.414 342.308L210.575 341.47L210.686 342.639C210.749 343.303 210.829 343.967 210.908 344.646C212.41 357.918 214.277 374.445 225.475 385.063C225.649 385.221 225.855 385.3 226.076 385.3C226.171 385.3 226.266 385.284 226.361 385.252C226.614 385.157 226.82 384.936 226.931 384.683C227.073 384.573 227.168 384.431 227.215 384.257C228.67 379.896 231.802 376.452 234.839 373.134C236.31 371.522 237.844 369.847 239.157 368.093C241.103 365.534 242.843 362.706 244.298 359.688L244.741 358.771L243.776 359.103C242.226 359.64 240.201 360.272 238.034 360.557C238.54 359.925 239.41 358.914 240.312 357.855C242.953 354.758 246.576 350.508 248.379 347.601L248.426 347.459C249.296 343.145 249.66 338.516 249.565 333.317V332.527L248.901 332.97L248.917 333.001ZM247.62 347.237C245.832 350.081 242.273 354.268 239.679 357.334C236.642 360.904 236.658 360.92 236.848 361.284L237.006 361.536H237.291C239.442 361.347 241.467 360.794 243.112 360.257C241.767 362.879 240.233 365.344 238.509 367.604C237.212 369.342 235.693 370.985 234.238 372.581C231.138 375.962 227.943 379.469 226.456 384.02L226.203 384.099L226.171 384.367C226.171 384.367 226.124 384.478 226.092 384.462C215.115 374.05 213.28 357.697 211.793 344.535C211.762 344.267 211.73 343.998 211.698 343.73C215.004 346.937 217.899 349.133 220.999 350.792L221.315 350.95L221.537 350.713C221.822 350.413 221.885 350.334 217.756 343.682C215.526 340.096 212.916 336.003 211.208 333.444C211.35 329.794 211.952 326.587 213.043 323.664C215.605 316.791 220.129 310.265 224.147 304.688C224.178 304.656 224.194 304.625 224.21 304.593C225.38 307.5 226.883 310.155 228.686 312.461L228.923 312.746L229.224 312.619C229.572 312.461 229.699 312.414 229.082 307.279C228.765 304.593 228.338 301.559 228.022 299.632C229.034 298.384 230.062 297.104 231.138 295.871C231.359 295.619 231.581 295.318 231.834 295.018C233.147 293.375 234.649 291.511 236.611 291.795C238.873 292.111 244.551 302.144 245.279 305.146C245.579 306.315 245.848 307.563 246.133 308.985C246.259 309.538 246.354 310.091 246.449 310.66C247.272 315.068 247.873 320.03 248.379 326.223C248.236 326.46 248.078 326.681 247.904 326.918C247.066 328.072 245.753 329.668 244.472 331.232C240.992 335.482 240.929 335.656 241.103 336.051L241.245 336.304H241.514C243.997 336.304 246.417 335.577 248.743 334.139C248.79 338.926 248.41 343.224 247.62 347.253V347.237Z" fill="#251C4C"/>
<path d="M244.266 321.973C240.565 325.244 236.721 328.53 231.707 329.383C232.846 321.389 234.191 313.425 235.757 305.51C235.915 304.735 234.697 304.546 234.539 305.32C232.451 315.827 230.774 326.381 229.445 336.999C226.345 332.591 223.988 327.851 222.328 322.732C222.09 321.973 220.936 322.431 221.189 323.19C222.929 328.625 225.475 333.649 228.813 338.263C228.939 338.437 229.097 338.5 229.256 338.5C228.971 340.823 228.718 343.145 228.465 345.468C226.219 342.671 224.447 339.622 223.182 336.241C222.913 335.498 221.758 335.956 222.043 336.699C223.451 340.459 225.444 343.872 228.038 346.921C228.117 347.016 228.196 347.064 228.291 347.095C227.5 354.742 226.899 362.405 226.503 370.1C226.456 370.179 226.44 370.258 226.424 370.369C226.266 373.181 226.171 375.993 226.124 378.79C226.061 380.623 226.013 382.456 225.981 384.288C225.981 384.478 226.045 384.62 226.155 384.699C226.472 402.016 229.034 419.128 232.688 436.081C233.083 435.986 233.479 435.891 233.89 435.797C229.778 416.647 227.025 397.276 227.389 377.652C227.468 375.583 227.547 373.513 227.658 371.443C227.816 371.506 228.022 371.506 228.196 371.38C230.442 369.847 232.34 367.904 233.827 365.629C234.254 364.965 233.289 364.191 232.862 364.87C231.486 366.987 229.762 368.757 227.706 370.211C228.386 356.986 229.667 343.793 231.502 330.679C231.518 330.679 231.533 330.679 231.549 330.679C236.927 329.873 241.024 326.476 244.978 322.984C245.563 322.463 244.836 321.468 244.25 322.005L244.266 321.973Z" fill="#251C4C"/>
<path d="M216.649 361.331C214.957 364.586 213.043 367.714 210.386 370.511C210.022 370.906 212.853 359.672 214.324 354.426C213.233 351.914 211.809 349.56 209.816 347.49C205.672 343.208 200.089 339.843 194.79 336.825C194.568 336.699 194.347 336.588 194.125 336.462C194.031 339.116 193.556 341.771 192.607 344.362C192.449 344.82 190.772 337.663 190.155 334.329C188.858 333.681 187.577 333.049 186.264 332.448C184.54 331.643 182.168 330.047 180.064 331.2C178.023 332.306 176.125 341.96 176.363 344.441C176.458 345.499 176.6 346.558 176.758 347.617C176.806 348.075 176.9 348.533 176.964 348.991C177.66 353.21 178.735 357.397 179.89 361.457C180.127 361.615 180.364 361.758 180.618 361.9C183.243 363.369 189.301 366.071 188.858 366.245C186.454 367.177 183.987 367.288 181.614 366.861C182.911 370.432 184.54 373.876 186.676 377.036C190.646 379.691 200.326 383.641 199.836 383.783C197.795 384.415 195.755 384.668 193.683 384.81C195.755 386.548 198.017 388.096 200.437 389.392C205.451 392.109 211.604 393.468 215.384 397.687C215.463 397.782 215.574 397.829 215.684 397.829C215.827 398.082 216.27 398.177 216.459 397.829C222.707 386.5 219.797 374.066 217.045 362.911C216.918 362.39 216.776 361.868 216.649 361.331Z" fill="white"/>
<path d="M217.061 361.22L216.776 360.162L216.27 361.126C214.546 364.459 212.885 367.003 211.018 369.168C211.651 366.229 213.486 358.993 214.751 354.521L214.799 354.379L214.735 354.237C213.502 351.409 211.999 349.102 210.133 347.174C205.878 342.782 200.089 339.322 195.011 336.446C194.901 336.383 194.774 336.32 194.647 336.256C194.537 336.209 194.442 336.146 194.331 336.098L193.714 335.751L193.683 336.462C193.604 338.769 193.224 341.012 192.56 343.129C192.022 341.154 191.025 336.841 190.551 334.266L190.44 334.029L190.25 333.934C189.001 333.318 187.719 332.67 186.422 332.085C186.169 331.959 185.9 331.832 185.616 331.69C183.923 330.837 181.835 329.763 179.842 330.853C177.454 332.133 175.714 342.245 175.936 344.504C176.031 345.484 176.157 346.526 176.331 347.696C176.378 348.122 176.458 348.549 176.521 348.96V349.086C177.138 352.72 178.071 356.702 179.479 361.6L179.526 361.758L179.653 361.837C179.89 361.995 180.143 362.153 180.396 362.295C181.456 362.895 183.053 363.669 184.603 364.428C185.806 365.012 187.213 365.708 187.988 366.134C186.027 366.75 183.908 366.877 181.693 366.482L180.966 366.355L181.219 367.051C182.658 370.985 184.319 374.35 186.312 377.321L186.422 377.431C188.811 379.027 193.113 381.034 196.261 382.503C197.194 382.93 198.127 383.372 198.76 383.688C196.894 384.162 195.059 384.336 193.619 384.446L192.575 384.525L193.382 385.189C195.502 386.974 197.795 388.523 200.215 389.818C201.86 390.703 203.632 391.462 205.356 392.188C208.883 393.689 212.553 395.238 215.02 398.003C215.131 398.129 215.273 398.224 215.416 398.272C215.574 398.43 215.811 398.524 216.048 398.524C216.365 398.524 216.633 398.366 216.792 398.082C223.229 386.406 220.003 373.355 217.424 362.864C217.298 362.326 217.171 361.805 217.029 361.268L217.061 361.22ZM216.048 397.608L215.969 397.387H215.7C213.075 394.479 209.342 392.899 205.72 391.367C204.011 390.64 202.256 389.897 200.642 389.028C198.586 387.922 196.609 386.627 194.758 385.157C196.292 385.015 198.127 384.762 199.946 384.194L200.247 384.099V383.814C200.294 383.419 200.294 383.404 196.64 381.697C193.73 380.338 189.317 378.3 186.976 376.736C185.157 374.018 183.607 370.953 182.263 367.398C184.651 367.714 186.913 367.461 189.016 366.64L189.301 366.513V366.245C189.333 365.834 189.175 365.692 184.983 363.654C183.449 362.911 181.867 362.137 180.823 361.552C180.633 361.442 180.444 361.331 180.27 361.22C178.893 356.417 177.976 352.515 177.391 348.944V348.817C177.296 348.407 177.233 347.996 177.185 347.585C177.011 346.432 176.885 345.389 176.79 344.441C176.552 342.023 178.498 332.575 180.27 331.627C181.867 330.758 183.67 331.674 185.252 332.48C185.537 332.622 185.821 332.765 186.09 332.891C187.308 333.444 188.526 334.044 189.776 334.676C190.06 336.146 191.737 344.804 192.56 344.867H192.908L193.018 344.567C193.872 342.245 194.379 339.764 194.537 337.204C194.553 337.204 194.584 337.236 194.6 337.236C199.63 340.096 205.356 343.509 209.532 347.822C211.287 349.639 212.727 351.819 213.897 354.49C213.201 356.97 212.173 360.873 211.335 364.286C209.737 370.685 209.832 370.732 210.18 370.922L210.496 371.08L210.718 370.843C212.853 368.583 214.672 365.992 216.523 362.548C216.57 362.721 216.602 362.895 216.649 363.053C219.212 373.402 222.391 386.263 216.064 397.655L216.048 397.608Z" fill="#251C4C"/>
<path d="M216.127 397.513C215.558 396.154 214.988 394.795 214.403 393.437C213.565 391.335 212.663 389.265 211.698 387.196C211.667 387.117 211.619 387.069 211.556 387.022C208.978 381.381 206.242 375.82 203.347 370.321C203.41 370.274 203.473 370.195 203.505 370.1C204.818 366.956 205.53 363.732 205.625 360.446C205.64 359.798 204.549 359.83 204.517 360.478C204.423 363.432 203.806 366.308 202.714 369.136C201.828 367.477 200.927 365.818 200.009 364.159C200.152 364.112 200.263 364.001 200.326 363.827C201.813 359.261 202.524 354.647 202.43 349.986C202.43 349.339 201.307 349.37 201.322 350.018C201.417 354.41 200.785 358.755 199.424 363.085C195.217 355.548 190.709 348.169 185.885 340.949C185.537 340.412 184.556 340.949 184.904 341.486C188.542 346.921 191.99 352.467 195.28 358.092C190.772 359.103 186.549 357.902 182.452 356.654C181.788 356.449 181.456 357.444 182.104 357.634C186.47 358.961 190.946 360.162 195.755 359.008C195.77 359.008 195.786 359.008 195.802 358.992C201.18 368.235 206.099 377.731 210.528 387.448C208.361 387.038 206.384 386.263 204.597 385.126C204.043 384.762 203.442 385.663 203.995 386.011C205.925 387.243 208.092 388.065 210.449 388.491C210.639 388.523 210.813 388.46 210.939 388.365C211.619 389.882 212.3 391.414 212.964 392.947C218.974 407.578 222.28 423.03 224.352 438.767C224.716 438.704 225.08 438.64 225.444 438.593C223.609 424.673 220.809 410.959 216.048 397.845C216.111 397.734 216.143 397.624 216.08 397.466L216.127 397.513Z" fill="#251C4C"/>
<path d="M186.328 351.345C182.816 350.65 179.605 349.402 176.758 347.616C176.806 348.075 176.9 348.533 176.964 348.991C179.684 350.555 182.721 351.693 185.98 352.341C186.676 352.467 187.008 351.487 186.328 351.361V351.345Z" fill="#251C4C"/>
<path d="M278.163 352.878C277.214 352.736 276.233 352.625 275.252 352.546C274.952 352.515 274.635 352.499 274.319 352.483C270.729 352.309 267.011 352.609 263.342 353.336C262.788 354.948 261.27 358.598 261.112 358.297C260.463 357.002 260.036 355.627 259.704 354.221C258.549 354.553 257.41 354.9 256.303 355.327C256.224 357.713 255.75 363.116 255.544 362.706C254.563 360.683 254.01 358.566 253.646 356.401C252.475 356.923 251.321 357.492 250.198 358.108C249.866 358.297 249.549 358.471 249.233 358.661C248.031 359.372 246.892 360.13 245.785 360.952C245.484 361.157 245.199 361.394 244.915 361.615C243.554 362.674 242.289 363.843 241.119 365.107C240.612 365.644 240.138 366.213 239.663 366.798C239.3 369.658 238.73 375.962 238.477 375.709C237.402 374.619 236.8 373.181 236.421 371.664C234.808 374.635 233.653 377.858 233.163 381.223C232.451 386.011 235.314 394.416 237.18 399.014C237.987 400.973 238.588 402.237 238.667 402.253C239.126 402.316 239.6 402.19 239.948 401.7C245.358 394.179 250.783 386.311 257.047 379.485C262.377 373.702 269.4 371.016 276.597 368.346C279.855 367.145 290.089 364.997 290.168 360.573C290.168 360.525 290.168 360.478 290.168 360.43C290.01 355.659 281.69 353.431 278.163 352.878Z" fill="white"/>
<path d="M278.258 352.293C277.261 352.135 276.265 352.025 275.316 351.961C275.015 351.93 274.714 351.914 274.351 351.898C270.76 351.724 267.011 352.009 263.231 352.767L262.899 352.83L262.788 353.146C262.393 354.284 261.681 356.022 261.207 357.049C260.843 356.18 260.558 355.216 260.289 354.079L260.147 353.478L259.546 353.652C258.597 353.921 257.347 354.3 256.098 354.774L255.734 354.916V355.311C255.686 356.717 255.496 359.008 255.338 360.62C254.88 359.324 254.516 357.918 254.247 356.306L254.12 355.564L253.424 355.864C252.238 356.385 251.068 356.954 249.929 357.586C249.597 357.776 249.264 357.95 248.948 358.139C247.778 358.834 246.591 359.609 245.453 360.462C245.152 360.683 244.851 360.92 244.567 361.141C243.175 362.231 241.878 363.416 240.707 364.68C240.185 365.233 239.695 365.802 239.221 366.403L239.11 366.529V366.703C238.967 367.588 238.841 368.82 238.699 370.084C238.54 371.506 238.351 373.276 238.192 374.382C237.686 373.607 237.291 372.659 237.006 371.506L236.642 370.005L235.899 371.364C234.175 374.54 233.052 377.826 232.577 381.112C231.755 386.642 235.472 396.375 236.627 399.219C238.082 402.806 238.256 402.806 238.572 402.822C238.683 402.837 238.793 402.853 238.888 402.853C239.505 402.853 240.043 402.569 240.423 402.032L242.637 398.951C247.287 392.457 252.096 385.742 257.489 379.864C262.836 374.05 269.938 371.427 276.818 368.883C277.388 368.662 278.194 368.425 279.128 368.141C283.746 366.734 290.722 364.617 290.769 360.557V360.399C290.595 355.501 282.813 352.988 278.242 352.277L278.258 352.293ZM289.583 360.541C289.535 363.748 282.797 365.802 278.78 367.019C277.831 367.303 277.008 367.556 276.407 367.777C269.732 370.242 262.171 373.039 256.62 379.074C251.178 384.999 246.354 391.746 241.672 398.271L239.458 401.352C239.331 401.526 239.189 401.621 238.983 401.653C238.778 401.258 238.351 400.325 237.718 398.777C235.393 393.041 233.131 385.442 233.748 381.286C234.143 378.569 234.997 375.867 236.279 373.212C236.721 374.382 237.307 375.33 238.05 376.104L238.335 376.372L238.683 376.246C239.173 376.072 239.221 376.056 239.853 370.195C239.98 369.025 240.106 367.872 240.217 367.003C240.644 366.482 241.087 365.976 241.546 365.47C242.685 364.254 243.934 363.1 245.263 362.042C245.547 361.821 245.816 361.599 246.117 361.378C247.24 360.557 248.379 359.798 249.518 359.119C249.834 358.945 250.15 358.755 250.467 358.582C251.352 358.092 252.254 357.634 253.171 357.207C253.598 359.387 254.184 361.22 254.99 362.911L255.212 363.353L255.67 363.258C256.43 363.1 256.73 359.15 256.857 355.706C257.695 355.406 258.533 355.137 259.245 354.932C259.609 356.322 260.02 357.476 260.558 358.534L260.764 358.898L261.159 358.866C261.918 358.819 263.168 355.548 263.769 353.81C267.344 353.115 270.871 352.862 274.335 353.036C274.62 353.036 274.888 353.067 275.173 353.083C276.106 353.146 277.071 353.257 278.036 353.399C281.959 354.015 289.409 356.259 289.551 360.43L290.136 360.493H289.535L289.583 360.541Z" fill="#251C4C"/>
<path d="M238.793 401.005C237.939 402.79 237.307 404.702 237.006 406.819C235.962 413.898 236.279 421.355 236.453 428.481C236.516 430.82 236.611 433.174 236.737 435.512C237.148 435.433 237.544 435.37 237.955 435.291C237.876 433.806 237.813 432.336 237.765 430.851C237.544 424.468 237.56 418.069 237.844 411.702C238.003 408.399 238.303 405.097 239.584 402.032C239.727 401.937 239.853 401.826 239.964 401.668C245.373 394.148 250.799 386.279 257.062 379.454C262.393 373.671 269.416 370.985 276.613 368.315C279.871 367.114 290.105 364.965 290.184 360.541C276.534 362.137 260.779 362.295 250.767 372.17C242.068 380.749 239.363 396.518 238.793 400.989V401.005Z" fill="#251C4C"/>
<path d="M250.214 358.092C249.881 358.282 249.565 358.455 249.249 358.645C248.806 361.821 248.901 364.981 249.518 368.172C249.628 368.741 250.498 368.536 250.388 367.983C249.755 364.681 249.676 361.41 250.198 358.108L250.214 358.092Z" fill="#251C4C"/>
<path d="M245.785 360.936C245.484 361.141 245.199 361.378 244.915 361.6C245.025 364.412 245.453 367.193 246.18 369.942C246.322 370.495 247.208 370.305 247.066 369.737C246.291 366.829 245.864 363.922 245.801 360.936H245.785Z" fill="#251C4C"/>
<path d="M259.087 416.394H200.231C199.488 418.148 198.886 419.996 198.475 421.892C197.969 424.136 197.716 426.459 197.716 428.844C197.716 431.23 197.953 433.379 198.428 435.544C200.104 443.38 204.66 450.159 210.939 454.709H248.426C254.706 450.159 259.261 443.38 260.938 435.544C261.396 433.395 261.649 431.151 261.649 428.844C261.649 426.538 261.381 424.12 260.89 421.892C260.463 419.981 259.878 418.148 259.119 416.394H259.087Z" fill="#F4D933"/>
<path d="M259.482 416.22L259.372 415.968H199.946L199.836 416.22C199.06 418.037 198.459 419.918 198.048 421.798C197.526 424.089 197.273 426.459 197.273 428.845C197.273 431.23 197.51 433.411 197.985 435.623C199.646 443.428 204.154 450.317 210.655 455.041L210.765 455.12H248.537L248.648 455.041C255.149 450.333 259.656 443.428 261.317 435.623C261.792 433.411 262.029 431.136 262.029 428.845C262.029 426.554 261.776 424.089 261.254 421.798C260.827 419.886 260.226 418.006 259.467 416.22H259.482ZM260.511 435.465C258.897 443.017 254.547 449.701 248.284 454.283H211.066C204.786 449.685 200.452 443.017 198.839 435.465C198.38 433.316 198.143 431.088 198.143 428.86C198.143 426.633 198.396 424.231 198.902 421.987C199.282 420.249 199.836 418.511 200.531 416.821H258.818C259.514 418.48 260.052 420.218 260.447 422.003C260.953 424.231 261.207 426.554 261.207 428.876C261.207 431.199 260.969 433.332 260.511 435.481V435.465Z" fill="#251C4C"/>
<path d="M370.109 428.039C368.986 429.445 371.279 440.394 371.5 442.338C371.754 444.597 382.667 442.101 383.838 440.963C385.04 439.778 384.455 430.867 384.059 428.544C383.933 427.786 371.279 426.569 370.109 428.023V428.039Z" fill="white"/>
<path d="M383.458 427.675C381.149 427.075 371.01 426.016 369.666 427.691C368.796 428.765 369.302 432.81 370.52 439.889C370.725 441.058 370.884 441.99 370.931 442.417C370.978 442.78 371.184 443.286 371.991 443.57C372.449 443.728 373.114 443.807 373.889 443.807C377.384 443.807 383.237 442.338 384.218 441.374C385.768 439.857 384.85 429.998 384.597 428.465C384.518 427.991 383.98 427.817 383.442 427.675H383.458ZM383.442 440.568C382.62 441.374 374.664 443.317 372.386 442.511C372.228 442.464 372.07 442.369 372.054 442.29C372.007 441.816 371.833 440.884 371.627 439.699C371.137 436.855 369.824 429.287 370.536 428.402C370.804 428.102 372.766 427.754 377.021 428.007C380.295 428.197 382.857 428.623 383.522 428.876C384.028 432.131 384.265 439.762 383.427 440.584L383.442 440.568Z" fill="#251C4C"/>
<path d="M371.152 440.189C371.152 440.189 362.279 440.047 354.386 441.01C346.509 441.958 346.746 453.176 346.746 453.176C355.936 454.614 386.4 453.176 386.4 453.176C390.576 446.619 384.724 438.261 384.724 438.261C378.998 444.471 371.152 440.189 371.152 440.189Z" fill="#251C4C"/>
<path d="M439.277 428.086C438.154 429.492 440.053 441.611 440.258 443.57C440.511 445.829 450.017 442.117 451.188 440.979C452.39 439.794 451.805 430.883 451.409 428.56C451.283 427.802 440.432 426.632 439.262 428.086H439.277Z" fill="white"/>
<path d="M450.682 427.612C448.657 427.091 440.147 426.095 438.835 427.739C438.044 428.734 438.218 432.589 439.483 441.959C439.578 442.717 439.673 443.317 439.705 443.633C439.768 444.139 440.084 444.518 440.606 444.692C440.875 444.787 441.207 444.834 441.603 444.834C444.576 444.834 450.618 442.322 451.583 441.374C453.133 439.857 452.216 429.998 451.963 428.465C451.884 428.007 451.425 427.802 450.682 427.612ZM450.792 440.568C449.938 441.406 442.789 444.281 440.97 443.633C440.812 443.586 440.812 443.539 440.812 443.507C440.78 443.191 440.701 442.591 440.59 441.816C439.483 433.616 439.183 429.129 439.705 428.45C440.448 427.502 449.385 428.118 450.887 428.86C451.393 432.099 451.631 439.762 450.792 440.584V440.568Z" fill="#251C4C"/>
<path d="M354.639 226.32C344.627 247.824 342.286 293.154 342.286 320.346C342.286 347.538 359.796 408.826 368.954 436.144L385.799 434.532C385.799 434.532 385.799 392.963 385.704 391.762C384.265 373.86 382.952 337.789 384.392 319.887C385.167 310.265 392.759 291.748 398.959 275.853C404.29 262.138 408.149 241.44 406.109 239.118C401.696 234.109 364.161 205.859 354.639 226.32Z" fill="#251C4C"/>
<path d="M403.024 266.641C401.395 261.743 403.436 251.22 399.386 248.503C396.033 246.275 382.921 261.08 381.465 265.456C380.295 268.916 382.446 273.309 382.699 276.769C383.158 283.121 381.608 289.362 378.507 294.923C373.857 303.139 368.163 309.617 365.553 318.924C360.507 337.015 364.557 355.896 368.796 373.702C371.485 384.92 374.363 396.233 375.044 407.799C375.423 414.451 376.341 429.002 375.407 435.528L385.799 434.532C385.799 434.532 387.871 409.489 386.906 391.635C385.926 373.718 382.968 337.773 384.392 319.887C385.167 310.265 396.84 282.536 403.04 266.641H403.024Z" fill="#251C4C"/>
<path d="M446.822 329.763C446.759 327.503 446.727 325.212 446.727 322.984C446.49 284.322 457.056 266.373 444.513 236.653C442.599 232.071 440.132 227.205 436.968 221.943C435.987 220.332 433.757 219.731 430.689 220.11C422.922 221.027 405.476 226.13 395.195 238.644C395.195 238.644 395.226 239.592 395.258 241.361C395.511 252.421 401.269 297.357 406.03 339.337C409.098 366.371 429.945 410.39 437.743 436.16L452.691 434.548C452.691 434.548 456.518 414.846 447.502 382.108C442.9 365.423 447.218 345.736 446.822 329.763Z" fill="#251C4C"/>
<path d="M446.822 329.762C446.759 327.503 446.727 325.212 446.727 322.984C446.49 284.322 457.04 265.44 444.513 235.721C444.513 229.78 430.451 226.888 430.325 230.507C430.214 234.915 430.784 239.212 431.448 243.478C432.682 250.983 434.279 258.394 433.204 266.136C431.511 278.112 427.636 289.409 426.845 301.607C425.39 324.027 430.515 344.614 438.139 365.455C442.9 378.395 446.743 391.288 448.23 405.018C449.179 413.724 449.385 426.127 449.306 434.88L452.706 434.548C452.706 434.548 456.629 422.193 450.381 381.033C447.787 363.906 447.202 345.736 446.822 329.762Z" fill="#251C4C"/>
<path d="M439.736 439.62C439.736 439.62 429.629 440.047 421.752 440.995C413.875 441.943 414.112 453.161 414.112 453.161C423.302 454.598 453.766 453.161 453.766 453.161C457.942 446.604 452.089 438.245 452.089 438.245C446.364 444.455 439.736 439.604 439.736 439.604V439.62Z" fill="#251C4C"/>
<path d="M311.015 122.229C309.639 122.103 307.092 121.724 305.843 122.213C305.131 122.498 304.435 122.956 304.704 123.983C304.926 124.852 305.764 125.373 306.476 125.5C307.915 125.768 308.168 126.242 309.639 127.901C307.44 128.628 304.23 128.802 298.44 125.911C296.495 124.947 294.186 123.872 291.924 124.252C291.528 124.315 291.133 124.615 291.006 125.026C290.975 125.136 290.975 125.215 290.959 125.326C290.706 125.263 290.453 125.215 290.2 125.2C288.792 125.105 287.764 125.31 287.384 126.906C287.131 127.996 287.637 129.165 288.428 130.256C287.637 130.445 287.005 130.856 286.72 131.757C285.708 134.964 289.33 136.734 293.205 137.65C293.569 140.921 300.291 141.458 306.412 140.589C306.049 142.264 306.033 144.318 306.175 145.392C306.238 145.819 306.555 146.166 306.95 146.308C308.864 146.988 311.838 147.004 313.846 146.877C315.586 146.767 316.093 145.724 316.741 144.223C318.291 140.605 319.525 131.693 313.451 123.699C312.803 122.845 312.012 122.34 311.031 122.245L311.015 122.229Z" fill="white"/>
<path d="M311.063 121.66C310.841 121.644 310.604 121.613 310.335 121.581C308.848 121.423 306.808 121.202 305.637 121.676C304.372 122.182 303.882 123.003 304.15 124.109C304.419 125.215 305.463 125.879 306.365 126.037C307.409 126.226 307.662 126.495 308.611 127.585C306.744 127.996 303.787 127.949 298.678 125.389C296.511 124.299 294.186 123.288 291.813 123.683C291.244 123.777 290.753 124.157 290.516 124.646C290.405 124.631 290.31 124.615 290.215 124.615C288.808 124.52 287.289 124.694 286.815 126.748C286.593 127.696 286.831 128.77 287.542 129.924C286.862 130.256 286.403 130.793 286.166 131.551C285.834 132.61 285.913 133.605 286.435 134.506C287.305 136.054 289.425 137.239 292.699 138.077C292.873 138.74 293.268 139.325 293.901 139.815C296.242 141.632 301.382 141.742 305.701 141.221C305.463 142.769 305.463 144.476 305.606 145.455C305.685 146.071 306.143 146.609 306.744 146.83C308.231 147.367 310.224 147.493 311.822 147.493C312.66 147.493 313.404 147.462 313.878 147.43C316.029 147.288 316.662 145.834 317.263 144.428C318.845 140.747 320.173 131.599 313.894 123.351C313.119 122.34 312.17 121.771 311.063 121.676V121.66ZM316.219 143.986C315.586 145.439 315.207 146.214 313.799 146.308C312.771 146.372 309.259 146.545 307.124 145.771C306.918 145.692 306.744 145.503 306.729 145.297C306.57 144.254 306.602 142.279 306.95 140.684L307.124 139.894L306.317 140.004C301.019 140.747 296.4 140.32 294.597 138.914C294.091 138.519 293.822 138.077 293.759 137.555L293.711 137.16L293.331 137.065C290.2 136.323 288.159 135.248 287.432 133.937C287.084 133.321 287.02 132.641 287.273 131.883C287.479 131.251 287.859 130.919 288.57 130.745L289.393 130.556L288.903 129.876C288.08 128.754 287.764 127.775 287.954 126.985C288.207 125.911 288.729 125.626 290.184 125.721C290.374 125.721 290.579 125.768 290.848 125.831L291.418 125.974L291.544 125.405C291.544 125.405 291.56 125.278 291.576 125.152C291.623 124.978 291.845 124.804 292.05 124.773C294.091 124.425 296.226 125.389 298.219 126.384C304.546 129.544 307.883 129.055 309.845 128.407L310.651 128.138L309.576 126.922C308.5 125.689 308.057 125.184 306.602 124.915C306.064 124.82 305.432 124.441 305.273 123.825C305.147 123.351 305.242 123.051 306.08 122.719C306.998 122.355 308.943 122.561 310.24 122.703C310.509 122.735 310.762 122.766 310.984 122.782C311.774 122.845 312.423 123.256 313.008 124.014C318.971 131.867 317.722 140.51 316.235 143.97L316.219 143.986Z" fill="#251C4C"/>
<path d="M373.699 121.423C358.103 128.644 333.112 171.241 328.936 173.532C324.713 175.823 321.202 142.643 316.899 141.758C316.899 141.758 302.363 141.41 301.857 144.855C301.857 144.855 300.797 148.346 299.801 153.671C296.337 171.43 293.094 209.793 330.043 207.612C363.75 205.574 371.801 184.307 373.62 171.794C374.395 166.469 374.015 162.74 374.015 162.74C374.015 162.74 383.237 117.047 373.731 121.423H373.699Z" fill="#251C4C"/>
<path d="M445.494 188.384C445.604 184.987 445.668 181.542 445.683 178.13C445.889 156.136 444.45 135.043 439.499 131.235C438.408 130.382 437.142 129.497 435.734 128.549C433.647 127.111 431.211 125.626 428.458 124.188C424.156 121.929 419.11 119.843 413.464 118.405C404.78 116.146 394.657 115.403 383.537 117.947C383.537 117.947 383.537 117.979 383.506 117.979C380.817 118.579 378.065 119.385 375.249 120.444C374.585 120.681 373.936 120.933 373.24 121.186C363.845 124.962 365.189 145.408 366.708 162.567C367.404 170.53 368.116 177.766 367.831 182.285C367.72 183.802 367.546 185.319 367.261 186.804C365.142 199.428 352.251 222.085 350.669 231.265C351.096 232.608 386.353 240.745 397.156 242.404C408.766 244.205 422.464 244.806 432.476 244.347C440.163 243.968 445.683 243.004 446.443 241.456C447.961 238.185 444.861 209.508 445.494 188.368V188.384Z" fill="#251C4C"/>
<path d="M391.826 116.588C391.826 116.588 389.659 120.57 391.826 121.012C396.602 121.96 403.499 116.604 403.499 116.604V102.574L391.826 107.409V116.588Z" fill="white"/>
<path d="M391.256 116.462C390.94 117.078 389.864 119.322 390.481 120.649C390.718 121.139 391.13 121.455 391.715 121.565C392.142 121.644 392.585 121.692 393.028 121.692C397.82 121.692 403.578 117.252 403.847 117.047L404.068 116.873V101.736L391.272 107.029V116.446L391.256 116.462ZM392.316 116.873L392.379 116.746V107.788L402.929 103.427V116.32C401.743 117.189 395.938 121.265 391.936 120.459C391.652 120.396 391.573 120.286 391.509 120.159C391.193 119.496 391.794 117.821 392.316 116.857V116.873Z" fill="#251C4C"/>
<path d="M382.826 90.4394C382.826 90.4394 382.003 100.109 383.949 108.056C385.341 113.697 397.947 116.936 402.993 106.255C408.038 95.5744 401.3 84.8936 401.3 84.8936L382.826 90.4394Z" fill="white"/>
<path d="M401.553 84.23L382.304 90.0128L382.272 90.392C382.272 90.4868 381.449 100.251 383.411 108.199C384.123 111.09 387.413 113.397 391.43 113.808C391.841 113.855 392.253 113.871 392.664 113.871C397.298 113.871 401.3 111.185 403.515 106.508C408.639 95.6692 401.854 84.704 401.791 84.5934L401.569 84.23H401.553ZM402.502 106.018C400.304 110.663 396.207 113.144 391.541 112.67C388.061 112.322 385.103 110.316 384.502 107.914C382.81 101.025 383.237 92.7146 383.363 90.8502L401.047 85.5414C402.139 87.4848 406.836 96.8226 402.502 106.002V106.018Z" fill="#251C4C"/>
<path d="M403.246 82.1444C400.509 80.1852 397.425 80.359 394.246 80.7382C391.652 81.0542 389.548 81.3386 386.922 80.7224C385.372 80.359 384.154 79.8534 382.525 79.964C376.435 80.3748 371.627 85.9048 377.369 90.5974C382.952 95.1636 392.632 92.5408 399.782 90.2656C399.892 91.0398 400.114 91.814 400.209 92.446C400.683 95.1952 400.304 98.8766 402.123 101.215C403.341 102.763 405.492 103.19 407.105 101.942C408.165 101.12 408.339 100.188 408.291 99.1768C409.936 93.6784 407.564 85.2412 403.23 82.1602L403.246 82.1444Z" fill="#251C4C"/>
<path d="M392.806 104.517C391.667 104.517 390.639 103.443 389.485 103.854C389.358 103.901 389.295 103.996 389.184 104.075C388.979 104.154 388.773 104.28 388.599 104.47C388.346 104.754 388.061 105.023 387.776 105.276C387.413 105.528 387.033 105.765 386.701 106.097C385.404 107.44 387.08 109.305 388.583 108.262C389.184 107.851 389.69 107.377 390.196 106.887C390.26 106.84 390.307 106.792 390.37 106.729C391.114 106.935 391.81 107.377 392.648 107.377C394.483 107.377 394.673 104.517 392.806 104.517Z" fill="#251C4C"/>
<path d="M350.875 230.744L350.495 231.802C350.938 231.96 390.26 245.927 431.052 245.927C437.095 245.927 443.184 245.627 449.179 244.916L449.053 243.794C402.914 249.214 351.397 230.933 350.891 230.744H350.875Z" fill="white"/>
<path fill-rule="evenodd" clip-rule="evenodd" d="M396.618 204.089C380.358 201.324 376.594 227.062 376.594 227.062C413.701 235.278 471.307 290.926 471.307 290.926C482.664 284.748 485.938 269.343 485.938 269.343C436.146 244.3 396.634 204.089 396.634 204.089H396.618Z" fill="#F4D933"/>
<path d="M397.045 203.662L396.919 203.52L396.729 203.489C392.98 202.857 389.58 203.631 386.59 205.795C378.318 211.799 376.103 226.351 376.008 226.967L375.929 227.505L376.467 227.631C412.989 235.705 470.311 290.784 470.896 291.337L471.213 291.637L471.592 291.432C483.06 285.191 486.381 270.102 486.524 269.454L486.619 269.011L486.207 268.806C437.079 244.095 397.457 204.073 397.061 203.662H397.045ZM471.387 290.183C469.156 288.05 455.522 275.173 438.218 261.601C420.961 248.061 396.46 231.075 377.258 226.604C377.748 223.902 380.263 211.847 387.27 206.759C389.928 204.816 392.98 204.105 396.318 204.626C398.928 207.249 437.569 245.564 485.227 269.643C484.594 272.156 481.019 284.669 471.387 290.168V290.183Z" fill="#251C4C"/>
<path d="M394.451 208.56C394.325 208.497 394.088 208.244 394.072 208.134C394.04 207.992 394.024 208.213 393.945 208.529C394.056 208.529 394.167 208.529 394.262 208.529C394.341 208.529 394.404 208.545 394.451 208.56Z" fill="#251C4C"/>
<path d="M380.516 224.044L380.453 224.439C380.453 224.439 380.453 224.55 380.437 224.676C380.627 223.697 380.864 222.717 381.117 221.769C380.88 222.48 380.659 223.207 380.516 224.044Z" fill="#251C4C"/>
<path d="M387.808 210.725C387.634 210.867 387.492 211.009 387.334 211.151C387.729 210.835 388.124 210.551 388.551 210.282C388.267 210.409 388.03 210.583 387.824 210.709L387.808 210.725Z" fill="#251C4C"/>
<path d="M387.824 217.551C389.105 216.761 390.307 215.813 391.145 214.343C391.399 213.932 391.573 213.379 391.588 212.795C391.193 213.363 390.766 213.917 390.339 214.47C389.532 215.512 388.694 216.539 387.824 217.551Z" fill="#251C4C"/>
<path d="M396.428 204.705C395.606 204.326 394.942 204.294 394.356 204.279C393.218 204.31 392.3 204.484 391.462 204.784C389.738 205.274 388.061 206.064 386.638 207.186C383.711 209.35 381.877 212.526 380.959 215.702C380.058 218.909 379.805 222.212 380.279 225.387C380.326 225.15 380.374 224.913 380.421 224.676C380.421 224.55 380.437 224.455 380.437 224.439L380.5 224.044C380.659 223.207 380.864 222.48 381.117 221.769C381.624 219.936 382.256 218.167 383.095 216.539C384.138 214.375 385.594 212.526 387.334 211.167C387.492 211.025 387.634 210.867 387.808 210.741C388.014 210.599 388.251 210.441 388.536 210.314C388.583 210.283 388.631 210.235 388.678 210.204C389.833 209.493 391.146 209.082 392.458 208.766C392.964 208.608 393.502 208.545 393.914 208.545C393.993 208.229 394.008 207.992 394.04 208.15C394.056 208.26 394.293 208.529 394.42 208.576C394.499 208.592 394.53 208.608 394.467 208.608C394.467 208.608 394.436 208.592 394.42 208.576C394.372 208.576 394.309 208.545 394.23 208.545C394.135 208.545 394.024 208.545 393.914 208.545C393.866 208.703 393.819 208.892 393.74 209.066C393.518 209.619 393.202 210.235 392.838 210.851C392.458 211.499 392.015 212.163 391.557 212.811C391.525 213.395 391.367 213.948 391.114 214.359C390.26 215.828 389.058 216.761 387.792 217.566C387.144 218.325 386.479 219.052 385.815 219.778C385.736 220.015 385.657 220.237 385.578 220.474C385.135 221.896 384.708 223.428 384.566 224.645V224.787C384.566 224.898 384.534 224.913 384.566 224.834V224.787C384.566 224.787 384.566 224.597 384.518 224.408C384.486 224.266 384.423 224.123 384.36 224.013C384.281 223.871 384.123 223.649 383.949 223.507C383.743 223.349 383.601 223.254 383.427 223.191C383.269 223.112 383.015 223.081 382.936 223.065C382.509 223.033 382.399 223.096 382.335 223.112C382.24 223.144 382.573 222.954 382.778 222.765C383.269 222.37 383.822 221.864 384.344 221.343C384.85 220.837 385.341 220.331 385.831 219.81C386.242 218.609 386.701 217.408 387.191 216.239C387.776 214.88 388.488 213.443 389.279 212.558C389.453 212.337 389.659 212.242 389.564 212.226C389.516 212.226 389.453 212.131 389.501 212.163C389.516 212.115 389.627 212.305 389.722 212.352C390.054 212.684 390.117 213.237 389.943 213.917C389.58 215.26 388.583 216.587 387.555 217.788C387.65 217.74 387.729 217.677 387.824 217.614C388.694 216.603 389.532 215.576 390.339 214.533C390.766 213.98 391.193 213.411 391.588 212.858C391.604 212.384 391.541 211.894 391.288 211.436C391.114 211.183 391.082 210.978 390.782 210.709C390.544 210.441 390.086 210.219 389.643 210.188C389.2 210.172 388.836 210.267 388.551 210.377C388.124 210.63 387.729 210.93 387.334 211.246C386.084 212.368 385.293 213.601 384.471 214.833C383.585 216.239 382.857 217.709 382.177 219.21C381.797 220.079 381.434 220.932 381.117 221.848C380.848 222.796 380.627 223.776 380.437 224.755C380.437 224.929 380.437 225.182 380.516 225.53C380.564 225.719 380.643 225.893 380.722 226.067C380.817 226.241 381.022 226.509 381.228 226.683C381.45 226.888 381.655 226.983 381.877 227.078C382.082 227.157 382.367 227.236 382.509 227.236C383.142 227.283 383.443 227.157 383.696 227.094C384.534 226.778 384.866 226.525 385.277 226.241C386.052 225.703 386.701 225.166 387.349 224.613C389.849 222.385 392.015 219.984 394.056 217.377C395.037 216.05 395.986 214.691 396.84 213.174C397.267 212.416 397.662 211.626 397.994 210.693C398.168 210.235 398.311 209.73 398.421 209.145C398.516 208.56 398.58 207.865 398.327 206.98C398.105 206.08 397.251 205.1 396.428 204.753V204.705Z" fill="#251C4C"/>
<path d="M382.778 222.717C382.557 222.907 382.24 223.096 382.335 223.065C382.399 223.065 382.509 222.986 382.936 223.017C383.031 223.017 383.284 223.065 383.427 223.144C383.601 223.223 383.743 223.302 383.949 223.46C384.123 223.602 384.281 223.839 384.36 223.965C384.439 224.092 384.486 224.218 384.518 224.36C384.566 224.55 384.566 224.676 384.566 224.74V224.597C384.724 223.381 385.151 221.848 385.594 220.426C385.673 220.189 385.752 219.968 385.831 219.731C385.341 220.252 384.834 220.774 384.344 221.264C383.822 221.785 383.284 222.291 382.778 222.686V222.717Z" fill="#251C4C"/>
<path fill-rule="evenodd" clip-rule="evenodd" d="M397.061 226.841C380.58 227.694 382.525 253.638 382.525 253.638C420.534 253.559 488.896 295.318 488.896 295.318C498.624 286.818 498.466 271.081 498.466 271.081C444.418 257.493 397.061 226.857 397.061 226.857V226.841Z" fill="white"/>
<path d="M498.624 270.497C445.288 257.098 397.868 226.667 397.393 226.351L397.235 226.241H397.045C393.249 226.446 390.086 227.947 387.65 230.712C380.896 238.375 381.908 253.053 381.956 253.67L382.003 254.223H382.557C382.557 254.223 382.636 254.223 382.667 254.223C420.107 254.223 487.931 295.397 488.612 295.808L488.975 296.029L489.308 295.745C499.13 287.166 499.083 271.697 499.067 271.05V270.591L498.624 270.481V270.497ZM488.849 294.576C486.207 292.98 470.09 283.389 450.239 273.909C430.436 264.461 402.819 253.211 383.11 253.053C383 250.32 382.81 237.996 388.551 231.502C390.734 229.037 393.55 227.679 396.935 227.457C400.051 229.448 446.126 258.425 497.896 271.539C497.817 274.131 497.058 287.118 488.865 294.592L488.849 294.576Z" fill="#251C4C"/>
<path d="M389.928 235.247C389.785 235.421 389.675 235.61 389.548 235.784C389.864 235.389 390.196 235.01 390.56 234.662C390.307 234.852 390.117 235.057 389.928 235.247Z" fill="#251C4C"/>
<path d="M385.799 247.476C385.72 248.218 385.673 248.977 385.704 249.83L385.736 250.225C385.736 250.225 385.736 250.336 385.768 250.462C385.736 249.467 385.768 248.471 385.799 247.476Z" fill="#251C4C"/>
<path d="M395.922 231.692C395.78 231.66 395.495 231.455 395.448 231.344C395.385 231.202 395.416 231.439 395.416 231.771C395.511 231.739 395.638 231.708 395.717 231.692C395.796 231.692 395.859 231.692 395.907 231.692H395.922Z" fill="#251C4C"/>
<path d="M391.399 241.93C392.474 240.872 393.471 239.687 393.977 238.059C394.135 237.601 394.167 237.016 394.072 236.448C393.803 237.08 393.518 237.727 393.218 238.359C392.664 239.56 392.047 240.761 391.414 241.93H391.399Z" fill="#251C4C"/>
<path d="M387.634 248.045C387.46 248.282 387.191 248.534 387.27 248.487C387.334 248.455 387.428 248.376 387.856 248.313C387.95 248.313 388.203 248.282 388.362 248.313C388.536 248.345 388.71 248.392 388.947 248.503C389.153 248.598 389.358 248.803 389.453 248.914C389.548 249.024 389.643 249.135 389.706 249.261C389.801 249.435 389.833 249.561 389.848 249.625V249.482C389.706 248.266 389.785 246.67 389.896 245.185C389.928 244.916 389.959 244.648 389.991 244.363C389.611 245.011 389.247 245.659 388.852 246.275C388.457 246.891 388.03 247.507 387.634 248.013V248.045Z" fill="#251C4C"/>
<path d="M397.014 227.489C396.128 227.299 395.464 227.41 394.91 227.52C393.803 227.789 392.965 228.168 392.189 228.642C390.624 229.496 389.137 230.633 387.998 232.039C385.609 234.789 384.518 238.28 384.328 241.598C384.154 244.932 384.629 248.203 385.783 251.189C385.783 250.952 385.783 250.699 385.783 250.462C385.768 250.336 385.752 250.257 385.752 250.225L385.72 249.83C385.689 248.993 385.736 248.219 385.815 247.476C385.91 245.58 386.147 243.716 386.606 241.946C387.144 239.608 388.172 237.49 389.548 235.784C389.675 235.61 389.785 235.421 389.928 235.247C390.102 235.073 390.291 234.852 390.56 234.662C390.608 234.615 390.639 234.567 390.671 234.536C391.652 233.588 392.822 232.893 394.056 232.308C394.53 232.039 395.021 231.881 395.432 231.787C395.432 231.455 395.4 231.218 395.464 231.36C395.495 231.47 395.796 231.676 395.938 231.707C396.017 231.707 396.049 231.707 395.986 231.707C395.986 231.707 395.954 231.707 395.938 231.707C395.891 231.707 395.827 231.707 395.748 231.707C395.669 231.707 395.543 231.755 395.448 231.787C395.448 231.945 395.448 232.134 395.4 232.324C395.305 232.924 395.131 233.588 394.91 234.267C394.673 234.994 394.388 235.721 394.088 236.463C394.198 237.032 394.151 237.617 393.993 238.075C393.486 239.702 392.506 240.887 391.414 241.946C390.956 242.783 390.481 243.605 389.991 244.427C389.959 244.695 389.912 244.964 389.896 245.248C389.785 246.733 389.706 248.313 389.817 249.546V249.688C389.864 249.783 389.849 249.814 389.849 249.735V249.688C389.849 249.688 389.785 249.498 389.706 249.325C389.643 249.198 389.564 249.072 389.453 248.977C389.358 248.866 389.137 248.661 388.947 248.566C388.725 248.456 388.551 248.408 388.362 248.377C388.204 248.345 387.935 248.361 387.856 248.377C387.428 248.44 387.334 248.535 387.27 248.55C387.191 248.598 387.46 248.345 387.634 248.108C388.03 247.618 388.457 247.002 388.852 246.37C389.247 245.754 389.611 245.09 389.991 244.458C390.117 243.226 390.307 241.993 390.529 240.777C390.798 239.323 391.177 237.759 391.762 236.716C391.889 236.463 392.063 236.305 391.968 236.321C391.921 236.321 391.841 236.242 391.889 236.274C391.889 236.226 392.047 236.384 392.142 236.416C392.537 236.669 392.727 237.19 392.696 237.901C392.632 239.292 391.952 240.808 391.209 242.199C391.272 242.136 391.335 242.057 391.399 241.993C392.031 240.808 392.648 239.623 393.202 238.423C393.502 237.791 393.787 237.159 394.056 236.511C393.961 236.037 393.787 235.579 393.455 235.184C393.233 234.978 393.154 234.789 392.791 234.583C392.506 234.378 392 234.251 391.573 234.33C391.13 234.409 390.813 234.567 390.544 234.757C390.181 235.105 389.849 235.484 389.532 235.879C388.567 237.253 388.061 238.612 387.523 240.003C386.97 241.567 386.574 243.163 386.242 244.774C386.068 245.706 385.894 246.607 385.783 247.571C385.736 248.55 385.72 249.562 385.752 250.557C385.783 250.715 385.847 250.968 386.005 251.315C386.1 251.489 386.211 251.647 386.321 251.789C386.448 251.947 386.717 252.153 386.954 252.279C387.223 252.421 387.444 252.485 387.666 252.516C387.887 252.548 388.188 252.548 388.314 252.532C388.931 252.437 389.2 252.263 389.437 252.121C390.181 251.631 390.45 251.3 390.798 250.952C391.446 250.257 391.952 249.593 392.458 248.914C394.42 246.196 396.001 243.384 397.425 240.398C398.105 238.881 398.722 237.348 399.228 235.689C399.481 234.852 399.703 233.999 399.829 233.019C399.892 232.529 399.924 232.008 399.892 231.423C399.861 230.839 399.766 230.143 399.323 229.337C398.912 228.5 397.868 227.726 396.982 227.568L397.014 227.489Z" fill="#251C4C"/>
<path d="M445.193 264.84C444.798 263.94 444.038 263.071 443.58 263.213C441.381 263.876 436.589 266.073 434.39 266.389C432.872 266.61 430.578 267.668 431.717 269.58C432.191 270.37 433.188 270.749 434.248 270.907C433.947 273.151 434.77 275.284 437.158 276.279C437.996 276.627 438.882 276.817 439.768 276.896C442.504 277.733 445.446 277.464 447.819 275.758C450.144 274.099 452.469 270.828 450.413 268.127C449.163 266.499 447.265 265.377 445.193 264.824V264.84Z" fill="white"/>
<path d="M445.589 264.382C445.13 263.481 444.26 262.423 443.406 262.691C442.583 262.944 441.397 263.402 440.147 263.892C438.028 264.714 435.624 265.662 434.295 265.851C433.125 266.025 431.574 266.626 431.021 267.763C430.799 268.221 430.657 268.964 431.211 269.88C431.654 270.607 432.46 271.113 433.615 271.381C433.457 273.878 434.675 275.884 436.921 276.817C437.759 277.164 438.661 277.385 439.641 277.464C440.669 277.78 441.713 277.923 442.726 277.923C444.687 277.923 446.569 277.354 448.135 276.232C449.654 275.142 451.393 273.23 451.71 271.113C451.884 269.896 451.599 268.79 450.856 267.811C449.638 266.231 447.787 265.014 445.589 264.382ZM450.587 270.939C450.318 272.724 448.736 274.415 447.471 275.316C445.383 276.817 442.615 277.196 439.91 276.358L439.799 276.327C438.929 276.248 438.107 276.058 437.364 275.758C435.434 274.952 434.485 273.214 434.785 270.986L434.864 270.433L434.311 270.354C433.219 270.181 432.508 269.833 432.191 269.296C431.954 268.885 431.907 268.537 432.049 268.237C432.365 267.574 433.504 267.084 434.469 266.957C435.94 266.752 438.408 265.788 440.575 264.935C441.777 264.461 442.915 264.019 443.691 263.782C443.88 263.861 444.355 264.335 444.671 265.077L444.782 265.33L445.051 265.393C447.107 265.946 448.847 267.036 449.954 268.49C450.508 269.217 450.729 270.054 450.587 270.939Z" fill="#251C4C"/>
<path d="M480.924 173.026C470.121 155.994 453.545 139.751 443.374 131.472C437.822 126.953 429.297 129.102 426.845 135.817C425.074 140.652 423.603 146.925 425.327 154.177C428.712 168.555 440.226 183.928 448.799 195.525C454.478 203.173 458.891 209.177 458.828 212.195C458.717 219.068 456.012 227.884 452.659 236.195C447.328 249.451 440.274 261.301 439.388 261.506L450.935 270.955L454.952 274.241C454.952 274.241 473.728 260.385 486.998 239.134C498.466 220.806 498.102 201.767 482.696 175.886C482.127 174.938 481.541 173.974 480.924 173.026Z" fill="#251C4C"/>
<path d="M367.562 126.874C367.499 127.111 361.994 150.653 367.325 174.401C366.692 186.598 363.924 196.331 363.908 196.426L365 196.742C365.031 196.647 367.847 186.756 368.464 174.385V174.306V174.227C363.165 150.717 368.622 127.364 368.685 127.127L367.594 126.874H367.562Z" fill="white"/>
<path d="M431.733 130.919L431.052 130.019C430.926 130.113 418.952 139.467 424.805 154.382C430.531 168.95 448.167 195.573 448.341 195.841L449.274 195.225C449.1 194.957 431.527 168.444 425.849 153.987C420.313 139.878 431.258 131.283 431.733 130.935V130.919Z" fill="white"/>
</g>
<defs>
<clipPath id="clip0_36_1526">
<rect width="500" height="457" fill="white"/>
</clipPath>
</defs>
</svg>
