<svg width="500" height="529" viewBox="0 0 500 529" fill="none" xmlns="http://www.w3.org/2000/svg">
<g clip-path="url(#clip0_23_722)">
<path d="M444.405 200.054C385.651 182.149 335.007 156.843 277.622 86.6335C220.254 16.4244 66.0218 38.0299 21.1881 143.344C-23.6457 248.657 8.63672 345.882 62.4407 363.875C116.245 381.868 139.329 399.508 169.031 468.589C192.852 523.995 325.334 550.694 366.376 497.244C441.456 399.508 443.528 437.679 479.391 364.774C515.255 291.868 504.757 218.434 444.423 200.036L444.405 200.054Z" fill="#FCE5DD"/>
<path d="M309.097 49.6609C264.983 59.2125 336.675 136.083 409.753 173.778C482.832 211.473 457.115 154.358 408.244 98.9166C368.325 53.6261 353.228 40.1094 309.097 49.6609Z" fill="#90FFFB"/>
<path d="M444.405 200.054C385.651 182.149 335.007 156.843 277.622 86.6335C220.254 16.4244 66.0218 38.0299 21.1881 143.344C-23.6457 248.657 8.63672 345.882 62.4407 363.875C116.245 381.868 139.329 399.508 169.031 468.589C192.852 523.995 325.334 550.694 366.376 497.244C441.456 399.508 443.528 437.679 479.391 364.774C515.255 291.868 504.757 218.434 444.423 200.036L444.405 200.054Z" fill="#90FFFB"/>
<path d="M491.258 525.493H31.3345V529H491.258V525.493Z" fill="#251C4C"/>
<path d="M180.213 494.618H46.3961V525.493H180.213V494.618Z" fill="#251C4C"/>
<path d="M172.682 494.618H38.8653V525.493H172.682V494.618Z" fill="white"/>
<path d="M38.1982 526.145H173.331V493.948H38.1982V526.145ZM39.5148 495.27H172.015V524.823H39.5148V495.27Z" fill="#251C4C"/>
<path d="M329.337 422.418H195.52V525.493H329.337V422.418Z" fill="#251C4C"/>
<path d="M319.857 422.418H186.041V525.493H319.857V422.418Z" fill="white"/>
<path d="M185.374 526.145H320.507V421.748H185.374V526.145ZM186.69 423.07H319.19V524.823H186.69V423.07Z" fill="#251C4C"/>
<path d="M477.741 290.124H343.924V525.475H477.741V290.124Z" fill="#251C4C"/>
<path d="M366.377 497.261C358.969 506.901 348.576 513.915 336.411 518.655V525.511H470.228V382.361C442.51 431.81 434.505 408.566 366.377 497.279V497.261Z" fill="white"/>
<path d="M336.394 518.638C348.576 513.915 358.969 506.901 366.359 497.244C434.487 408.531 442.492 431.775 470.21 382.326V290.106H336.394V518.62V518.638Z" fill="#90FFFB"/>
<path d="M335.744 526.145H470.877V289.471H335.744V526.145ZM337.061 290.793H469.561V524.823H337.061V290.793Z" fill="#251C4C"/>
<path d="M363.62 62.7899C344.276 60.2698 334.392 113.438 326.475 129.615C323.158 136.4 295.896 164.79 295.896 164.79L296.493 174.835C324.983 165.636 325.721 159.504 342.485 148.384C365.218 133.316 404.715 68.1472 363.62 62.7723V62.7899Z" fill="white"/>
<path d="M363.708 62.1378C349.015 60.217 339.975 87.9904 332.742 110.318C330.179 118.231 327.968 125.051 325.879 129.333C322.649 135.942 295.685 164.068 295.422 164.35L295.229 164.561L295.896 175.752L296.703 175.487C317.031 168.914 323.316 163.909 331.285 157.547C334.445 155.027 338.026 152.173 342.871 148.965C359.109 138.198 386.687 98.6698 381.561 76.4123C379.683 68.2529 373.679 63.4596 363.726 62.1555L363.708 62.1378ZM342.116 147.855C337.219 151.098 333.62 153.97 330.443 156.508C322.684 162.693 316.54 167.61 297.09 173.954L296.563 165.055C299.249 162.253 323.842 136.488 327.055 129.915C329.179 125.545 331.408 118.689 333.989 110.724C340.694 90.0171 349.84 61.662 363.533 63.4419C372.889 64.6579 378.524 69.1165 380.262 76.6943C384.984 97.2071 359.916 136.048 342.116 147.855Z" fill="#251C4C"/>
<path d="M365.762 50.2072C342.222 65.5214 333.971 90.158 333.971 90.158C342.116 110.054 372.766 122.901 372.766 122.901L389.741 95.392C392.831 67.0898 365.78 50.2072 365.78 50.2072H365.762Z" fill="#251C4C"/>
<path d="M355.721 57.5383C356.195 74.0508 360.39 102.089 377.049 120.487L387.723 115.852L365.745 50.2072C365.745 50.2072 360.478 52.8507 355.703 57.5383H355.721Z" fill="#251C4C"/>
<path d="M458.379 266.35L477.004 267.038L477.846 261.416L458.695 255.777L458.379 266.35Z" fill="white"/>
<path d="M457.712 266.985L477.566 267.725L478.584 260.94L458.045 254.896L457.712 266.985ZM459.327 256.658L477.127 261.892L476.46 266.368L459.081 265.716L459.344 256.658H459.327Z" fill="#251C4C"/>
<path d="M474.652 260.165C474.652 260.165 476.618 263.355 473.195 267.091C473.195 267.091 472.141 273.946 472.861 281.4C466.05 283.004 464.066 290 464.066 290L482.34 290.053L487.256 258.385C487.256 258.385 479.04 253.768 474.652 260.165Z" fill="white"/>
<path d="M474.125 259.777L473.879 260.13L474.09 260.5C474.16 260.605 475.722 263.337 472.703 266.632L472.563 266.773L472.527 266.967C472.527 266.967 471.509 273.646 472.141 280.872C465.471 282.757 463.505 289.507 463.417 289.789L463.171 290.635L482.885 290.687L487.887 258.455L487.958 257.997L487.554 257.768C487.554 257.768 478.759 252.939 474.072 259.742L474.125 259.777ZM481.779 289.383L464.997 289.33C465.752 287.498 468.034 283.198 473.001 282.035L473.563 281.894L473.51 281.312C472.861 274.721 473.651 268.518 473.809 267.372C476.67 264.13 475.863 261.257 475.406 260.218C478.952 255.512 484.921 257.962 486.536 258.755L481.779 289.383Z" fill="#251C4C"/>
<path d="M477.952 271.355C476.003 270.932 474.055 271.496 472.598 272.836C472.598 272.765 472.563 272.695 472.492 272.659C470.14 271.637 461.872 273.911 463.838 277.699C464.505 278.986 466.401 279.25 467.753 278.968C468.806 279.673 470.456 279.004 471.281 278.246C471.948 277.629 472.282 276.836 472.457 275.99C472.51 276.008 472.58 276.025 472.633 275.955C473.949 274.809 475.617 274.369 477.32 274.721C477.583 274.774 477.653 274.351 477.39 274.316C475.652 273.946 473.897 274.404 472.527 275.532C472.615 274.827 472.615 274.104 472.598 273.4C472.598 273.382 472.615 273.364 472.633 273.347V273.329C472.668 273.311 472.685 273.311 472.703 273.294C472.703 273.294 472.738 273.294 472.738 273.276C474.09 271.902 475.986 271.373 477.864 271.778C478.127 271.831 478.198 271.426 477.934 271.355H477.952ZM465.225 278.299C462.206 276.73 465.488 274.298 467.191 273.664C468.578 273.153 470.333 272.501 471.843 272.888C470.439 272.977 469.139 273.787 468.156 274.756C467.261 275.638 466.489 277.506 467.419 278.633C466.752 278.774 466.032 278.704 465.225 278.281V278.299ZM467.507 276.748C467.7 275.779 468.314 275.144 469.052 274.563C469.965 273.84 471 273.311 472.176 273.329C471.211 275.091 469.842 277.77 467.876 278.51C467.402 278.087 467.366 277.382 467.489 276.73L467.507 276.748ZM471.825 276.765C471.334 277.929 469.912 279.109 468.56 278.827C468.508 278.827 468.472 278.774 468.42 278.774C470.193 278.052 471.316 275.884 472.229 274.157C472.229 275.056 472.176 275.955 471.843 276.783L471.825 276.765Z" fill="#251C4C"/>
<path d="M484.973 257.874L480.374 287.427C480.234 288.361 481.673 288.59 481.814 287.656L486.413 258.103C486.553 257.169 485.114 256.94 484.973 257.874Z" fill="#251C4C"/>
<path d="M480.638 286.793L465.804 286.74C465.295 286.74 464.874 287.145 464.874 287.674C464.874 288.185 465.278 288.608 465.804 288.608L480.638 288.643C481.147 288.643 481.568 288.238 481.568 287.709C481.568 287.18 481.147 286.775 480.638 286.775V286.793Z" fill="#251C4C"/>
<path d="M346.013 265.716L354.299 282.475L359.636 280.519L355.405 260.923L346.013 265.716Z" fill="white"/>
<path d="M345.118 265.416L353.966 283.286L360.39 280.942L355.861 259.953L345.118 265.434V265.416ZM354.633 281.647L346.891 266.016L354.949 261.909L358.881 280.096L354.65 281.647H354.633Z" fill="#251C4C"/>
<path d="M360.162 277.893C360.162 277.893 357.336 280.325 353.123 277.506C353.123 277.506 328.494 277.506 323.684 290.124H363.849C363.849 290.124 367.131 281.259 360.162 277.893Z" fill="white"/>
<path d="M360.443 277.294L360.057 277.1L359.723 277.382C359.723 277.382 357.231 279.462 353.474 276.959L353.316 276.854H353.123C352.087 276.854 327.985 277.012 323.07 289.894L322.736 290.793H364.323L364.481 290.37C364.516 290.282 367.886 280.907 360.461 277.312L360.443 277.294ZM363.375 289.471H324.685C329.846 278.863 350.7 278.211 352.93 278.175C356.564 280.501 359.267 279.268 360.215 278.669C365.393 281.471 363.901 287.762 363.375 289.471Z" fill="#251C4C"/>
<path d="M347.365 277.823C347.365 277.823 347.488 277.77 347.506 277.682C348.138 275.197 344.644 267.355 341.221 269.875C340.045 270.738 340.08 272.659 340.572 273.963C340.045 275.109 340.94 276.66 341.818 277.347C342.538 277.911 343.363 278.122 344.223 278.175C344.223 278.228 344.223 278.299 344.276 278.351C345.61 279.479 346.312 281.065 346.207 282.81C346.207 283.074 346.61 283.074 346.628 282.81C346.716 281.03 346.013 279.356 344.679 278.175C345.399 278.158 346.101 278.052 346.786 277.911C346.803 277.911 346.821 277.911 346.856 277.929C346.856 277.929 346.874 277.929 346.891 277.929C346.891 277.964 346.909 277.981 346.926 277.999C346.926 277.999 346.926 278.034 346.944 278.034C348.506 279.162 349.314 280.96 349.208 282.898C349.208 283.163 349.612 283.163 349.63 282.898C349.752 280.889 348.892 279.056 347.348 277.823H347.365ZM343.38 277.647C342.169 277.347 340.782 276.113 340.852 274.721C340.852 274.668 340.888 274.633 340.888 274.58C341.871 276.219 344.17 277.012 346.031 277.629C345.153 277.788 344.258 277.858 343.398 277.629L343.38 277.647ZM341.046 273.999C341.379 273.452 342.081 273.311 342.731 273.347C343.714 273.382 344.416 273.893 345.118 274.545C345.978 275.338 346.645 276.29 346.803 277.453C344.925 276.783 342.081 275.831 341.046 273.999ZM344.785 273.699C343.784 272.941 341.818 272.483 340.852 273.558C340.607 272.924 340.572 272.184 340.852 271.338C341.923 268.095 344.837 270.985 345.715 272.589C346.435 273.875 347.33 275.532 347.19 277.083C346.874 275.708 345.891 274.545 344.767 273.699H344.785Z" fill="#251C4C"/>
<path d="M364.007 287.762H324.79C323.86 287.762 323.842 289.225 324.79 289.225H364.007C364.955 289.225 364.955 287.762 364.007 287.762Z" fill="#251C4C"/>
<path d="M434.61 127.518C418.267 124.611 337.412 151.767 324.843 172.756C309.939 197.675 336.464 247.194 347.119 269.382L358.635 269.011C358.635 269.011 343.415 212.019 354.299 203.86C363.796 196.741 427.272 194.238 435.4 192C446.336 188.986 457.238 131.554 434.61 127.518Z" fill="#251C4C"/>
<path d="M349.401 182.537C317.488 203.578 355.352 253.68 355.352 253.68C347.207 213.165 349.84 209.182 354.317 203.86C358.793 198.538 427.413 193.11 427.413 193.11L442.913 169.496C442.913 169.496 381.315 161.495 349.419 182.537H349.401Z" fill="#251C4C"/>
<path d="M477.741 137.792C476.916 133.351 432.556 118.037 433.206 131.572C433.206 131.572 378.366 201.869 400.678 233.079C412.667 249.855 440.719 270.139 465.049 267.143C465.049 267.143 467.226 261.892 467.998 255.178C455.851 254.455 437.138 233.184 433.329 215.192C430.889 203.649 484.517 174.36 477.724 137.775L477.741 137.792Z" fill="#251C4C"/>
<path d="M370.256 44.6561C327.845 65.1161 386.459 92.3785 378.893 140.964C378.893 140.964 420.935 170.165 482.814 137.176C482.814 137.176 428.291 16.6535 370.256 44.6385V44.6561Z" fill="#251C4C"/>
<path d="M372.38 30.9632L360.478 38.2943C360.478 38.2943 364.059 43.2815 361.391 50.965C361.391 50.965 360.197 57.7145 366.148 56.0932C373.205 54.1724 375.592 48.2335 377.032 42.0127C377.032 42.0127 372.608 38.682 372.362 30.9456L372.38 30.9632Z" fill="white"/>
<path d="M373.047 30.9456L373.012 29.8001L359.548 38.1004L359.952 38.682C359.952 38.682 363.287 43.5282 360.777 50.7535L360.742 50.8593C360.706 51.0003 360.145 54.4543 361.988 56.1285C362.637 56.71 363.462 57.0096 364.481 57.0096C365.042 57.0096 365.657 56.9215 366.341 56.7453C373.819 54.701 376.277 48.2335 377.699 42.1713L377.804 41.7483L377.471 41.484C377.471 41.484 373.293 38.2238 373.065 30.9279L373.047 30.9456ZM365.99 55.4764C364.568 55.8641 363.533 55.7584 362.883 55.1769C361.812 54.2076 361.9 51.9871 362.041 51.1589C364.252 44.7266 362.269 40.127 361.391 38.541L371.801 32.1263C372.31 38.1885 375.294 41.3606 376.33 42.2946C374.925 48.1101 372.643 53.6789 365.99 55.4941V55.4764Z" fill="#251C4C"/>
<path d="M400.291 42.0655L405.716 91.0744C405.716 91.0744 416.477 103.763 438.788 102.582C461.995 101.348 442.755 151.327 442.755 151.327C442.755 151.327 461.819 148.771 482.797 137.193C482.797 137.193 449.654 59.5649 400.274 42.0655H400.291Z" fill="#251C4C"/>
<path d="M365.121 46.861C371.786 44.4416 374.452 34.8825 371.076 25.5101C367.7 16.1376 359.56 10.501 352.896 12.9204C346.231 15.3397 343.565 24.8989 346.941 34.2713C350.317 43.6437 358.456 49.2803 365.121 46.861Z" fill="white"/>
<path d="M352.702 12.2302C349.279 13.4814 346.733 16.4949 345.557 20.742C344.398 24.901 344.679 29.7648 346.365 34.4349C349.314 42.5942 355.809 48.022 361.97 48.022C363.129 48.022 364.27 47.8282 365.376 47.4228C368.799 46.1716 371.344 43.1581 372.52 38.9111C373.679 34.7521 373.398 29.8882 371.713 25.2182C368.22 15.5257 359.688 9.69252 352.684 12.2302H352.702ZM371.274 38.5586C370.203 42.3827 367.956 45.079 364.937 46.1892C358.635 48.4802 350.841 43.0172 347.593 33.9943C346.013 29.5886 345.733 25.0067 346.821 21.1121C347.892 17.2879 350.139 14.574 353.158 13.4814C359.478 11.1905 367.254 16.6711 370.502 25.6764C372.082 30.082 372.362 34.664 371.274 38.5586Z" fill="#251C4C"/>
<path d="M349.437 43.0172C349.524 43.5811 350.068 43.9335 350.63 43.7749C352.28 43.2991 355.581 42.277 356.739 41.4311L349.717 31.862C349.717 31.862 348.892 39.3164 349.454 43.0172H349.437Z" fill="white"/>
<path d="M350.437 43.1405C350.332 43.1758 350.244 43.1405 350.209 43.1053C350.156 43.07 350.104 43.0172 350.086 42.9114C349.559 39.334 350.349 32.0029 350.367 31.9324L349.05 31.7915C349.015 32.091 348.225 39.3692 348.787 43.1053C348.857 43.5635 349.121 43.9688 349.489 44.2155C349.753 44.3917 350.051 44.4622 350.349 44.4622C350.507 44.4622 350.648 44.4446 350.806 44.3917C352.631 43.8631 355.897 42.8409 357.125 41.9422L356.353 40.8672C355.581 41.4311 353.369 42.2594 350.437 43.1053V43.1405Z" fill="#251C4C"/>
<path d="M361.812 4.37044C362.216 3.66553 362.83 3.15447 363.656 2.7844C365.411 2.00899 364.007 -0.634419 362.251 0.140982C361.145 0.634419 360.25 1.40982 359.583 2.36145C358.547 1.26884 357.354 0.370078 355.774 0.070491C353.913 -0.281964 353.018 2.57292 354.896 2.92538C355.352 3.01349 355.739 3.15447 356.125 3.34832C354.527 3.31308 353.018 3.48931 351.683 3.91225C347.804 5.12822 337.043 12.1773 334.392 17.799C331.478 24.0022 337.377 27.6501 340.765 27.7558C345.206 27.9145 349.788 24.6895 351.964 21.4645C354.141 18.2396 358.214 15.79 360.917 18.4863C363.62 21.1826 366.412 19.6141 366.412 19.6141C370.168 22.3457 370.642 26.9276 372.538 33.3599C377.067 31.0866 375.54 20.6715 373.556 14.6445C371.906 9.56916 366.973 5.99174 361.777 4.35282L361.812 4.37044Z" fill="#251C4C"/>
<path d="M369.87 21.3588C366.938 20.5129 366.236 24.3547 366.236 24.3547L369.852 29.8706C374.065 30.0644 372.801 22.2223 369.852 21.3764L369.87 21.3588Z" fill="white"/>
<path d="M370.045 20.7244C369.115 20.46 368.272 20.5481 367.535 21.0063C366.008 21.958 365.587 24.1432 365.569 24.2313L366.868 24.478C366.868 24.478 367.202 22.7686 368.22 22.1342C368.623 21.8875 369.115 21.8346 369.677 21.9932C371.046 22.3985 372.187 25.1829 371.836 27.3329C371.625 28.6194 370.923 29.2538 369.887 29.2009L369.835 30.5226C369.835 30.5226 369.94 30.5226 370.01 30.5226C371.678 30.5226 372.836 29.43 373.152 27.5444C373.574 24.9891 372.292 21.3764 370.063 20.7244H370.045Z" fill="#251C4C"/>
<path d="M301.654 167.698C298.406 166.288 294.07 167.963 295.106 172.016C294.544 172.016 293.982 172.016 293.386 172.122C291.402 172.527 290.752 174.553 291.771 176.175C291.876 176.351 292.016 176.51 292.139 176.686C290.717 176.686 289.488 177.814 289.611 179.523C289.717 180.933 290.278 182.114 291.121 183.083C291.033 183.083 290.928 183.083 290.858 183.03C289.067 181.55 285.872 180.721 284.801 183.294C284.082 185.004 287.61 187.771 291.086 188.581C293.28 189.374 295.545 189.233 297.3 186.889C298.336 185.497 298.441 184.052 298.037 182.642C298.16 182.607 298.301 182.589 298.406 182.554C300.407 181.814 302.321 179.911 301.777 177.585C301.724 177.355 301.619 177.162 301.513 176.95C301.934 176.474 302.321 175.928 302.619 175.223C302.812 174.783 302.865 174.342 302.935 173.901C302.97 173.831 303.023 173.778 303.058 173.69C304.743 169.672 305.024 169.179 301.654 167.698Z" fill="white"/>
<path d="M301.917 167.081C299.793 166.147 297.23 166.429 295.685 167.733C294.632 168.632 294.158 169.901 294.316 171.346C293.982 171.346 293.614 171.381 293.245 171.452C292.157 171.681 291.297 172.351 290.893 173.32C290.507 174.219 290.577 175.258 291.051 176.21C290.577 176.386 290.156 176.651 289.822 177.003C289.208 177.673 288.909 178.571 288.979 179.558C289.032 180.193 289.155 180.792 289.366 181.373C288.418 181.003 287.364 180.845 286.416 181.074C285.416 181.321 284.644 181.99 284.222 183.03C284.064 183.418 283.959 184.07 284.38 184.933C285.275 186.696 288.154 188.564 290.875 189.198C291.753 189.515 292.578 189.674 293.35 189.674C295.123 189.674 296.633 188.863 297.827 187.295C298.757 186.043 299.091 184.634 298.81 183.118C301.074 182.202 303.005 179.999 302.408 177.461C302.373 177.32 302.338 177.197 302.286 177.074C302.672 176.598 302.988 176.087 303.234 175.505C303.427 175.047 303.514 174.606 303.585 174.148L303.778 173.743C305.445 169.76 305.709 168.773 301.935 167.117L301.917 167.081ZM302.549 173.214L302.444 173.426C302.444 173.426 302.373 173.531 302.338 173.602L302.268 173.866C302.215 174.254 302.163 174.606 302.005 174.941C301.759 175.523 301.443 175.999 301.004 176.492L300.758 176.915L300.951 177.32C301.022 177.461 301.074 177.602 301.109 177.726C301.548 179.611 299.968 181.25 298.055 181.955C297.985 181.955 297.915 181.99 297.844 182.008L297.212 182.184L297.388 182.819C297.774 184.193 297.581 185.391 296.774 186.484C295.404 188.317 293.614 188.793 291.244 187.929C288.541 187.295 286.188 185.568 285.556 184.334C285.398 184.017 285.346 183.753 285.433 183.559C285.697 182.924 286.136 182.537 286.732 182.378C286.926 182.325 287.136 182.307 287.347 182.307C288.435 182.307 289.664 182.907 290.454 183.559C290.665 183.735 290.893 183.735 291.051 183.753L292.771 183.964L291.63 182.66C290.823 181.744 290.366 180.669 290.278 179.488C290.243 178.871 290.401 178.325 290.77 177.937C291.121 177.567 291.595 177.373 292.122 177.373L293.386 177.303L292.596 176.228C292.49 176.087 292.403 175.963 292.315 175.84C291.911 175.205 291.823 174.465 292.087 173.866C292.332 173.302 292.824 172.915 293.508 172.791C293.93 172.703 294.351 172.703 294.79 172.703H295.948L295.738 171.875C295.404 170.588 295.685 169.513 296.545 168.791C297.704 167.804 299.74 167.61 301.39 168.333C303.204 169.131 303.59 170.765 302.549 173.232V173.214Z" fill="#251C4C"/>
<path d="M219.236 173.743C211.863 173.831 215.339 172.474 220.254 172.721C222.8 172.844 223.59 171.205 221.097 169.936C217.235 167.98 212.197 169.161 208.212 171.24C208.212 171.24 208.212 171.223 208.229 171.205C208.826 170.447 209.529 169.408 209.651 168.421C209.862 166.782 208.37 167.064 207.422 167.716C205.737 168.897 203.981 173.32 203.226 175.276C200.874 176.421 152.547 199.983 151.195 198.996C149.703 197.886 134.835 190.89 113.857 183.594C105.466 188.969 93.5646 200.441 106.256 209.358C123.582 219.456 125.636 219.421 145.929 224.038C166.292 228.655 203.964 189.973 207.703 186.061C210.406 186.29 215.567 187.982 217.235 186.519C219.78 184.281 212.671 184.546 213.759 182.73C214.145 182.078 224.485 183.347 220.728 179.876C219.903 179.118 214.373 178.289 216.164 177.303C218.516 177.267 223.818 177.902 223.8 175.54C223.8 174.43 220.728 173.725 219.236 173.743Z" fill="white"/>
<path d="M221.325 173.337C222.343 173.179 223.045 172.685 223.238 171.963C223.361 171.522 223.414 170.377 221.395 169.355C217.463 167.363 212.899 168.526 209.95 169.707C210.125 169.319 210.248 168.914 210.301 168.509C210.441 167.416 209.95 166.94 209.651 166.747C208.861 166.253 207.756 166.676 207.036 167.17C205.737 168.086 204.368 170.5 202.7 174.8L202.419 174.941C173.138 189.163 153.723 198.097 151.424 198.362C149.054 196.793 133.975 189.903 114.068 182.977C113.875 182.907 113.664 182.942 113.506 183.048C110.399 185.039 100.218 192.176 100.042 200.265C99.9719 203.895 101.92 207.156 105.923 209.958C122.09 219.368 125.075 220.038 141.628 223.774L145.771 224.708C146.965 224.972 148.194 225.096 149.475 225.096C170.259 225.096 203.069 191.824 207.931 186.766C208.616 186.854 209.458 187.013 210.318 187.171C213.215 187.718 216.199 188.299 217.639 187.03C217.867 186.837 218.569 186.22 218.393 185.427C218.2 184.51 217.059 184.14 215.866 183.735C215.444 183.594 214.795 183.382 214.479 183.224C214.9 183.189 215.55 183.171 216.094 183.153C219.289 183.083 221.606 182.924 222.08 181.62C222.448 180.616 221.448 179.699 221.132 179.4C220.746 179.047 219.938 178.783 218.674 178.395C218.323 178.289 217.867 178.148 217.446 177.99C217.481 177.99 217.516 177.99 217.551 177.99C219.833 178.06 222.642 178.131 223.835 176.95C224.221 176.58 224.415 176.087 224.415 175.54C224.415 175.276 224.327 174.888 223.941 174.518C223.379 173.972 222.326 173.584 221.272 173.337H221.325ZM222.975 176.016C222.185 176.809 219.447 176.721 217.639 176.686C217.182 176.686 216.778 176.668 216.41 176.668C216.217 176.668 216.024 176.668 215.866 176.756C215.234 177.109 215.146 177.532 215.163 177.831C215.251 178.677 216.375 179.065 218.341 179.682C219.043 179.893 220.079 180.21 220.289 180.404C220.869 180.933 220.904 181.18 220.904 181.18C220.588 181.744 217.34 181.832 216.111 181.867C214.163 181.92 213.496 181.937 213.197 182.431C212.916 182.889 212.969 183.294 213.074 183.541C213.373 184.334 214.409 184.669 215.515 185.021C216.041 185.198 217.024 185.515 217.165 185.673C217.165 185.673 217.13 185.797 216.831 186.061C215.883 186.889 212.846 186.308 210.634 185.885C209.581 185.691 208.598 185.497 207.791 185.427C207.598 185.409 207.404 185.48 207.264 185.621C205.333 187.647 195.046 198.203 182.688 207.737C166.977 219.862 154.32 225.289 146.122 223.404L141.979 222.47C125.584 218.769 122.635 218.117 106.695 208.83C103.132 206.327 101.359 203.437 101.411 200.283C101.569 193.057 110.75 186.449 113.998 184.334C134.326 191.436 149.335 198.397 150.844 199.543C151.371 199.913 152.407 200.741 203.051 176.139L203.56 175.893C203.718 175.822 203.823 175.699 203.894 175.54C205.842 170.465 207.124 168.791 207.843 168.28C208.405 167.874 208.932 167.839 209.019 167.91C209.019 167.927 209.09 168.051 209.055 168.368C208.932 169.337 208.054 170.465 207.703 170.906C207.545 171.152 207.562 171.487 207.756 171.716C207.949 171.945 208.282 171.998 208.545 171.857C210.74 170.712 216.357 168.297 220.834 170.571C221.799 171.064 222.027 171.505 221.992 171.646C221.957 171.804 221.483 172.174 220.324 172.104C220.272 172.104 215.146 171.875 214.479 172.967C214.356 173.179 214.338 173.514 214.461 173.725C214.637 174.042 214.865 174.448 218.622 174.448C218.85 174.448 219.061 174.448 219.324 174.448C220.886 174.448 223.045 175.153 223.168 175.593C223.168 175.787 223.116 175.928 222.975 176.051V176.016Z" fill="#251C4C"/>
<path d="M136.573 464.765C136.081 467.461 134.414 481.189 135.607 482.494C143.788 491.499 148.668 481.718 149.036 479.075C149.352 476.801 150.388 466.95 149.44 465.206C148.457 463.408 136.748 463.884 136.59 464.765H136.573Z" fill="white"/>
<path d="M137.819 463.637C136.713 463.813 136.046 464.043 135.941 464.642C135.906 464.8 133.466 481.101 135.133 482.934C137.521 485.56 139.855 486.882 142.085 486.882C142.664 486.882 143.226 486.793 143.788 486.617C147.421 485.489 149.458 480.872 149.686 479.145C149.703 479.022 151.248 467.109 150.002 464.871C148.878 462.827 140.277 463.214 137.801 463.62L137.819 463.637ZM148.387 478.987C148.194 480.414 146.421 484.432 143.401 485.366C141.189 486.071 138.732 484.943 136.116 482.053C135.326 480.872 136.467 469.241 137.187 465.117C138.943 464.377 148.141 464.413 148.861 465.523C149.58 466.827 148.931 475.092 148.387 478.987Z" fill="#251C4C"/>
<path d="M163.203 479.885C155.918 478.951 148.562 479.462 148.562 479.462C148.562 479.462 140.119 484.503 135.116 477.383C135.116 477.383 129.235 487.269 132.781 494.829C132.781 494.829 161.061 495.799 169.698 493.913C169.698 493.913 170.505 480.819 163.22 479.885H163.203Z" fill="#251C4C"/>
<path d="M95.0743 300.732C96.3206 320.558 117.438 339.361 132.851 354.182C142.085 363.082 149.247 370.536 148.808 375.911C147.105 396.953 134.326 447.988 132.886 467.408C133.659 470.334 136.713 471.955 140.136 472.854C145.648 474.352 152.196 473.929 152.196 473.929C163.589 434.894 177.562 400.248 181.266 370.994C187.498 321.844 140.838 273.576 140.838 273.576C135.66 255.653 92.88 265.998 95.0743 300.732Z" fill="#251C4C"/>
<path d="M32.809 431.669C30.8254 432.744 23.6808 437.679 23.3999 439.512C23.119 441.292 29.6142 452.87 31.4749 451.724C33.0724 450.72 39.8308 446.085 40.3398 444.182C40.8665 442.208 33.441 431.335 32.809 431.687V431.669Z" fill="white"/>
<path d="M33.4761 431.264C33.0373 430.912 32.6862 430.982 32.4931 431.088C31.1765 431.793 23.1191 437.044 22.7504 439.406C22.452 441.256 27.4374 450.297 30.1057 452.077C30.527 452.359 30.8956 452.464 31.194 452.464C31.4574 452.464 31.668 452.376 31.826 452.288C31.9138 452.235 40.3223 446.843 40.9718 444.358C41.5862 442.067 34.7927 432.322 33.4761 431.282V431.264ZM40.3399 444.182L39.7079 444.005C39.3393 445.38 33.8448 449.451 31.194 451.125C31.194 451.125 30.7903 451.125 29.7897 449.98C27.0512 446.896 23.9441 440.534 24.0494 439.582C24.2425 438.331 30.0355 433.996 32.8266 432.392C34.4943 433.855 40.0239 442.666 39.7079 443.97L40.3399 444.146V444.182Z" fill="#251C4C"/>
<path d="M106.871 272.518C106.906 274.386 105.256 313.297 108.521 323.025C111.119 330.762 121.125 335.96 123.038 343.996C132.272 352.896 149.264 370.519 148.826 375.911C147.123 396.953 134.343 447.988 132.904 467.408C133.676 470.334 136.731 471.955 140.154 472.854C141.593 470.14 142.647 466.933 143.682 464.131C146.86 455.337 148.984 445.944 150.423 436.445C153.284 417.501 153.46 398.838 158.375 380.458C162.342 365.637 148.211 344.701 144.191 334.903C129.727 299.728 110.873 301.384 106.888 272.518H106.871Z" fill="#251C4C"/>
<path d="M30.8956 451.689C30.8956 451.689 23.1893 446.103 25.0325 437.027C25.0325 437.027 15.6409 436.78 12.7444 444.657C12.7444 444.657 27.2268 473.541 33.0373 481.119C33.0373 481.119 41.7618 474.44 38.4615 466.615C35.1613 458.773 30.9132 451.689 30.9132 451.689H30.8956Z" fill="#251C4C"/>
<path d="M63.9329 272.448C60.6853 275.779 58.2102 280.255 56.9111 286.053C50.5038 314.936 87.4557 344.261 82.6107 356.491C75.5012 374.448 39.4797 428.409 28.8418 431.899C28.8418 432.833 28.9295 433.819 29.1051 434.859C30.3865 442.085 35.6528 450.684 35.6528 450.684C57.9468 438.912 94.2317 408.231 112.049 386.996C139.68 354.059 107.134 280.325 107.134 280.325C106.976 265.681 78.2397 257.68 63.9153 272.448H63.9329Z" fill="#251C4C"/>
<path d="M68.6725 279.409C69.7258 279.603 70.8142 277.999 69.8662 276.801C68.1635 274.598 66.0745 273.188 63.9153 272.466C60.6678 275.796 58.1926 280.272 56.8936 286.07C50.4863 314.954 87.4381 344.278 82.5931 356.508C75.4836 374.466 39.4621 428.427 28.8242 431.916C28.8242 432.85 28.912 433.837 29.0875 434.877C41.6213 430.401 52.4523 421.942 61.2295 410.064C66.0394 403.526 70.3402 396.494 74.7815 389.622C79.2754 382.625 84.3837 375.788 88.1227 368.139C94.4774 355.204 89.9133 345.018 82.9793 334.092C73.2191 318.69 61.7912 299.411 68.6374 279.409H68.6725Z" fill="#251C4C"/>
<path d="M75.3607 130.937C71.2004 133.968 69.1992 139.185 68.181 144.048C67.356 147.996 67.3209 152.049 66.9873 156.05C66.7416 158.869 66.5836 163.046 65.3899 165.425C62.1774 171.769 54.6115 169.76 51.2938 169.337C50.1703 168.773 48.5377 169.478 48.8713 170.958C51.364 182.202 68.2161 190.414 78.2045 183.488C84.4363 179.171 87.1924 171.064 87.3504 163.768C87.4381 159.768 86.4024 155.627 87.1924 151.661C88.7196 143.978 93.4066 143.819 97.409 139.096C97.5143 138.973 97.5494 138.85 97.6196 138.726C98.0761 138.321 98.3218 137.669 97.9707 136.946C94.4423 129.774 81.9436 126.161 75.3432 130.972L75.3607 130.937Z" fill="#251C4C"/>
<path d="M118.193 181.091C116.719 180.81 115.297 180.616 113.875 180.457C110.276 180.052 106.836 179.946 103.764 180.052C92.248 180.404 112.769 202.908 113.612 208.794C114.279 213.359 121.546 218.716 128.357 224.144C129.393 224.972 130.446 225.783 131.412 226.611C133.694 228.479 135.765 230.347 137.38 232.162C147.07 227.034 151.371 213.782 149.791 196.511C141.014 187.506 129.112 182.942 118.193 181.109V181.091Z" fill="#251C4C"/>
<path d="M119.773 181.373C118.299 181.091 115.297 180.616 113.875 180.457C113.664 180.933 113.717 181.514 114.226 181.973C115.367 182.995 116.491 184.07 117.632 185.145C127.286 195.824 135.976 210.187 128.357 224.126C129.393 224.955 130.446 225.765 131.412 226.593C135.677 221.906 142.331 207.314 141.699 202.115C140.628 192.828 120.37 182.008 119.773 181.373Z" fill="#251C4C"/>
<path d="M128.708 242.066C124.952 234.594 125.777 229.677 128.041 225.307C131.131 219.28 136.976 214.346 137.363 205.182C137.995 189.357 104.431 176.157 104.431 176.157C54.12 173.144 66.0043 202.785 70.8142 226.77C71.253 228.955 71.6392 231.07 71.885 233.131C71.9552 233.572 71.9903 234.048 72.0079 234.488C72.0781 235.088 72.1132 235.669 72.1308 236.268C73.0436 259.883 50.7847 282.246 50.7847 282.246C55.9632 285.154 61.7912 287.128 67.9177 288.396C103.395 295.534 149.774 278.299 149.774 278.299C149.774 278.299 139.574 262.826 131.026 246.578C130.2 245.097 129.446 243.599 128.691 242.084L128.708 242.066Z" fill="#251C4C"/>
<path d="M109.662 169.284L96.8121 163.927V175.928C96.8121 175.928 104.396 184.158 109.662 183.118C112.049 182.642 109.662 178.237 109.662 178.237V169.302V169.284Z" fill="white"/>
<path d="M110.329 168.844L96.1626 162.94V176.175L96.3382 176.369C96.6366 176.686 103.307 183.858 108.714 183.858C109.083 183.858 109.451 183.823 109.802 183.753C110.452 183.629 110.926 183.259 111.172 182.713C111.856 181.232 110.68 178.748 110.329 178.06V168.844ZM109.978 182.166C109.925 182.29 109.82 182.413 109.539 182.466C105.133 183.365 98.6202 176.862 97.4792 175.664V164.931L109.012 169.742V178.237L109.1 178.554C109.679 179.611 110.329 181.444 109.995 182.166H109.978Z" fill="#251C4C"/>
<path d="M112.822 143.22L91.6512 144.93C91.6512 144.93 89.018 158.658 98.4974 167.645C107.977 176.615 119.598 168.209 118.755 161.83C117.561 152.842 112.839 143.203 112.839 143.203L112.822 143.22Z" fill="white"/>
<path d="M113.419 142.921L113.225 142.515L91.107 144.313L91.0192 144.806C90.9841 144.947 88.4387 159.01 98.0585 168.121C100.92 170.835 104.255 172.227 107.626 172.227C109.592 172.227 111.558 171.751 113.436 170.782C117.403 168.756 119.861 165.037 119.44 161.742C118.246 152.754 113.506 143.009 113.454 142.921H113.419ZM112.804 169.601C108.222 171.945 103.044 171.047 98.9362 167.152C90.8437 159.468 91.8794 148.031 92.2129 145.529L112.418 143.89C113.313 145.793 117.07 154.164 118.088 161.9C118.439 164.597 116.21 167.839 112.787 169.601H112.804Z" fill="#251C4C"/>
<path d="M110.733 135.678C107.152 134.814 102.394 135.942 98.9011 136.788C97.8127 137.052 97.6723 138.074 98.0761 138.85C94.6354 139.537 90.8963 142.832 89.4218 145.071C86.5077 149.529 86.1391 156.984 89.1058 161.53C91.4405 165.09 95.8115 168.015 98.1638 163.292C99.9544 159.68 99.6559 156.314 99.3751 152.454C99.2698 151.027 99.2346 149.829 99.3751 148.736C101.236 146.181 106.818 144.982 109.662 144.965C123.6 147.044 117.754 137.369 110.733 135.678Z" fill="#251C4C"/>
<path d="M95.7238 154.693C94.9689 157.759 98.2692 160.032 99.7437 159.468L100.288 153.406C100.288 153.406 96.4786 151.626 95.7238 154.693Z" fill="white"/>
<path d="M96.6015 152.543C95.8467 152.913 95.32 153.6 95.0918 154.552C94.6881 156.191 95.2498 157.882 96.6015 159.063C97.4265 159.803 98.4271 160.226 99.2522 160.226C99.5155 160.226 99.7613 160.191 99.9895 160.103L99.5155 158.869C99.1118 159.028 98.234 158.763 97.4617 158.076C96.9877 157.653 95.952 156.508 96.3557 154.869C96.4962 154.305 96.7595 153.935 97.1632 153.741C98.0585 153.3 99.5331 153.794 100.007 154.023L100.569 152.825C100.481 152.772 98.2516 151.75 96.6015 152.543Z" fill="#251C4C"/>
<path d="M98.0585 135.783C94.4072 137.087 90.8963 139.044 89.4569 142.885C88.7371 144.789 91.7214 145.864 92.4236 143.96C93.547 140.964 96.5664 139.678 99.3751 138.674C101.288 137.986 99.9544 135.114 98.0585 135.801V135.783Z" fill="white"/>
<path d="M111.786 200.406C100.867 193.322 100.902 184.687 78.4503 184.316C69.8838 184.175 67.5666 186.555 65.8814 193.903C64.9861 197.798 66.3378 205.64 66.4256 206.169C68.2863 215.65 70.1471 225.148 72.0254 234.629C72.0781 235.193 72.1132 235.722 72.1483 236.286C73.0611 259.9 50.8022 282.264 50.8022 282.264C55.9808 285.171 61.8088 287.145 67.9353 288.414C70.586 284.449 72.1132 276.783 73.5 273.276C76.098 266.597 78.6083 259.9 78.9945 252.675C79.3807 245.08 77.8359 237.625 79.6264 230.206C80.943 225.325 77.6252 227.034 98.1638 231.263C99.3224 231.51 107.819 224.884 107.029 224.038C103.781 220.478 103.255 200.336 110.715 203.402C112.593 204.177 113.489 201.516 111.768 200.406H111.786Z" fill="#251C4C"/>
<path d="M291.139 141.687L283.344 148.718C281.062 150.886 278.219 152.454 275.164 153.23C265.246 155.75 255.135 149.688 252.624 139.731C252.466 139.079 252.326 138.409 252.238 137.722C251.08 129.615 255.661 121.386 263.122 118.108C267.054 116.381 271.302 116.063 275.427 117.174L285.662 119.641C289.067 119.993 291.929 118.072 293.807 116.31L280.799 64.605H271.583L177.931 90.6867C164.431 94.1055 156.234 107.904 159.639 121.456L176.403 224.708H185.619L228.821 213.764L237.106 211.667C238.879 213.535 240.793 216.407 240.442 219.844L237.967 230.136C237.019 233.713 237.141 237.484 238.353 241.026C239.424 244.163 241.337 246.895 243.777 248.992C247.534 252.481 252.782 254.296 257.978 253.539C258.435 253.468 258.874 253.38 259.33 253.274C259.365 253.274 259.418 253.274 259.453 253.257C259.593 253.221 259.751 253.204 259.909 253.151C260.103 253.116 260.296 253.08 260.471 253.028C265.281 251.812 269.319 248.78 271.864 244.516C274.409 240.251 275.147 235.229 273.935 230.4C273.163 227.334 271.601 224.479 269.424 222.188L262.437 214.363C260.471 211.455 260.787 208.001 261.437 205.517L282.081 200.283L312.959 192.458L299.951 140.753C297.476 140.083 294.053 139.748 291.139 141.74V141.687Z" fill="#251C4C"/>
<path d="M277.622 119.659H286.873V114.002L276.305 113.332L277.622 119.659Z" fill="#251C4C"/>
<path d="M286.873 140.171L284.749 149.723L287.926 151.327L296.563 149.036L296.036 140.171H286.873Z" fill="#251C4C"/>
<path d="M246.673 253.662H256.539L256.89 241.925L245.199 241.361L246.673 253.662Z" fill="#251C4C"/>
<path d="M257.452 68.1648C264.719 73.1873 271.285 79.0733 276.92 85.8228L271.583 64.5874L257.452 68.1648Z" fill="white"/>
<path d="M281.923 141.687L274.128 148.718C271.846 150.886 269.003 152.454 265.931 153.23C256.012 155.75 245.901 149.688 243.391 139.731C243.233 139.079 243.092 138.409 243.005 137.722C241.864 129.615 246.428 121.386 253.906 118.108C257.838 116.381 262.086 116.063 266.211 117.174L276.446 119.641C279.851 119.993 282.712 118.072 284.591 116.31L276.92 85.8405C271.267 79.0909 264.719 73.2226 257.452 68.1825L168.715 90.6691C155.215 94.0879 147.018 107.887 150.423 121.438L176.386 224.69L219.605 213.746L227.89 211.649C229.663 213.517 231.559 216.39 231.226 219.826L228.75 230.118C227.785 233.695 227.925 237.467 229.137 241.009C230.207 244.146 232.121 246.877 234.561 248.974C238.318 252.464 243.566 254.279 248.762 253.521C249.219 253.451 249.658 253.362 250.114 253.257C250.149 253.257 250.202 253.257 250.237 253.239C250.377 253.204 250.535 253.186 250.693 253.133C250.886 253.098 251.08 253.063 251.255 253.01C256.065 251.794 260.103 248.763 262.648 244.498C265.193 240.233 265.931 235.211 264.719 230.382C263.947 227.316 262.385 224.461 260.208 222.17L253.221 214.346C251.255 211.438 251.571 207.984 252.221 205.499L272.865 200.265L303.743 192.441L290.735 140.735C288.26 140.066 284.837 139.731 281.923 141.722V141.687Z" fill="#90FFFB"/>
<path d="M304.533 192.881L291.279 140.154L290.91 140.048C288.383 139.361 284.696 138.991 281.484 141.176L273.69 148.207C271.478 150.305 268.757 151.802 265.79 152.56C256.223 154.992 246.463 149.141 244.075 139.696V139.537C243.9 138.903 243.777 138.251 243.672 137.599C242.566 129.792 246.989 121.826 254.169 118.689C257.961 117.033 262.069 116.716 266.053 117.791L276.393 120.275C280.079 120.645 283.134 118.566 285.047 116.768L285.328 116.504L272.075 63.7768L168.574 90.0171C154.724 93.524 146.315 107.693 149.809 121.579L175.947 225.466L227.697 212.354C229.242 214.081 230.892 216.672 230.611 219.632L228.136 229.907C227.153 233.607 227.293 237.52 228.54 241.185C229.611 244.34 231.542 247.194 234.14 249.415C237.528 252.552 242.004 254.314 246.48 254.314C247.27 254.314 248.078 254.261 248.868 254.138C249.307 254.085 249.728 253.979 250.149 253.891L250.553 253.803C250.658 253.785 250.764 253.768 250.957 253.715C251.115 253.68 251.255 253.644 251.413 253.609C256.381 252.34 260.577 249.221 263.21 244.78C265.843 240.339 266.598 235.158 265.351 230.171C264.544 226.981 262.929 224.038 260.699 221.677L253.783 213.923C252.045 211.35 252.238 208.248 252.782 205.992L304.568 192.863L304.533 192.881ZM252.712 214.751L259.699 222.593C261.788 224.814 263.297 227.545 264.052 230.523C265.228 235.176 264.509 240.004 262.069 244.128C259.629 248.252 255.714 251.177 251.08 252.34C250.957 252.376 250.816 252.393 250.693 252.428L249.868 252.605C249.482 252.693 249.096 252.781 248.675 252.834C243.83 253.539 238.721 251.882 235 248.428C232.577 246.331 230.769 243.688 229.769 240.762C228.61 237.343 228.47 233.695 229.4 230.241L231.893 219.862C232.261 216.143 230.19 213.077 228.382 211.174L228.119 210.892L176.877 223.88L151.073 121.262C147.755 108.08 155.742 94.6342 168.89 91.3035L271.127 65.3981L283.871 116.081C282.151 117.632 279.553 119.271 276.621 118.989L266.405 116.522C262.139 115.376 257.733 115.711 253.66 117.491C245.936 120.875 241.197 129.422 242.373 137.792C242.478 138.497 242.601 139.185 242.759 139.696V139.854C245.374 150.164 255.854 156.455 266.124 153.847C269.301 153.036 272.233 151.432 274.585 149.194L282.309 142.216C284.889 140.453 287.961 140.682 290.208 141.229L302.953 191.912L251.676 204.9L251.571 205.27C250.606 208.935 250.992 212.178 252.712 214.733V214.751Z" fill="#251C4C"/>
<path d="M208.844 185.303C201.471 185.391 204.947 184.034 209.862 184.281C212.407 184.405 213.197 182.766 210.705 181.497C206.843 179.541 201.805 180.721 197.82 182.783C197.82 182.783 197.82 182.766 197.837 182.748C198.434 181.99 199.136 180.951 199.259 179.964C199.47 178.325 197.978 178.607 197.03 179.259C195.345 180.439 193.589 184.863 192.834 186.837C190.482 187.982 142.155 211.544 140.803 210.539C139.311 209.429 124.443 202.433 103.483 195.137C95.0918 200.512 83.19 211.984 95.8818 220.901C113.208 230.999 115.262 230.964 135.537 235.581C155.9 240.198 193.572 201.516 197.311 197.604C200.014 197.833 205.175 199.525 206.843 198.062C209.388 195.824 202.279 196.088 203.367 194.273C203.753 193.621 214.093 194.89 210.336 191.418C209.511 190.643 203.981 189.832 205.772 188.846C208.124 188.81 213.426 189.445 213.408 187.083C213.408 185.973 210.336 185.268 208.844 185.286V185.303Z" fill="white"/>
<path d="M210.933 184.88C211.951 184.722 212.653 184.228 212.846 183.506C212.969 183.065 213.022 181.92 211.003 180.898C207.071 178.906 202.507 180.069 199.558 181.25C199.733 180.862 199.856 180.457 199.909 180.052C200.049 178.959 199.575 178.483 199.259 178.289C198.469 177.796 197.346 178.219 196.644 178.712C194.976 179.893 193.379 183.559 192.308 186.343L191.904 186.537C162.694 200.723 143.331 209.623 141.049 209.905C138.679 208.336 123.6 201.446 103.693 194.52C103.5 194.45 103.29 194.485 103.132 194.591C100.025 196.582 89.8431 203.719 89.6851 211.808C89.5973 215.438 91.5634 218.698 95.5658 221.5C111.733 230.911 114.718 231.581 131.289 235.317L135.414 236.251C136.608 236.515 137.837 236.656 139.118 236.638C159.902 236.638 192.711 203.367 197.574 198.309C198.259 198.397 199.084 198.556 199.961 198.714C202.858 199.261 205.842 199.842 207.282 198.573C207.51 198.379 208.194 197.763 208.036 196.97C207.843 196.036 206.72 195.666 205.509 195.278C205.087 195.137 204.438 194.925 204.122 194.767C204.543 194.732 205.193 194.714 205.754 194.696C208.949 194.626 211.249 194.467 211.74 193.163C212.109 192.159 211.108 191.242 210.792 190.943C210.406 190.573 209.599 190.326 208.335 189.92C207.984 189.815 207.527 189.674 207.106 189.533C207.141 189.533 207.176 189.533 207.211 189.533C209.493 189.603 212.32 189.674 213.496 188.493C213.882 188.123 214.075 187.63 214.075 187.083C214.075 186.819 213.987 186.431 213.601 186.061C213.039 185.515 211.986 185.127 210.915 184.88H210.933ZM212.583 187.559C211.793 188.352 209.055 188.264 207.246 188.229C206.79 188.229 206.386 188.211 206.018 188.211C205.825 188.211 205.631 188.211 205.473 188.299C204.842 188.652 204.754 189.075 204.771 189.374C204.859 190.22 205.983 190.608 207.949 191.225C208.651 191.436 209.686 191.753 209.897 191.947C210.476 192.476 210.512 192.723 210.512 192.723C210.196 193.286 206.948 193.375 205.719 193.392C203.771 193.445 203.104 193.463 202.805 193.956C202.524 194.414 202.577 194.82 202.665 195.066C202.963 195.859 203.999 196.194 205.105 196.547C205.631 196.723 206.614 197.04 206.755 197.199C206.755 197.199 206.72 197.322 206.421 197.586C205.473 198.415 202.437 197.833 200.207 197.41C199.171 197.216 198.171 197.022 197.381 196.952C197.17 196.934 196.995 197.005 196.854 197.146C194.923 199.172 184.636 209.728 172.278 219.262C156.567 231.369 143.928 236.815 135.713 234.929L131.587 233.995C115.192 230.294 112.225 229.642 96.2855 220.355C92.722 217.853 90.949 214.962 91.0017 211.808C91.1596 204.6 100.341 197.974 103.588 195.859C123.916 202.944 138.925 209.922 140.435 211.068C140.961 211.456 142.067 212.231 192.501 187.735L193.133 187.418C193.291 187.348 193.396 187.224 193.466 187.066C195.029 182.995 196.363 180.545 197.416 179.805C197.978 179.417 198.504 179.347 198.592 179.435C198.592 179.435 198.662 179.541 198.627 179.893C198.539 180.545 198.118 181.356 197.328 182.378C197.135 182.625 197.118 182.977 197.328 183.224C197.539 183.471 197.872 183.541 198.136 183.4C200.348 182.255 205.947 179.84 210.424 182.114C211.389 182.607 211.617 183.048 211.582 183.189C211.547 183.347 211.038 183.7 209.915 183.647C209.862 183.647 204.736 183.418 204.069 184.51C203.946 184.722 203.929 185.057 204.069 185.268C204.262 185.603 204.49 186.043 208.879 185.991H208.932C210.494 185.991 212.653 186.696 212.776 187.136C212.776 187.33 212.723 187.471 212.583 187.594V187.559Z" fill="#251C4C"/>
<path d="M66.5309 191.277C63.8276 204.847 79.1876 216.196 94.2843 228.162C106.923 222.064 115.613 213.112 119.211 197.851C116.824 195.507 100.551 180.263 85.6827 178.378C78.9243 177.514 68.2161 182.783 66.5309 191.26V191.277Z" fill="#251C4C"/>
<path d="M51.1533 281.7L50.4336 282.81C50.7671 283.021 58.649 288.15 74.9394 290.247C78.8892 290.758 83.5586 291.11 88.9302 291.11C103.887 291.11 124.32 288.396 150.019 278.915L149.563 277.682C83.3655 302.107 51.4693 281.911 51.1533 281.717V281.7Z" fill="white"/>
<path d="M84.015 177.056C83.8044 177.056 83.5937 177.056 83.3831 177.056C78.0466 177.214 73.5175 179.505 69.9189 183.876C66.3378 188.211 65.0037 193.022 65.9341 198.15C68.8656 214.258 92.9326 228.162 93.9508 228.743L94.6003 227.598C94.3545 227.457 70.0418 213.394 67.2331 197.904C66.3729 193.181 67.6193 188.74 70.9371 184.722C74.2724 180.669 78.4854 178.536 83.4182 178.378C83.6113 178.378 83.8044 178.378 83.9975 178.378C99.9193 178.378 118.544 198.115 118.72 198.327L119.685 197.428C118.895 196.582 100.499 177.073 84.015 177.073V177.056Z" fill="white"/>
<path d="M114.103 179.84L113.629 181.074C113.875 181.18 138.785 190.978 136.292 208.442L137.591 208.636C140.224 190.15 114.349 179.946 114.103 179.858V179.84Z" fill="white"/>
<path d="M391.514 44.8323C379.121 42.7881 368.343 105.173 359.284 113.244C352.21 119.535 319.383 142.832 312.923 147.414C312.643 147.309 312.379 147.203 312.098 147.115C309.009 144.524 302.865 140.418 300.355 143.802C299.705 144.683 300.6 145.652 301.443 145.758C302.83 145.934 304.146 146.005 305.358 146.833C305.358 146.833 305.375 146.85 305.393 146.868C300.162 147.714 294.017 149.705 291.823 154.058C290.542 156.613 292.28 157.213 294.351 155.398C298.353 151.908 300.302 152.543 296.317 156.455C295.159 157.583 292.736 161.777 293.456 162.552C294.983 164.191 299.231 158.393 301.25 156.843C303.427 156.314 298.441 162.376 298.775 163.733C299.53 166.852 306.095 158.763 306.832 158.94C308.939 159.451 301.355 164.015 304.884 164.879C307.095 165.425 311.484 159.715 313.959 157.336C339.694 153.988 354.053 146.445 374.276 135.59C395.956 123.959 429.888 51.1413 391.514 44.8323Z" fill="white"/>
<path d="M391.62 44.1803C383.773 42.9114 377.155 63.5829 370.747 83.5848C366.482 96.9252 362.444 109.525 358.828 112.75C351.894 118.936 319.928 141.634 312.801 146.674C312.66 146.621 312.537 146.586 312.397 146.533C310.483 144.947 305.884 141.528 302.444 141.898C301.338 142.022 300.442 142.533 299.793 143.414C299.407 143.925 299.336 144.542 299.582 145.106C299.863 145.775 300.583 146.322 301.338 146.41L301.741 146.463C302.18 146.516 302.602 146.569 302.988 146.639C298.353 147.661 293.228 149.688 291.174 153.759C290.226 155.644 290.787 156.473 291.209 156.807C292.016 157.442 293.35 157.089 294.72 155.909C296.019 154.763 297.002 154.182 297.563 153.935C297.318 154.323 296.826 154.975 295.808 155.979C295.036 156.737 291.613 161.601 292.929 163.011C293.228 163.328 293.631 163.504 294.07 163.504C295.475 163.504 297.195 161.83 299.442 159.451C299.846 159.01 300.249 158.605 300.618 158.235C300.337 158.763 299.986 159.38 299.705 159.856C298.564 161.812 297.862 163.063 298.055 163.874C298.231 164.649 298.687 164.931 299.038 165.037C300.249 165.425 301.952 164.068 304.164 162.006C303.479 162.852 303.023 163.645 303.251 164.403C303.409 164.949 303.883 165.319 304.655 165.495C304.813 165.531 304.971 165.548 305.129 165.548C306.955 165.548 309.272 163.204 312.256 159.962C312.959 159.204 313.608 158.499 314.17 157.935C340.308 154.499 354.65 146.798 374.504 136.153C391.479 127.042 412.948 85.629 409.033 61.8911C407.383 51.899 401.345 45.7663 391.549 44.145L391.62 44.1803ZM373.96 135.026C354.176 145.635 339.887 153.3 313.871 156.702L313.661 156.737L313.503 156.878C312.888 157.459 312.151 158.252 311.379 159.116C309.5 161.16 306.323 164.579 305.059 164.262C304.691 164.174 304.62 164.068 304.62 164.068C304.497 163.698 305.761 162.341 306.288 161.759C307.324 160.631 308.079 159.821 307.85 159.045C307.78 158.834 307.587 158.464 307.008 158.323C306.937 158.323 306.885 158.305 306.815 158.305C306.306 158.305 305.761 158.816 304.217 160.279C303.216 161.231 300.214 164.121 299.512 163.821C299.512 163.821 299.459 163.786 299.424 163.627C299.389 163.187 300.355 161.548 300.916 160.561C302.198 158.341 302.795 157.248 302.286 156.543C302.145 156.349 301.794 156.05 301.109 156.226L300.864 156.349C300.232 156.843 299.424 157.688 298.564 158.587C297.177 160.032 295.088 162.218 294.14 162.218C294.14 162.218 294.017 162.2 294 162.218C293.824 161.53 295.65 158.076 296.791 156.966C299.582 154.217 299.336 153.283 298.915 152.825C297.932 151.75 295.369 153.706 293.93 154.957C292.876 155.873 292.192 155.891 292.087 155.803C292.051 155.768 291.929 155.362 292.42 154.393C294.667 149.934 301.583 148.19 305.516 147.555L307.359 147.256L305.744 146.339C304.533 145.511 303.216 145.353 301.952 145.212L301.548 145.159C301.267 145.123 300.951 144.894 300.846 144.648C300.793 144.507 300.811 144.401 300.899 144.26C301.338 143.678 301.899 143.361 302.654 143.273C305.112 142.991 308.939 145.37 311.695 147.679L311.905 147.802C312.169 147.89 312.432 147.978 312.695 148.084L313.029 148.207L313.31 148.014C319.822 143.414 352.649 120.117 359.723 113.79C363.603 110.336 367.693 97.5596 372.011 84.0429C377.664 66.3849 384.703 44.3741 391.409 45.5372C400.713 47.0704 406.225 52.6744 407.805 62.1907C411.842 86.6159 388.706 127.166 373.96 135.061V135.026Z" fill="#251C4C"/>
<path d="M396.903 40.92C380.613 37.748 366.85 74.8615 366.85 74.8615C377.471 90.3166 410.842 94.2818 410.842 94.2818C416.687 75.4078 413.194 44.1098 396.903 40.9377V40.92Z" fill="#251C4C"/>
<path d="M379.226 140.401L378.524 141.528C378.822 141.722 398.132 153.565 426.834 153.565C443.159 153.565 462.504 149.741 483.113 137.739L482.446 136.594C426.272 169.249 379.665 140.682 379.209 140.383L379.226 140.401Z" fill="white"/>
<path d="M400.502 41.4311C392.69 38.8053 384.282 43.7573 376.154 55.776C370.116 64.7108 366.289 74.5267 366.236 74.6148L367.465 75.0906C367.605 74.7029 382.544 36.7787 400.081 42.6823C417.67 48.6036 410.262 93.7002 410.192 94.1584L411.491 94.3699C411.509 94.2465 413.44 82.6507 413.106 70.4558C412.632 53.8552 408.402 44.0921 400.502 41.4311Z" fill="white"/>
<path d="M356.335 57.7498L355.089 57.3268C354.931 57.8027 351.192 69.3808 366.289 92.2551L367.377 91.5326C352.684 69.2927 356.283 57.8908 356.318 57.7674L356.335 57.7498Z" fill="white"/>
</g>
<defs>
<clipPath id="clip0_23_722">
<rect width="500" height="529" fill="white"/>
</clipPath>
</defs>
</svg>
